<svg width="45" height="36" viewBox="0 0 45 36" fill="none" xmlns="http://www.w3.org/2000/svg">
<path d="M22.6195 22.2375C18.9695 22.2375 15.9945 25.2118 15.9945 28.8626C15.9945 32.5133 18.9695 35.4854 22.6195 35.4854C26.2695 35.4854 29.243 32.5111 29.243 28.8618C29.243 25.2125 26.2687 22.2368 22.6195 22.2368V22.2375ZM22.6195 33.4111C20.0923 33.4111 18.0695 31.3876 18.0695 28.8611C18.0695 26.3346 20.0915 24.3111 22.6195 24.3111C25.1474 24.3111 27.1687 26.3331 27.1687 28.8611C27.1687 31.389 25.0879 33.4104 22.6195 33.4104V33.4111ZM35.4761 22.4603C35.7577 22.9647 35.5349 23.5831 35.0298 23.8647C34.5246 24.1464 33.907 23.9214 33.6254 23.4162C31.5467 19.2059 27.3349 16.5633 22.6195 16.5633C17.8459 16.5633 13.468 19.3147 11.5033 23.6405C11.3364 24.0361 10.9415 24.2596 10.5474 24.2596C10.3797 24.2596 10.2658 24.2022 10.0989 24.1449C9.59518 23.9214 9.37092 23.303 9.59518 22.7405C11.9555 17.6875 17.0614 14.4846 22.6246 14.4846C28.1246 14.4846 33.0643 17.5214 35.4776 22.4603H35.4761ZM40.4217 16.2265C40.7599 16.6728 40.6452 17.3486 40.1982 17.6868C39.7511 18.025 39.0746 17.9103 38.7371 17.4633C35.0298 12.2427 29.0239 9.09707 22.6195 9.09707C16.1614 9.09707 10.0989 12.2441 6.45032 17.5206C6.22532 17.8 5.94518 17.9677 5.60694 17.9677C5.38341 17.9677 5.21209 17.9103 4.98782 17.8008C4.54076 17.464 4.42679 16.8449 4.70841 16.3405C8.804 10.5022 15.4908 7.01839 22.6187 7.01839C29.6386 7.01839 36.3195 10.5022 40.4217 16.2265ZM44.6327 11.8478C44.1857 12.2434 43.5099 12.1287 43.1717 11.7338C38.0614 5.61398 30.5379 2.07206 22.5614 2.07206C14.5349 2.07353 6.954 5.66913 1.8437 11.8456C1.62017 12.0691 1.34002 12.2405 1.05914 12.2405C0.836344 12.2405 0.612814 12.1838 0.384138 12.0169C-0.0643926 11.6802 -0.120275 11.0096 0.217225 10.5566C5.7165 3.87354 13.8584 0 22.5092 0C31.1011 0 39.1894 3.76471 44.6908 10.3883C45.1394 10.8353 45.082 11.5118 44.6342 11.8493L44.6327 11.8478Z" fill="#1C2A39"/>
</svg>
