<?xml version="1.0" encoding="utf-8"?>
<!-- Generator: Adobe Illustrator 24.0.1, SVG Export Plug-In . SVG Version: 6.00 Build 0)  -->
<svg version="1.1" id="Bold" xmlns="http://www.w3.org/2000/svg" xmlns:xlink="http://www.w3.org/1999/xlink" x="0px" y="0px"
	 viewBox="0 0 512 512" style="enable-background:new 0 0 512 512;" xml:space="preserve">
<style type="text/css">
	.st0{fill:#86AE34;}
</style>
<path class="st0" d="M315.2,215.5H65.7c-19.3,0-34.9,10.1-34.9,22.6v32.3c0,12.5,15.7,22.6,34.9,22.6h249.5
	c19.3,0,34.9-10.1,34.9-22.6v-32.3C350.1,225.6,334.4,215.5,315.2,215.5z"/>
<path class="st0" d="M453.2,30.2H203.7c-19.3,0-34.9,10.1-34.9,22.6v32.3c0,12.5,15.7,22.6,34.9,22.6h249.5
	c19.3,0,34.9-10.1,34.9-22.6V52.9C488.1,40.4,472.4,30.2,453.2,30.2z"/>
<circle class="st0" cx="447.4" cy="254.2" r="38.8"/>
<circle class="st0" cx="69.4" cy="71" r="38.8"/>
<path class="st0" d="M453.2,410.2H203.7c-19.3,0-34.9,10.1-34.9,22.6v32.3c0,12.5,15.7,22.6,34.9,22.6h249.5
	c19.3,0,34.9-10.1,34.9-22.6v-32.3C488.1,420.4,472.4,410.2,453.2,410.2z"/>
<circle class="st0" cx="69.4" cy="451" r="38.8"/>
</svg>
