<?xml version="1.0" encoding="utf-8"?>
<!-- Generator: Adobe Illustrator 24.0.1, SVG Export Plug-In . SVG Version: 6.00 Build 0)  -->
<svg version="1.1" id="Capa_1" xmlns="http://www.w3.org/2000/svg" xmlns:xlink="http://www.w3.org/1999/xlink" x="0px" y="0px"
	 viewBox="0 0 512 512" style="enable-background:new 0 0 512 512;" xml:space="preserve">
<style type="text/css">
	.st0{fill:#86AE34;}
</style>
<g>
	<path class="st0" d="M394.5,196.9l31.4-54.4l-48.1-40.4l-10.9-61.8h-62.8L256,0l-48.1,40.4h-62.8l-10.9,61.8l-48.1,40.4l31.4,54.4
		l-10.9,61.8l29,10.6V512h31.9l88.7-93.9l89,93.9h31.6V269.1l28.6-10.4L394.5,196.9z M165.8,470V280.5l31.2,54.1l44.1-16.1v71.7
		L165.8,470z M346.7,469.7l-75.4-79.5v-71.5l43.7,15.9l31.4-54.4l0.3-0.1V469.7z M362.9,191.3l8.4,47.7l-45.5,16.6l-24.2,42L256,281
		l-45.5,16.6l-24.2-42L140.7,239l8.4-47.7l-24.2-42l37.1-31.1l8.4-47.7h48.5L256,39.3l37.1,31.1h48.5l8.4,47.7l37.1,31.1
		L362.9,191.3z"/>
	<path class="st0" d="M233.1,177.5l-21-24.4l-22.9,19.6l39.3,45.9l91.7-68.8l-18.1-24.1L233.1,177.5z"/>
</g>
</svg>
