<?xml version="1.0" encoding="utf-8"?>
<!-- Generator: Adobe Illustrator 24.0.1, SVG Export Plug-In . SVG Version: 6.00 Build 0)  -->
<svg version="1.1" id="Capa_1" xmlns="http://www.w3.org/2000/svg" xmlns:xlink="http://www.w3.org/1999/xlink" x="0px" y="0px"
	 viewBox="0 0 512 512" style="enable-background:new 0 0 512 512;" xml:space="preserve">
<style type="text/css">
	.st0{fill:#86AE34;}
</style>
<g>
	<path class="st0" d="M498,234.6c0-13.7-4.9-26.2-13.1-35.9c8-6.6,13.1-16.6,13.1-27.7C498,84.4,427.6,14,341.1,14H170.9
		C84.4,14,14,84.4,14,170.9c0,11.1,5.1,21.1,13.1,27.7c-8.1,9.7-13.1,22.3-13.1,35.9c0,19.2,9.7,36.2,24.5,46.3
		c-15,13.4-24.5,32.9-24.5,54.5c0,18.8,7.2,36,18.9,49C21.7,390.4,14,402.3,14,416v11.1c0,39.1,31.8,70.9,70.9,70.9h342.2
		c39.1,0,70.9-31.8,70.9-70.9V416c0-13.7-7.7-25.6-18.9-31.6c11.8-13,18.9-30.2,18.9-49c0-21.6-9.5-41.1-24.5-54.5
		C488.3,270.7,498,253.8,498,234.6L498,234.6z M103.5,262.3c-11.6,0-21.5,0-33.4,0c-15.3,0-27.7-12.4-27.7-27.7
		c0-15.3,12.4-27.7,27.7-27.7h201.8l31.9,55.4H169.7c-7.8,0-14.2,6.4-14.2,14.2v25.8c0,10.4-8.5,18.9-18.9,18.9
		c-10.4,0-18.9-8.5-18.9-18.9c0-9.6,0-16.2,0-25.8C117.7,268.6,111.3,262.3,103.5,262.3L103.5,262.3z M469.6,427.1
		c0,23.5-19.1,42.5-42.5,42.5H84.9c-23.5,0-42.5-19.1-42.5-42.5V416c0-4.2,3.4-7.6,7.6-7.6h412.2c4.2,0,7.6,3.4,7.6,7.6V427.1z
		 M424.9,380.1H87.1c-24.7,0-44.7-20.1-44.7-44.7c0-22.9,17.5-44.7,47-44.7v11.6c0,26.1,21.2,47.3,47.3,47.3s47.3-21.2,47.3-47.3
		v-11.6h136.3l13.4,23.3c12.7,22.1,44.6,22.2,57.3,0l13.4-23.3h20.6c24.7,0,44.7,20.1,44.7,44.7C469.6,360,449.6,380.1,424.9,380.1z
		 M304.6,206.8h115.2c-17.3,30.1-42.7,74.1-53.5,93c-1.8,3.2-6.4,3.2-8.2,0C346.7,279.9,317.1,228.5,304.6,206.8z M441.9,262.3
		c-9.5,0-11.8,0-21.3,0l30.9-53.7c10.5,3.9,18.1,14.1,18.1,26C469.6,249.8,457.2,262.3,441.9,262.3z M462.1,178.5
		c-6.5,0-404.8,0-412.2,0c-4.2,0-7.6-3.4-7.6-7.6C42.4,100,100,42.4,170.9,42.4h170.2c70.9,0,128.6,57.7,128.6,128.6
		C469.6,175.1,466.2,178.5,462.1,178.5z"/>
	<path class="st0" d="M172.2,81.4h-17c-7.8,0-14.2,6.3-14.2,14.2s6.3,14.2,14.2,14.2h17c7.8,0,14.2-6.3,14.2-14.2
		S180,81.4,172.2,81.4z"/>
	<path class="st0" d="M356.8,81.4h-17c-7.8,0-14.2,6.3-14.2,14.2s6.3,14.2,14.2,14.2h17c7.8,0,14.2-6.3,14.2-14.2
		S364.7,81.4,356.8,81.4z"/>
	<path class="st0" d="M264.5,114.5h-17c-7.8,0-14.2,6.3-14.2,14.2s6.3,14.2,14.2,14.2h17c7.8,0,14.2-6.3,14.2-14.2
		S272.3,114.5,264.5,114.5z"/>
</g>
</svg>
