<?xml version="1.0" encoding="utf-8"?>
<!-- Generator: Adobe Illustrator 24.0.1, SVG Export Plug-In . SVG Version: 6.00 Build 0)  -->
<svg version="1.1" id="Capa_1" xmlns="http://www.w3.org/2000/svg" xmlns:xlink="http://www.w3.org/1999/xlink" x="0px" y="0px"
	 viewBox="0 0 512 512" style="enable-background:new 0 0 512 512;" xml:space="preserve">
<style type="text/css">
	.st0{fill:#86AE34;}
</style>
<g>
	<g>
		<g>
			<path class="st0" d="M386.1,135.1C359,112,327.8,94.2,294.1,82.6c-16.7-5.8-35.3-2.8-49.3,8.1l-10.9,8.6H207V79.7h19.6
				c5.4,0,9.8-4.4,9.8-9.8V30.7c0-5.4-4.4-9.8-9.8-9.8H69.9c-5.4,0-9.8,4.4-9.8,9.8l0,39.2c0,5.4,4.4,9.8,9.8,9.8h19.6l0,19.6
				c-37.8,0-68.5,30.7-68.6,68.6l0,254.7c0,37.8,30.7,68.5,68.6,68.6H207v-19.6H89.5c-20.1,0-37.3-12.1-44.9-29.4h84
				c16.2,0,29.4-13.2,29.4-29.4l0-235.1c0-16.2-13.2-29.4-29.4-29.4h-84c7.6-17.3,24.8-29.4,44.9-29.4H209l-8.1,6.3
				c-2.4,1.9-3.7,4.7-3.7,7.7v7.4c0.3,23.1,12.9,44.2,33,55.4l6,3.4c13.1,7.4,28.6,9,42.9,4.5l37-11.7l15.5,14.6
				c1.6,2.2,3.3,4.3,5,6.4c7,7.5,11.6,16.9,13,27.1c1.3,8.6,1.5,17.2,0.5,25.8c-0.3,3.6-0.5,7.2-0.6,10.8
				c-0.1,5.7,0.3,11.1,1.4,16.5c-31.3-2.6-57,7.9-64.9,27.7c-0.7,1.9-1.3,3.9-1.6,5.9c-6.1-1.6-12.5-2.3-19-2.3
				c-22.2,1.4-41.6,12.6-54.1,29.4h-33.7v19.6H201c-2,5.9-3.4,12.2-3.8,18.7l19.6,1.7c1.9-26.5,22.8-47.7,49.3-49.8
				c21.7-0.2,41.4,13,49.4,33.2l18-7.6c-6.1-15-16.9-27.2-30.3-35.1c0-2.2,0.3-4.3,1-6.4c4.4-11.1,25.6-19.1,53.9-14.3
				c5.2,10.6,13,22.3,24,36.3l15.5-12.1c-24.2-30.9-28.7-45.3-28.4-61c0.1-3.3,0.3-6.4,0.6-9.6c1.1-10.2,0.9-20.4-0.7-30.5
				c-2-13.5-8-26.1-17.1-36.2c-1.7-2-3.3-4-4.9-6.2c-0.4-0.5-0.8-1-1.3-1.4l-20.3-19.2c-2.6-2.4-6.3-3.3-9.7-2.2L273.3,185
				c-2.7,0.9-5.5,1.4-8.4,1.5c0.3-6.9,2.3-13.7,6.1-19.6c6.3-6.4,15.2-9.7,24.1-8.8v-19.6c-14.9-1-29.4,4.9-39.3,16
				c-5.7,8.2-9.2,17.7-10.2,27.5l-5.8-3.2c-14-7.7-22.9-22.4-23.1-38.4v-2.7l40.1-31.6c8.7-6.7,20.3-8.6,30.7-5
				c31.4,10.7,60.5,27.3,85.7,48.8c56.6,49.6,91.8,119.2,98.1,194.2c-0.1,5.2-4.1,127.4-244.1,127.4l0,19.6
				c260.7,0,263.7-140.9,263.7-147C490.7,310.7,471,208.1,386.1,135.1z M128.7,167.9c5.4,0,9.8,4.4,9.8,9.8l0,235.1
				c0,5.4-4.4,9.8-9.8,9.8H40.5l0-254.7H128.7z M79.7,40.5h137.1v19.6H79.7V40.5z M109.1,79.7h78.4v19.6h-78.4V79.7z"/>
			<rect x="246.2" y="216.8" class="st0" width="19.6" height="97.9"/>
			<rect x="99.3" y="383.3" class="st0" width="19.6" height="19.6"/>
			<rect x="60.1" y="383.3" class="st0" width="19.6" height="19.6"/>
			<rect x="99.3" y="344.1" class="st0" width="19.6" height="19.6"/>
		</g>
	</g>
</g>
</svg>
