<svg id="Capa_1" enable-background="new 0 0 497 497" height="512" viewBox="0 0 497 497" width="512" xmlns="http://www.w3.org/2000/svg"><g><path d="m355 119.516c-1.89 2.483-1.373 7.004-3.451 9.273-17.987 19.643-42.77 31.275-70.345 34.813-12.746 1.635-24.506-7.318-26.321-20.04-4.381-30.701 1.873-60.734 20.127-84.71 15.147-19.895 36.51-32.931 60.918-39.046 5.007-1.254 8.336.381 13.572-.291 12.746-1.634 24.504 7.318 26.32 20.039 4.383 30.701-2.566 55.986-20.82 79.962z" fill="#6fd7a3"/><path d="m357.5 121.656c-18.25 23.98-45.54 38-76.3 41.95-5.25.67-10.33-.45-14.62-2.9 24.41-6.11 45.78-19.15 60.92-39.05 18.26-23.97 24.51-54 20.13-84.7-1.07-7.48-5.58-13.65-11.7-17.14 5-1.26 10.14-2.23 15.38-2.9 12.74-1.63 24.5 7.32 26.32 20.04 4.38 30.7-1.87 60.73-20.13 84.7z" fill="#3ec3a4"/><path d="m275.632 150.438c-1.551 0-3.113-.497-4.441-1.524-3.209-2.484-3.82-7.131-1.365-10.378l42.055-55.615c2.455-3.247 7.047-3.866 10.258-1.381 3.209 2.484 3.82 7.131 1.365 10.378l-42.055 55.615c-1.441 1.905-3.617 2.905-5.817 2.905z" fill="#3ec3a4"/><path d="m247.879 182.568c-.271 0-.544-.015-.82-.044-4.115-.448-7.09-4.146-6.645-8.261.018-.162 1.704-16.391-.753-36.913-2.212-18.478-8.336-44.384-24.949-62.874-14.635-16.288-35.388-24.546-61.682-24.546-4.143 0-7.5-3.358-7.5-7.5s3.357-7.5 7.5-7.5c30.76 0 55.282 9.95 72.886 29.573 15.269 17.02 25.189 41.73 28.686 71.458 2.604 22.129.804 39.203.726 39.919-.42 3.841-3.671 6.688-7.449 6.688z" fill="#d88a55"/><path d="m343.833 129.016c-10.196-1.667-20.939-3.883-30.75-2.777-13.38 1.508-26.253 5.466-38.213 11.52-16.883 8.546-35.858 8.546-52.74 0-20.73-10.493-44.201-14.688-68.304-10.747-68.444 11.19-115.985 83.626-106.187 161.791 2.086 16.642 6.998 35.352 14.099 54.387 1.24 3.325 15.058 3.824 16.429 7.16 1.37 3.336-9.706 9.508-8.212 12.836 28.628 63.768 79.285 124.353 128.066 116.378 7.751-1.267 15.121-4.212 22.085-8.551 17.611-10.976 39.179-10.976 56.79 0 5.158 3.214 10.539 5.664 16.133 7.232 1.958.549 8.463-.224 10.472.105 65-1 133.535-112.493 143.333-190.658 9.798-78.166-41.001-145.676-103.001-158.676z" fill="#fe646f"/><path d="m449.36 288.806c-9.8 78.16-81.94 201.95-150.38 190.76-2.01-.33-4-.77-5.95-1.32 60.4-15.8 117.68-120.42 126.33-189.44 9.8-78.17-37.74-150.61-106.19-161.8-.95-.16-1.91-.3-2.86-.42 10.68-1.48 21.7-1.4 32.86.42 68.45 11.19 115.99 83.63 106.19 161.8z" fill="#fd4755"/><path d="m435.26 343.186c-2.48 6.65-5.23 13.34-8.22 20h-357.08c-2.99-6.66-5.74-13.35-8.22-20z" fill="#fd4755"/><path d="m494 254.756v65.87c0 12.46-10.82 19.89-23.28 19.89l-22.671 2.67h-425.489c-12.46 0-22.56-10.1-22.56-22.56v-65.87c0-12.46 10.1-22.56 22.56-22.56h425.489l22.671 1.82c12.46 0 23.28 8.28 23.28 20.74z" fill="#fbe08b"/><path d="m497 254.756v65.87c0 12.46-10.1 22.56-22.56 22.56h-30c12.46 0 22.56-10.1 22.56-22.56v-65.87c0-12.46-10.1-22.56-22.56-22.56h30c12.46 0 22.56 10.1 22.56 22.56z" fill="#f9d176"/><g fill="#efedef"><path d="m87.98 232.196v45.83c0 4.14-3.35 7.5-7.5 7.5-4.14 0-7.5-3.36-7.5-7.5v-45.83z"/><path d="m128.52 232.196v63.45c0 4.14-3.36 7.5-7.5 7.5s-7.5-3.36-7.5-7.5v-63.45z"/><path d="m171.99 232.196v45.83c0 4.14-3.36 7.5-7.5 7.5s-7.5-3.36-7.5-7.5v-45.83z"/><path d="m212.53 232.196v63.45c0 4.14-3.36 7.5-7.5 7.5-4.15 0-7.5-3.36-7.5-7.5v-63.45z"/><path d="m256 232.196v45.83c0 4.14-3.36 7.5-7.5 7.5s-7.5-3.36-7.5-7.5v-45.83z"/><path d="m296.54 232.196v63.45c0 4.14-3.36 7.5-7.5 7.5-4.15 0-7.5-3.36-7.5-7.5v-63.45z"/><path d="m340.01 232.196v45.83c0 4.14-3.36 7.5-7.5 7.5s-7.5-3.36-7.5-7.5v-45.83z"/><path d="m380.54 232.196v63.45c0 4.14-3.35 7.5-7.5 7.5-4.14 0-7.5-3.36-7.5-7.5v-63.45z"/><path d="m424.02 232.196v45.83c0 4.14-3.36 7.5-7.5 7.5-4.15 0-7.5-3.36-7.5-7.5v-45.83z"/></g></g></svg>