<?xml version="1.0" encoding="utf-8"?>
<!-- Generator: Adobe Illustrator 24.0.1, SVG Export Plug-In . SVG Version: 6.00 Build 0)  -->
<svg version="1.1" id="Capa_1" xmlns="http://www.w3.org/2000/svg" xmlns:xlink="http://www.w3.org/1999/xlink" x="0px" y="0px"
	 viewBox="0 0 512 512" style="enable-background:new 0 0 512 512;" xml:space="preserve">
<style type="text/css">
	.st0{fill:#FFFFFF;}
</style>
<g>
	<path class="st0" d="M436.6,2.9H105.8c-21.7,0-39.4,15.6-39.4,34.7v43.9H52.9c-9.3,0-16.9,6.7-16.9,14.9s7.6,14.9,16.9,14.9h13.5
		v130.5H52.9c-9.3,0-16.9,6.7-16.9,14.9c0,8.2,7.6,14.9,16.9,14.9h13.5v130.5H52.9c-9.3,0-16.9,6.7-16.9,14.9s7.6,14.9,16.9,14.9
		h13.5v43.9c0,19.1,17.7,34.7,39.4,34.7h330.8c21.7,0,39.4-15.6,39.4-34.7V37.6C476,18.5,458.3,2.9,436.6,2.9z M442.2,475.5
		c0,2.7-2.5,5-5.6,5H105.8c-3.1,0-5.6-2.2-5.6-5v-43.9h13.5c9.3,0,16.9-6.7,16.9-14.9s-7.6-14.9-16.9-14.9h-13.5V271.4h13.5
		c9.3,0,16.9-6.7,16.9-14.9c0-8.2-7.6-14.9-16.9-14.9h-13.5V111.2h13.5c9.3,0,16.9-6.7,16.9-14.9s-7.6-14.9-16.9-14.9h-13.5V37.6
		c0-2.7,2.5-5,5.6-5h330.8c3.1,0,5.6,2.2,5.6,5V475.5z"/>
	<path class="st0" d="M385.7,233.2h-17.4c-7.1-42.5-39.4-76.1-80.2-83.5v-24.2h21c9.3,0,16.9-7.9,16.9-17.6s-7.6-17.6-16.9-17.6
		h-75.8c-9.3,0-16.9,7.9-16.9,17.6s7.6,17.6,16.9,17.6h21v24.2c-40.8,7.4-73.2,41-80.2,83.5h-17.4c-9.3,0-16.9,7.9-16.9,17.6
		s7.6,17.6,16.9,17.6h229c9.3,0,16.9-7.9,16.9-17.6S395,233.2,385.7,233.2z M208.6,233.2c7.4-28.7,32.7-49.9,62.6-49.9
		c29.9,0,55.1,21.2,62.6,49.9H208.6z"/>
	<path class="st0" d="M373.6,310.4H168.8c-9.3,0-16.9,7.9-16.9,17.6s7.6,17.6,16.9,17.6h204.8c9.3,0,16.9-7.9,16.9-17.6
		S382.9,310.4,373.6,310.4z"/>
	<path class="st0" d="M331.2,403.7H211.2c-9.3,0-16.9,7.9-16.9,17.6s7.6,17.6,16.9,17.6h119.9c9.3,0,16.9-7.9,16.9-17.6
		S340.5,403.7,331.2,403.7z"/>
</g>
</svg>
