<?xml version="1.0" encoding="utf-8"?>
<!-- Generator: Adobe Illustrator 24.0.1, SVG Export Plug-In . SVG Version: 6.00 Build 0)  -->
<svg version="1.1" id="Capa_1" xmlns="http://www.w3.org/2000/svg" xmlns:xlink="http://www.w3.org/1999/xlink" x="0px" y="0px"
	 viewBox="0 0 512 512" style="enable-background:new 0 0 512 512;" xml:space="preserve">
<style type="text/css">
	.st0{fill-rule:evenodd;clip-rule:evenodd;fill:#FFE07D;}
	.st1{fill-rule:evenodd;clip-rule:evenodd;fill:#1C2A39;}
	.st2{fill-rule:evenodd;clip-rule:evenodd;fill:#FFC269;}
	.st3{fill-rule:evenodd;clip-rule:evenodd;fill:#030A02;}
	.st4{fill-rule:evenodd;clip-rule:evenodd;fill:#6F6571;}
	.st5{fill-rule:evenodd;clip-rule:evenodd;fill:#ECEAEC;}
	.st6{fill-rule:evenodd;clip-rule:evenodd;fill:#8FC741;}
	.st7{fill-rule:evenodd;clip-rule:evenodd;fill:#DAD8DB;}
	.st8{fill-rule:evenodd;clip-rule:evenodd;fill:#7AAD2A;}
	.st9{fill-rule:evenodd;clip-rule:evenodd;fill:#FFECE4;}
	.st10{fill-rule:evenodd;clip-rule:evenodd;fill:#5D5360;}
	.st11{fill-rule:evenodd;clip-rule:evenodd;fill:#FFDDCE;}
</style>
<g>
	<g>
		<path class="st0" d="M382,228.3h130v45.2c0,11.2-9.1,20.3-20.3,20.3H445l-27.9,14.1L382,293.7L382,228.3L382,228.3z"/>
	</g>
	<g>
		<path class="st0" d="M402.3,162.7h89.4c11.2,0,20.3,9.1,20.3,20.3v33.6H382V183C382,171.9,391.1,162.7,402.3,162.7z"/>
	</g>
	<g>
		<path class="st1" d="M382,206.5h130v31.9H382V206.5z"/>
	</g>
	<g>
		<path class="st2" d="M484.9,206.5h16.6H512V183c0-7.6-4.3-14.3-10.5-17.7c-2.9-1.6-6.2-2.5-9.8-2.5h-27.1
			c11.2,0,20.3,9.1,20.3,20.3L484.9,206.5L484.9,206.5z"/>
	</g>
	<g>
		<path class="st3" d="M484.9,238.3h16.6H512v-10.1v-11.7v-10.1h-10.5h-16.6v10.1v11.7V238.3z"/>
	</g>
	<g>
		<path class="st2" d="M484.9,238.3v35.1c0,11.2-9.1,20.3-20.3,20.3h27.1c3.5,0,6.9-0.9,9.8-2.5c6.2-3.5,10.5-10.1,10.5-17.8v-35.1
			h-10.5H484.9z"/>
	</g>
	<g>
		<path class="st4" d="M382,293.7h63v29c0,7-5.7,12.6-12.6,12.6h-205c0-18.2,0-27.5,13.9-27.5l27.7,0c17.5,0,28.9-4.5,35.3-14.1
			L382,293.7L382,293.7z"/>
	</g>
	<g>
		<path class="st0" d="M252.1,335.3h180.3c10.6,18.4,19.1,40.5,11.7,82.9c-12.3-41.7-136.8-25.1-149.6,23.1H157
			c-5.2-11.8-10.1-23.4-14.4-35.2h38.8C259.8,376.5,234.6,389.7,252.1,335.3L252.1,335.3z"/>
	</g>
	<g>
		<path class="st5" d="M241,222.2c2.7,14.1,6.3,28.1,10.4,40l39.6,15.5l44.2-15.5c-1.5-83.6-32.8-123.7-59.4-136.7
			c-9.6-7.3-19.4-10-19.4-10S243.5,136,242.9,136c-5,11.8-6.8,27.2-6.5,43.8L241,222.2z"/>
	</g>
	<g>
		<path class="st6" d="M335.2,262.1h-83.8c-19.3,2.1-43,16.8-43,62.3v47.7l19,11.3l24.7-11.3v-36.9c0-18.2,0-27.5,13.9-27.5l27.7,0
			c17.5,0,28.9-4.5,35.3-14.1C334,286.3,335.9,275.9,335.2,262.1L335.2,262.1z"/>
	</g>
	<g>
		<path class="st7" d="M335.2,262.1c-1.5-83.6-32.8-123.7-59.4-136.7c-3.9,2.8-8.3,5.1-13.1,6.8c23.5,17.8,47.1,57.6,48.5,129.9
			L335.2,262.1z"/>
	</g>
	<g>
		<path class="st8" d="M335.2,262.1h-24c0.7,13.8-1.2,24.2-6.1,31.6c-4,6-10.1,11.2-18.4,14.1h7.2c17.5,0,28.9-4.5,35.3-14.1
			C334,286.3,335.9,275.9,335.2,262.1z"/>
	</g>
	<g>
		<path class="st6" d="M294.5,441.2c0-43.2,34.3-77.7,76.5-77.7c34.4,0,63.5,22.8,73.1,54.6c2,6.5,3.2,13.4,3.4,20.6
			c0.1,2.8-1.8,2.5-4.5,2.5C393.5,441.2,344,441.2,294.5,441.2L294.5,441.2z"/>
	</g>
	<g>
		<path class="st4" d="M313.7,441.2h116.5c-1.7,31.4-27.1,56.3-58.2,56.3S315.4,472.6,313.7,441.2L313.7,441.2z"/>
	</g>
	<g>
		<path class="st4" d="M18,428.8l100.2,23.1c-6.4,27.7-34,45-61.6,38.6C28.9,484.1,11.6,456.5,18,428.8z"/>
	</g>
	<g>
		<path class="st5" d="M10.5,400.7c14.2-20.6,38.8-32.6,64.4-30c45.3,9.6,60.1,36.7,63,70.5c-0.1,4.6-0.6,9.2-1.5,13.8
			c-0.3,1.3-1.1,0.8-2.5,0.4l-15.7-3.6L18,428.8l-7.5-1.7L0,424.7C2,415.8,5.6,407.8,10.5,400.7L10.5,400.7z"/>
	</g>
	<g>
		<path class="st6" d="M74.8,370.6l40.5-140l18.2-8.2l20.4,8.2c-26.8,74.2-19.3,126-1.2,175.5c4.3,11.7,9.2,23.4,14.4,35.2H138
			L74.8,370.6z"/>
	</g>
	<g>
		<path class="st9" d="M200.2,73.5l47.5-10.1c4.8,0.4,18.6,12,18.6,19.3l-10.1,51.4c-4.2,1.3-8.7,2-13.3,2
			c-25.3,0-45.8-20.5-45.8-45.9C197.1,84.3,198.2,78.7,200.2,73.5L200.2,73.5z"/>
	</g>
	<g>
		<path class="st6" d="M184.8,73.5c0-32.7,25.9-59.1,57.8-59.1s57.8,26.4,57.8,59.1c0,21.6-8.8,40.7-24.6,51.9
			c-5.7,4-12.3,7-19.7,8.7V82.7c0-7.2-3.7-8.7-8.5-9.1h-47.5L184.8,73.5L184.8,73.5z"/>
	</g>
	<g>
		<path class="st8" d="M212.4,23.2c8.8-5.6,19.2-8.7,30.3-8.7c31.9,0,57.8,26.4,57.8,59.1c0,21.6-8.8,40.7-24.6,51.9
			c-4,2.8-8.5,5.1-13.4,6.8c11.7-11.9,18.1-29,18.1-47.8c0-34.1-27.1-61.8-60.4-61.8C217.5,22.7,214.9,22.8,212.4,23.2L212.4,23.2z"
			/>
	</g>
	<g>
		<path class="st4" d="M208.4,372.2h43.7v27.6c0,5.9-3.2,6.3-7.9,6.3h-62.8C180.1,378.4,196.9,372.2,208.4,372.2z"/>
	</g>
	<g>
		<path class="st8" d="M152.7,406.1c-18.1-49.4-25.6-101.3,1.2-175.5h-15c-0.1,0-0.1,0-0.2,0h-5.4c-26.8,74.2-19.3,126-1.2,175.5
			c4.3,11.7,9.2,23.4,14.4,35.2H157h10.1C161.9,429.5,157,417.8,152.7,406.1z"/>
	</g>
	<g>
		<path class="st7" d="M138,441.2l-63-70.5c-6.5-0.6-13-0.4-19.2,0.8l60.6,67.7c-0.1,3.9-0.4,7.9-1.2,12l3.1,0.7l15.7,3.6
			c1.4,0.3,2.2,0.8,2.5-0.4C137.4,450.4,137.9,445.8,138,441.2L138,441.2z"/>
	</g>
	<g>
		<path class="st2" d="M432.4,335.3H252.1v15.9h148.1c12.1,0,17.8,5.2,22.5,15.8c4.1,9.1,4.1,12.1,6,23.2c6.9,8,12.2,17.6,15.4,28.1
			C451.4,375.8,442.9,353.7,432.4,335.3L432.4,335.3z"/>
	</g>
	<g>
		<path class="st8" d="M428.7,390.1c-14-16.3-34.7-26.5-57.7-26.5c-5.8,0-11.4,0.6-16.8,1.8c34.5,7.8,58.6,38.3,59.7,73.4
			c0.1,1.9-0.8,2.4-2.2,2.5h18.5H443c2.6,0,4.6,0.4,4.5-2.5c-0.2-7.2-1.4-14.1-3.4-20.6c-0.1-0.2-0.1-0.4-0.2-0.6c0,0,0,0,0,0
			C440.7,407.3,435.5,398,428.7,390.1L428.7,390.1z"/>
	</g>
	<g>
		<path class="st10" d="M115.1,451.2L18,428.8c-1.1,4.6-1.5,9.2-1.3,13.7l77.1,17.7l3,0.7C94,473.5,86.7,484,77,491
			c19.7-3.5,36.4-18.4,41.1-39.1L115.1,451.2z"/>
	</g>
	<g>
		<path class="st10" d="M411.6,441.2h-97.9c0.3,6.1,1.6,12,3.6,17.6h68.2h18.5c-0.7,13.7-6,26.2-14.3,35.9
			c22.5-7.4,39.1-28.4,40.4-53.5L411.6,441.2L411.6,441.2z"/>
	</g>
	<g>
		<path class="st10" d="M445,322.7v-29h-39.6v29c0,7-5.7,12.6-12.6,12.6h39.6C439.3,335.3,445,329.6,445,322.7z"/>
	</g>
	<g>
		<path class="st11" d="M197.3,85.3h39c4.8,0.4,8.5,1.9,8.5,9.2V136c3.9-0.2,7.7-0.8,11.3-1.9V82.7c0-7.2-3.7-8.7-8.5-9.1h-47.5
			C198.7,77.2,197.8,81.2,197.3,85.3L197.3,85.3z"/>
	</g>
	<g>
		<path class="st0" d="M106.9,186.5l54.6,18.1c2.7,2.4-0.4,26.8-2.2,26h-44H95.8v-40.2C95.8,182.4,100,184.2,106.9,186.5z"/>
	</g>
	<g>
		<path class="st9" d="M187,230.6h-4.6h-23c-14.8,0-15.3-24.6,2.2-26l25.5-2l6.8,14.5L187,230.6z"/>
	</g>
	<g>
		<path class="st6" d="M236.4,179.9l9.1-7.9c22.9-19.7,51.8,13.6,21.2,33.4L241,222.2l-13,8.4h-41v-28.1l25.5-2.1L236.4,179.9z"/>
	</g>
	<g>
		<path class="st11" d="M187,230.6V217h-5.5h-2.9H174h-23c-0.9,0-1.7-0.1-2.5-0.2c-0.8,6.8,3,13.9,10.9,13.9h23H187z"/>
	</g>
	<g>
		<path class="st8" d="M266.7,205.4c18.5-12,15.2-29,4.7-36.1c0.8,7.3-2.6,15.7-13.1,22.5l-20.1,13l-5.7,3.7l-13,8.4H187v13.6h41
			l13-8.4L266.7,205.4z"/>
	</g>
	<g>
		<path class="st2" d="M161.5,204.5l-22-7.2c-7.4,7.9-10.9,23.3-6.2,33.3h20.6h5.4c-7.9,0-11.8-7.1-10.9-13.9
			C149.2,210.8,153.4,205.2,161.5,204.5L161.5,204.5z"/>
	</g>
</g>
</svg>
