<?xml version="1.0" encoding="utf-8"?>
<!-- Generator: Adobe Illustrator 24.0.1, SVG Export Plug-In . SVG Version: 6.00 Build 0)  -->
<svg version="1.1" id="Outline" xmlns="http://www.w3.org/2000/svg" xmlns:xlink="http://www.w3.org/1999/xlink" x="0px" y="0px"
	 viewBox="0 0 512 512" style="enable-background:new 0 0 512 512;" xml:space="preserve">
<style type="text/css">
	.st0{fill:#FFFFFF;}
</style>
<path class="st0" d="M48,272h42.5c-3.3,9.1-0.7,19.2,6.4,25.7l65.7,60.2l0,0c0.1,0,0.1,0.1,0.2,0.2l103.8,90H264c-4.4,0-8,3.6-8,8
	v32c0,4.4,3.6,8,8,8h96c4.4,0,8-3.6,8-8v-32c0-4.4-3.6-8-8-8v-12.7l4.3-4.3c7.5-7.5,11.7-17.7,11.7-28.3v-49l29-63.8
	c2.6-5.6,2.9-12.1,0.8-17.9H464c13.2,0,24-10.8,24-24v-16c0-4.4-3.6-8-8-8h-32v-8c0-92.6-75.4-168-168-168V32h8c4.4,0,8-3.6,8-8
	s-3.6-8-8-8h-64c-4.4,0-8,3.6-8,8s3.6,8,8,8h8v16c-92.6,0-168,75.4-168,168v8H32c-4.4,0-8,3.6-8,8v16C24,261.2,34.8,272,48,272z
	 M105.7,277.1c1.2-3.1,4.1-5.2,7.5-5.1h4.6c3.1,0,6,1.8,7.3,4.7l6,13.2v0l13.5,29.7l-36.7-33.7C105.2,283.7,104.4,280.2,105.7,277.1
	z M352,480h-80v-16h80V480z M389.9,275.7c1.5,2.3,1.7,5.2,0.6,7.6l-29.7,65.4c-0.5,1-0.7,2.2-0.7,3.3v50.7c0,6.4-2.5,12.5-7,17
	l-6.6,6.6c-1.5,1.5-2.3,3.5-2.3,5.7v16h-53L174.6,347.1l-29-63.8c-1.8-4-0.1-8.8,4-10.6c1-0.5,2.2-0.7,3.3-0.7h5.3
	c3,0,5.8,1.7,7.2,4.4l27.6,55.2c0.9,1.8,2.4,3.1,4.2,3.9l80,32c1.6,0.6,3.3,0.7,4.9,0.3l32-8c2.2-0.5,4-2,5.1-3.9l43.5-79.7
	c1.4-2.6,4.1-4.2,7-4.2h13.7C385.9,272,388.4,273.4,389.9,275.7z M180.9,272h165.6l-39.9,73.1l-26.1,6.5l-74.8-29.9L180.9,272z
	 M248,32h16v16h-16V32z M80,216c0-83.8,68.2-152,152-152h48c83.8,0,152,68.2,152,152v8H80V216z M40,240h432v8c0,4.4-3.6,8-8,8H48
	c-4.4,0-8-3.6-8-8V240z"/>
</svg>
