<svg width="25" height="26" viewBox="0 0 25 26" fill="none" xmlns="http://www.w3.org/2000/svg">
<g clip-path="url(#clip0)">
<path d="M9.34016 4.93267C9.46614 4.93267 9.5882 4.86531 9.6523 4.74666L9.95976 4.17774C10.0528 4.00553 9.98869 3.79048 9.81647 3.69741C9.64412 3.60433 9.42917 3.66857 9.33614 3.84069L9.02868 4.40961C8.9356 4.58182 8.99975 4.79691 9.17196 4.88994C9.22552 4.91892 9.28319 4.93267 9.34016 4.93267Z" fill="#B37836"/>
<path d="M12.9604 4.61698V3.97029C12.9604 3.77454 12.8017 3.61584 12.6059 3.61584C12.4102 3.61584 12.2515 3.77454 12.2515 3.97029V4.61698C12.2515 4.81273 12.4102 4.97142 12.6059 4.97142C12.8017 4.97142 12.9604 4.81273 12.9604 4.61698Z" fill="#B37836"/>
<path d="M15.8802 4.92789C15.9406 4.92789 16.0018 4.91243 16.0577 4.88C16.2271 4.78177 16.2847 4.56489 16.1865 4.39556L15.8621 3.83614C15.7638 3.66681 15.547 3.60919 15.3776 3.70737C15.2083 3.8056 15.1506 4.02249 15.2489 4.19182L15.5733 4.75123C15.6391 4.86455 15.758 4.92789 15.8802 4.92789Z" fill="#B37836"/>
<path d="M24.7119 11.8463V11.534C24.7119 10.8719 24.3784 10.2866 23.8708 9.93618C23.9903 9.83969 24.098 9.72605 24.1902 9.59567C24.5046 9.15103 24.5836 8.57833 24.4016 8.06377C23.9619 6.82098 23.0483 5.0313 21.1921 3.56274C19.052 1.86954 16.1663 0.984892 12.6153 0.933507C12.6119 0.93346 12.6084 0.93346 12.605 0.933507C11.0001 0.956718 9.51332 1.15309 8.18606 1.51713C7.9973 1.56889 7.88621 1.76394 7.93797 1.9527C7.98973 2.14145 8.18473 2.25264 8.37354 2.20078C9.64166 1.85295 11.067 1.66509 12.6101 1.6424C20.2783 1.75538 22.8707 5.86192 23.7332 8.30018C23.8402 8.60253 23.7957 8.92554 23.6113 9.18644C23.4285 9.44506 23.1417 9.5934 22.8246 9.5934H2.39554C2.07725 9.5934 1.78899 9.44421 1.60477 9.18403C1.42272 8.92701 1.378 8.61005 1.482 8.3145C2.11077 6.5278 3.5547 4.1067 6.86276 2.71936C7.0433 2.64363 7.12829 2.43596 7.05256 2.25543C6.97683 2.07485 6.76902 1.98999 6.58863 2.06563C4.97788 2.74115 3.63005 3.71713 2.58269 4.96644C1.81201 5.88565 1.21671 6.93292 0.813335 8.07918C0.631999 8.59454 0.709572 9.14659 1.0263 9.59373C1.11852 9.72402 1.2282 9.83832 1.35035 9.93561C0.842266 10.2859 0.508476 10.8716 0.508476 11.534V11.8463C0.508476 12.7822 1.17449 13.5655 2.05745 13.7471L2.05036 15.8638C1.171 16.0482 0.508476 16.8295 0.508476 17.7628V18.0751C0.508476 19.0105 1.17379 19.7934 2.05603 19.9756C2.03225 20.3486 2.04445 20.954 2.25953 21.6275C2.83923 23.4428 4.40919 24.3073 5.62409 24.7129C6.32471 24.9467 7.07294 25.0653 7.84796 25.0653H17.3724C18.1475 25.0653 18.8956 24.9467 19.5963 24.7129C20.8112 24.3073 22.3812 23.4428 22.9608 21.6275C23.1759 20.9541 23.1881 20.3486 23.1643 19.9756C24.0466 19.7934 24.7119 19.0105 24.7119 18.0751V17.7628C24.7119 16.827 24.0458 16.0444 23.1629 15.8627V13.7471C24.0458 13.5655 24.7119 12.7822 24.7119 11.8463ZM1.21737 18.0751V17.7628C1.21737 17.2242 1.56534 16.7663 2.04794 16.5994L2.04724 16.8083C2.04724 17.3114 2.3294 17.7573 2.78355 17.9719C3.24034 18.1878 3.76733 18.1221 4.1587 17.8005C4.34178 17.65 4.56467 17.5108 4.95249 17.5108C4.99329 17.5108 5.03172 17.5125 5.06921 17.5148V19.3068H2.44905C1.76989 19.3068 1.21737 18.7542 1.21737 18.0751ZM15.3419 15.3025H22.454V16.8084C22.454 17.038 22.3305 17.2334 22.1237 17.3312C21.9142 17.4302 21.6816 17.4009 21.5016 17.253C21.246 17.0429 20.8736 16.8019 20.2573 16.8019C19.4963 16.8019 19.1061 17.1109 18.7619 17.3836C18.4596 17.6231 18.2208 17.8122 17.7065 17.8122C17.1921 17.8122 16.9534 17.6231 16.6511 17.3836C16.3069 17.111 15.9167 16.8019 15.1556 16.8019C14.3946 16.8019 13.9874 17.1244 13.6601 17.3836C13.3579 17.6231 13.1192 17.8122 12.6049 17.8122C12.0906 17.8122 11.8518 17.6231 11.5496 17.3836C11.2224 17.1244 10.8152 16.8019 10.0542 16.8019C9.29308 16.8019 8.90294 17.1109 8.55866 17.3836C8.34319 17.5543 8.15916 17.6988 7.88526 17.7679V15.7721C7.88526 15.5132 8.09591 15.3025 8.35487 15.3025H13.6799C13.8756 15.3025 14.0343 15.1438 14.0343 14.9481C14.0343 14.7523 13.8756 14.5936 13.6799 14.5936H8.35482C7.70497 14.5936 7.17632 15.1223 7.17632 15.7721V20.1373C7.17632 20.5228 6.86272 20.8364 6.47721 20.8364C6.09171 20.8364 5.7781 20.5228 5.7781 20.1373V15.7721C5.7781 15.1223 5.24941 14.5936 4.59961 14.5936H2.76634V13.7869H22.454V14.5936H15.3419C15.1462 14.5936 14.9875 14.7523 14.9875 14.9481C14.9875 15.1438 15.1462 15.3025 15.3419 15.3025ZM4.59956 15.3025C4.85852 15.3025 5.06921 15.5132 5.06921 15.7721V16.8048C5.03125 16.8031 4.99263 16.8019 4.95249 16.8019C4.33635 16.8019 3.96408 17.0428 3.70862 17.2527C3.52851 17.4007 3.29598 17.43 3.08637 17.3309C2.87956 17.2332 2.75608 17.0378 2.75608 16.8082V15.3025H4.59956ZM22.2855 21.4119C21.8928 22.6418 20.9125 23.5261 19.3718 24.0404C18.7437 24.2501 18.071 24.3564 17.3724 24.3564H7.84796C7.14938 24.3564 6.47669 24.2501 5.84859 24.0404C2.83049 23.033 2.70408 20.8075 2.76133 20.0157H5.06926V20.1372C5.06926 20.9136 5.70086 21.5453 6.47726 21.5453C7.25366 21.5453 7.88526 20.9137 7.88526 20.1372V20.0157H22.4572C22.4772 20.3184 22.47 20.8341 22.2855 21.4119ZM24.003 17.7628V18.0751C24.003 18.7542 23.4504 19.3068 22.7712 19.3068H7.88522V18.4915C8.40497 18.4085 8.71754 18.1621 8.99876 17.9393C9.30102 17.6999 9.53979 17.5108 10.0541 17.5108C10.5684 17.5108 10.8072 17.6999 11.1094 17.9393C11.4366 18.1985 11.8438 18.5211 12.6048 18.5211C13.3659 18.5211 13.7561 18.212 14.1003 17.9393C14.4025 17.6999 14.6413 17.5108 15.1556 17.5108C15.67 17.5108 15.9087 17.6999 16.2109 17.9393C16.5552 18.212 16.9454 18.5211 17.7065 18.5211C18.4675 18.5211 18.8577 18.212 19.202 17.9393C19.5042 17.6999 19.7429 17.5108 20.2573 17.5108C20.6452 17.5108 20.8682 17.6501 21.0514 17.8007C21.4427 18.1223 21.9697 18.1881 22.4265 17.9722C22.8807 17.7576 23.1628 17.3116 23.1628 16.8085V16.5954C23.6506 16.7594 24.003 17.2205 24.003 17.7628ZM22.7713 13.078H2.44905C1.76989 13.078 1.21732 12.5254 1.21732 11.8463V11.534C1.21732 10.8548 1.76989 10.3023 2.44905 10.3023H22.7712C23.4504 10.3023 24.003 10.8548 24.003 11.534V11.8463C24.003 12.5254 23.4505 13.078 22.7713 13.078Z" fill="#B37836"/>
</g>
<defs>
<clipPath id="clip0">
<rect width="24.2034" height="24.2034" fill="white" transform="translate(0.508476 0.898315)"/>
</clipPath>
</defs>
</svg>
