<?xml version="1.0" encoding="utf-8"?>
<!-- Generator: Adobe Illustrator 24.0.1, SVG Export Plug-In . SVG Version: 6.00 Build 0)  -->
<svg version="1.1" id="Layer_1" xmlns="http://www.w3.org/2000/svg" xmlns:xlink="http://www.w3.org/1999/xlink" x="0px" y="0px"
	 viewBox="0 0 512 512" style="enable-background:new 0 0 512 512;" xml:space="preserve">
<style type="text/css">
	.st0{fill:#FFAC96;}
	.st1{fill:#FFBCAB;}
	.st2{fill:#8FC741;}
	.st3{fill:#D80027;}
	.st4{fill:#BD0022;}
	.st5{fill:#F1F2F2;}
</style>
<g id="healthcare-covid19-coronavirus-hand-hearth">
	<path class="st0" d="M125.7,242.2L89.4,137.8C86.3,125.1,73.8,117,61,119.2c-13,2.8-21.3,15.5-18.5,28.5c0.1,0.4,0.2,0.8,0.3,1.1
		L80,264L125.7,242.2z"/>
	<path class="st0" d="M386.3,242.2l36.2-104.4c3.2-12.7,15.6-20.8,28.5-18.6c13,2.8,21.3,15.5,18.5,28.5c-0.1,0.4-0.2,0.8-0.3,1.1
		L432,264L386.3,242.2z"/>
	<path class="st1" d="M200.4,285.5L129.6,244c-10.1-5.8-22.9-3.5-30.4,5.4l-25.8-79.7C70.3,157.1,57.8,149,45,151.2
		c-13,2.8-21.3,15.5-18.5,28.5c0.1,0.4,0.2,0.8,0.3,1.1l34.8,129.8c1.6,6.1,5,11.5,9.7,15.7l54.1,48.1c6.8,6.1,10.7,14.8,10.7,23.9
		V424h96v-83.3C232,318,220,296.9,200.4,285.5z"/>
	<path class="st1" d="M467,151.2c-12.9-2.2-25.3,5.9-28.5,18.6l-25.8,79.7c-7.5-9-20.3-11.3-30.4-5.4l-70.7,41.5
		C292,297,280,318,280,340.7V424h96v-25.6c0-9.1,3.9-17.8,10.7-23.9l54.1-48.1c4.7-4.1,8.1-9.6,9.7-15.7l34.8-129.8
		c3.4-12.8-4.3-26-17.1-29.4C467.8,151.4,467.4,151.3,467,151.2L467,151.2z"/>
	<path class="st2" d="M272,424v64h112v-64h-8h-96H272z"/>
	<path class="st2" d="M240,424h-8h-96h-8v64h112V424z"/>
	<path class="st3" d="M363.5,148.5l-5.7,5.7L256,256L154.2,154.2l-5.7-5.7c-28.7-27.5-29.7-73.1-2.1-101.8s73.1-29.7,101.8-2.1
		c0.7,0.7,1.5,1.4,2.2,2.2l5.7,5.7l5.7-5.7c27.4-28.8,73-29.8,101.7-2.3s29.7,73.1,2.2,101.8C365,147,364.3,147.8,363.5,148.5z"/>
	<path class="st4" d="M363.5,46.7c-15.4-15.6-37.2-23.2-58.9-20.6c39.5,4.4,68,39.9,63.6,79.4c-1.8,16.2-9.1,31.4-20.6,43l-5.7,5.7
		L248,248l8,8l101.8-101.8l5.7-5.7C391.6,120.4,391.6,74.8,363.5,46.7z"/>
	<path class="st5" d="M272,176v-32h32v-32h-32V80h-32v32h-32v32h32v32H272z"/>
	<g>
		<path class="st0" d="M406.4,269.6l-53.5,29.6c-3.2,1.8-4.4,5.8-2.7,9.1c1.7,3.4,5.9,4.8,9.3,3.1c0.1-0.1,0.3-0.1,0.4-0.2
			l46.5-25.6c10-5.8,14.5-18,10.6-28.9C415.1,262.2,411.3,266.7,406.4,269.6L406.4,269.6z"/>
		<path class="st0" d="M105.6,269.6l53.5,29.6c3.2,1.8,4.4,5.8,2.7,9.1c-1.7,3.4-5.9,4.8-9.3,3.1c-0.1-0.1-0.3-0.1-0.4-0.2
			l-46.5-25.6c-10-5.8-14.5-18-10.6-28.9C96.9,262.2,100.7,266.7,105.6,269.6L105.6,269.6z"/>
	</g>
</g>
</svg>
