<svg width="45" height="38" viewBox="0 0 45 38" fill="none" xmlns="http://www.w3.org/2000/svg">
<path d="M32.4216 14.5802C32.5627 14.8007 32.803 14.9198 33.0456 14.9198C33.1845 14.9198 33.3256 14.8801 33.449 14.7985C33.7974 14.578 33.8966 14.115 33.6739 13.7711C33.6519 13.7336 31.3589 10.0979 33.3035 7.61968C34.3773 6.2527 34.5647 4.52414 33.8459 2.63021C33.3322 1.27867 32.5274 0.308559 32.4944 0.266667C32.2298 -0.0486192 31.7602 -0.0905104 31.4449 0.174066C31.1362 0.438642 31.0921 0.90606 31.3567 1.22135C31.3898 1.26544 33.9407 4.39626 32.1328 6.70248C29.5311 10.0185 32.3048 14.3906 32.426 14.5736L32.4216 14.5802ZM37.4155 14.5802C37.5588 14.8007 37.7969 14.9198 38.0416 14.9198C38.1783 14.9198 38.3194 14.8801 38.4451 14.7985C38.7891 14.578 38.8861 14.115 38.6656 13.7711C38.6436 13.7336 36.3506 10.0979 38.2952 7.61968C39.3667 6.2527 39.5519 4.52414 38.8354 2.63021C38.3217 1.27867 37.5191 0.308559 37.4838 0.266667C37.2193 -0.0486192 36.7518 -0.0905104 36.4365 0.174066C36.1213 0.438642 36.0794 0.90606 36.3417 1.22135C36.3682 1.25221 38.9324 4.39626 37.1222 6.70248C34.5206 10.0185 37.2942 14.3906 37.4133 14.5736L37.4155 14.5802ZM6.16903 14.922C6.31235 15.1425 6.55047 15.2659 6.7952 15.2659C6.9341 15.2659 7.073 15.2262 7.19868 15.1469C7.54263 14.922 7.63964 14.4634 7.41916 14.1172C7.39711 14.082 5.10412 10.4462 7.04875 7.96583C8.12249 6.59886 8.3121 4.8747 7.59113 2.98298C7.07741 1.62703 6.27486 0.656917 6.23959 0.612821C5.97501 0.304149 5.50759 0.260053 5.19231 0.524629C4.87702 0.789205 4.83513 1.25221 5.0975 1.56971C5.12396 1.60278 7.68814 4.74462 5.878 7.05084C3.27633 10.3669 6.04997 14.7412 6.16903 14.922ZM11.1629 14.922C11.3062 15.1425 11.5443 15.2659 11.7891 15.2659C11.928 15.2659 12.0691 15.2262 12.1926 15.1469C12.5387 14.922 12.6379 14.4634 12.413 14.1172C12.391 14.082 10.098 10.4462 12.0448 7.96583C13.1186 6.59886 13.306 4.8747 12.5872 2.98298C12.0713 1.62703 11.2643 0.656917 11.2335 0.617231C10.9689 0.301944 10.5015 0.260053 10.1862 0.522424C9.8731 0.787001 9.83341 1.25001 10.0936 1.5675C10.12 1.60057 12.682 4.74241 10.8719 7.04864C8.27462 10.3647 11.0483 14.739 11.1673 14.9198L11.1629 14.922ZM42.5262 31.3478H40.9476C40.5772 22.0655 33.3079 14.5295 24.1404 13.7314V12.9818C25.0664 12.4239 25.6462 11.4252 25.6462 10.3139C25.6462 8.59861 24.2484 7.20077 22.5309 7.20077C22.5198 7.20077 22.4735 7.20077 22.4647 7.20077C20.745 7.20077 19.3471 8.59861 19.3471 10.3162C19.3471 11.423 19.9248 12.4217 20.8552 12.9796V13.7358C11.6854 14.5317 4.41842 22.0655 4.04802 31.3478H2.46938C1.10902 31.3478 0 32.459 0 33.8215V34.752C0 36.1145 1.10902 37.2213 2.46938 37.2213H42.5306C43.8888 37.2213 45 36.1145 45 34.752V33.8215C45 32.459 43.8888 31.3522 42.5262 31.3522V31.3478ZM20.8354 10.3139C20.8354 9.41439 21.5674 8.68239 22.4669 8.68239H22.5331C23.4304 8.68239 24.1602 9.41439 24.1602 10.3139C24.1602 10.982 23.7523 11.5751 23.124 11.822C22.8373 11.9323 22.6499 12.2101 22.6499 12.5165V13.663H22.3457V12.5165C22.3457 12.2079 22.1583 11.9323 21.8738 11.8198C21.2455 11.5729 20.8376 10.982 20.8376 10.3095L20.8354 10.3139ZM43.5096 34.752C43.5096 35.2921 43.0686 35.7353 42.5262 35.7353H2.46938C1.9292 35.7353 1.48824 35.2944 1.48824 34.752V33.8215C1.48824 33.2792 1.9292 32.8382 2.46938 32.8382H3.69304H3.71509H30.4373C30.8474 32.8382 31.1803 32.5075 31.1803 32.0952C31.1803 31.6829 30.8496 31.35 30.4351 31.35H5.53846C5.92871 22.3764 13.3346 15.1888 22.3964 15.1513H22.6014C31.6632 15.1866 39.0713 22.3742 39.4593 31.35H35.2482C34.8403 31.35 34.5073 31.6807 34.5073 32.093C34.5073 32.5031 34.8381 32.836 35.2504 32.836H42.5284C43.0708 32.836 43.5118 33.277 43.5118 33.8171V34.7476L43.5096 34.752Z" fill="#1C2A39"/>
</svg>
