<svg width="37" height="43" viewBox="0 0 37 43" fill="none" xmlns="http://www.w3.org/2000/svg">
<path d="M35.7408 21.7321C35.7408 21.3069 35.7266 16.2267 35.5783 11.206C35.4869 8.13286 35.3651 5.68417 35.2128 3.92366C35.1234 2.84722 35.0219 2.04195 34.9081 1.46264C34.8066 0.949073 34.6198 0 33.846 0C33.7932 0 33.7384 0.00616281 33.6835 0.0164342C33.2632 0.104768 32.8651 0.386203 31.9573 3.08962C31.409 4.72277 30.8038 6.86332 30.2555 9.11685C29.6056 11.7936 28.1333 18.396 28.4887 21.915C28.7039 24.0206 29.5914 24.4623 30.2961 24.4623C30.3103 24.4623 32.2396 24.4705 32.396 24.4725C32.3472 26.1673 32.0507 28.6324 31.7624 31.0257C31.3724 34.2714 30.9703 37.624 31.1064 39.5879C31.2567 41.7531 32.6864 42.5214 33.8684 42.5214C34.7112 42.5214 35.5743 42.1557 36.1734 41.5456C36.7095 40.9991 37.006 40.2925 36.9999 39.5529C36.9877 37.1084 35.8159 22.6792 35.7408 21.7362V21.7321ZM35.2026 40.5636C34.8614 40.9129 34.3497 41.1286 33.8704 41.1286C33.0459 41.1286 32.5503 40.5472 32.4772 39.4851C32.3493 37.6568 32.7453 34.37 33.1271 31.19C33.4784 28.2832 33.8095 25.5366 33.7709 23.77C33.7648 23.392 33.4602 23.0921 33.0865 23.0921C32.5666 23.0921 30.7145 23.0633 30.3002 23.0715C30.2189 23.0715 30.1377 22.9318 30.0849 22.8147C29.4756 21.4281 29.892 17.0053 31.1653 11.2697C32.0426 7.31526 33.0337 4.02637 33.6734 2.36652C33.8562 3.68125 34.0796 6.397 34.2319 11.9928C34.3639 16.9292 34.374 21.7095 34.374 21.7609V21.8164C34.3882 21.9684 35.623 37.133 35.6332 39.5509C35.6372 40.0234 35.4016 40.3623 35.2067 40.5616L35.2026 40.5636ZM26.0354 3.94215C26.0354 3.558 25.7308 3.2478 25.349 3.2478C24.9672 3.2478 24.6605 3.55594 24.6605 3.94215C24.6605 6.28401 24.7093 8.51495 24.7478 10.3104C24.758 10.7521 24.7681 11.1588 24.7742 11.5286L23.109 11.5532V4.2811C23.109 3.89695 22.8043 3.58676 22.4225 3.58676C22.0448 3.58676 21.7381 3.8949 21.7381 4.2811V11.5738L20.1744 11.5984V4.2811C20.1744 3.89695 19.8657 3.58676 19.488 3.58676C19.1082 3.58676 18.8015 3.8949 18.8015 4.2811V11.619L17.2784 11.6395V3.71001C17.2784 3.32586 16.9738 3.01567 16.594 3.01567C16.2163 3.01567 15.9096 3.32381 15.9096 3.70796V12.8782C15.9096 15.2324 17.6968 16.8183 20.5278 17.0525V22.9133C20.0322 22.9216 19.7621 22.9277 19.756 22.9298C19.425 22.938 19.1468 23.1866 19.1001 23.5193C18.6269 26.7117 17.6176 35.0849 17.6988 39.1626C17.7516 41.638 19.3539 42.5152 20.7105 42.5152C22.2885 42.5152 24.0411 41.3443 24.1264 39.4502C24.2279 37.0775 23.6065 28.5831 23.3405 24.9512C23.2917 24.2938 23.2552 23.8008 23.2389 23.5461C23.2146 23.1824 22.914 22.899 22.5545 22.899C22.323 22.899 22.1037 22.899 21.8965 22.899V17.0484C24.4392 16.7649 26.1613 14.7887 26.1613 13.0015C26.1613 12.3647 26.141 11.4443 26.1166 10.2775C26.076 8.4903 26.0293 6.26758 26.0293 3.94215H26.0354ZM21.9798 25.0539C22.2438 28.6591 22.8612 37.0981 22.7596 39.3886C22.7129 40.4301 21.663 41.1286 20.7146 41.1286C19.6992 41.1286 19.1001 40.4013 19.0757 39.1359C19.0026 35.5574 19.8474 28.0634 20.3754 24.3041C20.7349 24.2959 21.2589 24.2897 21.9229 24.2876C21.9392 24.5075 21.9575 24.7642 21.9778 25.0539H21.9798ZM21.2751 15.6967C19.3925 15.6967 17.384 14.9921 17.2886 13.0261L24.7966 12.9152V13.0015C24.7966 14.2484 23.2592 15.6967 21.2751 15.6967ZM6.4134 2.45075C2.87567 2.45075 0 6.00463 0 10.3802C0 12.4489 0.657993 14.3326 1.85213 15.6802C2.85739 16.8204 4.18353 17.5209 5.64168 17.7058V23.4002C5.14615 23.4064 4.87605 23.4146 4.86996 23.4146C4.53893 23.4228 4.26071 23.6714 4.214 24.0021C3.74081 27.1965 2.73148 35.5676 2.81272 39.6474C2.86552 42.1208 4.46785 43 5.82445 43C7.40242 43 9.15504 41.8291 9.24033 39.933C9.34187 37.5644 8.72247 29.0659 8.45643 25.438C8.40769 24.7766 8.37113 24.2876 8.35488 24.0309C8.33051 23.6652 8.02995 23.3817 7.67049 23.3817C7.43897 23.3817 7.21964 23.3817 7.0125 23.3817V17.7263C8.53563 17.5763 9.92676 16.8635 10.9726 15.6823C12.1708 14.3326 12.8268 12.4509 12.8268 10.3823C12.8268 6.00669 9.9491 2.4528 6.4134 2.4528V2.45075ZM7.0917 25.5408C7.35165 29.1439 7.97106 37.5849 7.86951 39.8734C7.8228 40.917 6.77286 41.6195 5.82445 41.6195C4.80903 41.6195 4.20994 40.8903 4.18557 39.6228C4.11042 36.0483 4.95322 28.5503 5.4853 24.7909C5.84476 24.7848 6.36669 24.7786 7.02874 24.7745C7.04905 24.9943 7.0653 25.2532 7.08561 25.5428L7.0917 25.5408ZM6.40934 16.3705C3.48493 16.3705 1.36676 13.8499 1.36676 10.3802C1.36676 6.77293 3.62708 3.83738 6.40934 3.83738C9.19159 3.83738 11.4519 6.77088 11.4519 10.3782C11.4519 13.8499 9.32969 16.3664 6.40934 16.3664V16.3705Z" fill="#1C2A39"/>
</svg>
