<svg width="26" height="40" viewBox="0 0 26 40" fill="none" xmlns="http://www.w3.org/2000/svg">
<path d="M22.4478 17.8013C24.4858 16.052 25.6869 13.7263 25.9283 11.0782C26.4876 4.92543 23.5945 0.487707 23.4698 0.302297C23.343 0.112858 23.1318 0 22.9065 0H3.09345C2.86812 0 2.65687 0.112858 2.53012 0.302297C2.40941 0.489722 -0.487699 4.92745 0.0716043 11.0802C0.31303 13.7283 1.51412 16.054 3.55216 17.8033C5.31859 19.3249 7.62823 20.3527 10.2517 20.7981V34.1657C7.86564 34.2825 5.69683 34.5486 4.08933 34.9315C1.89638 35.4434 0.878369 36.1205 0.878369 37.0476C0.878369 38.0754 2.1197 38.7948 4.79349 39.3249C6.98644 39.7561 9.88355 39.996 12.9678 40H13.0281C16.1063 39.996 19.0074 39.7582 21.2024 39.3229C23.8742 38.7948 25.1195 38.0734 25.1195 37.0496C25.1195 36.1185 24.0975 35.4434 21.9066 34.9295C20.3011 34.5506 18.1303 34.2846 15.7422 34.1636V20.796C18.3656 20.3527 20.6753 19.3249 22.4417 17.8013H22.4478ZM21.2044 36.1608C22.9346 36.5276 23.5221 36.8924 23.7052 37.0476C23.4537 37.2632 22.5946 37.6965 20.5063 38.0673C18.4461 38.4301 15.7824 38.6356 13.002 38.6376C10.2195 38.6376 7.55581 38.4321 5.49765 38.0673C3.40529 37.6965 2.54823 37.2612 2.29473 37.0496C2.47983 36.8924 3.0673 36.5256 4.79752 36.1628C6.26217 35.8525 8.17748 35.6308 10.2558 35.526V36.4672C10.2558 36.844 10.5575 37.1483 10.9338 37.1483C11.31 37.1483 11.6138 36.846 11.6138 36.4672V20.1975C11.6138 19.8227 11.312 19.5183 10.9358 19.5183C10.9257 19.5183 10.9156 19.5183 10.9076 19.5183C6.64241 18.9178 1.91449 16.3543 1.42359 10.9532C0.989023 6.16284 2.87214 2.41838 3.47973 1.35631H22.5202C23.1237 2.41838 25.0109 6.16284 24.5763 10.9532C24.0854 16.3543 19.3575 18.9178 15.0963 19.5183C15.0843 19.5183 15.0762 19.5183 15.0641 19.5183C14.6899 19.5183 14.3861 19.8206 14.3861 20.1975V36.5578C14.3861 36.9347 14.6919 37.239 15.0702 37.239C15.4424 37.239 15.7462 36.9327 15.7462 36.5578V35.524C17.8184 35.6247 19.7377 35.8464 21.2024 36.1588L21.2044 36.1608ZM21.6832 14.6332C22.991 12.628 23.0111 10.6308 23.0111 10.5482C23.0111 10.1753 22.7093 9.85087 22.3391 9.84684H20.8382C20.462 9.84079 20.1542 10.1451 20.1542 10.52C20.1482 10.8968 20.4479 11.2052 20.8222 11.2092L21.5867 11.2233C21.3191 12.9081 19.957 17.1483 13 17.2975C6.04287 17.1483 4.68284 12.9081 4.41526 11.2233L17.3517 11.2092H17.3617C17.7319 11.2092 18.0357 10.9069 18.0397 10.5341C18.0397 10.1592 17.7379 9.84885 17.3657 9.84885L3.66483 9.869C3.29062 9.869 2.99085 10.1753 2.99085 10.5482C2.99085 10.6328 3.00493 12.628 4.31265 14.6332C5.47954 16.4208 9.0446 18.5671 12.9678 18.5671C16.8909 18.5671 20.5123 16.4208 21.6792 14.6332H21.6832Z" fill="#1C2A39"/>
</svg>
