<?xml version="1.0" encoding="utf-8"?>
<!-- Generator: Adobe Illustrator 24.0.1, SVG Export Plug-In . SVG Version: 6.00 Build 0)  -->
<svg version="1.1" id="Capa_1" xmlns="http://www.w3.org/2000/svg" xmlns:xlink="http://www.w3.org/1999/xlink" x="0px" y="0px"
	 viewBox="0 0 124 124" style="enable-background:new 0 0 124 124;" xml:space="preserve">
<style type="text/css">
	.st0{fill:#A8A7A7;}
</style>
<g>
	<path class="st0" d="M49.8,29c3.1-1.3,4.4-5,3-8l-4.9-10.3c-1.4-2.9-4.8-4.2-7.8-2.9c-8.5,3.6-15.8,8.3-21.6,14
		C11.4,28.5,6.6,36.2,4,44.7C1.4,53.3,0,65,0,79.9v30.7c0,3.3,2.7,6,6,6h39.3c3.3,0,6-2.7,6-6V71.3c0-3.3-2.7-6-6-6H26.5
		c0.2-10.1,2.6-18.2,7-24.3C37.1,36.1,42.5,32.1,49.8,29z"/>
	<path class="st0" d="M120.4,29c3.1-1.3,4.4-5,3-8l-4.9-10.2c-1.4-2.9-4.8-4.2-7.8-2.9c-8.4,3.6-15.6,8.3-21.5,13.9
		c-7.1,6.8-12,14.5-14.6,23c-2.6,8.4-3.9,20.1-3.9,35.1v30.7c0,3.3,2.7,6,6,6H116c3.3,0,6-2.7,6-6V71.3c0-3.3-2.7-6-6-6H97.1
		c0.2-10.1,2.6-18.2,7-24.3C107.7,36.1,113.1,32.1,120.4,29z"/>
</g>
</svg>
