<?xml version="1.0" encoding="utf-8"?>
<!-- Generator: Adobe Illustrator 25.2.1, SVG Export Plug-In . SVG Version: 6.00 Build 0)  -->
<svg version="1.1" id="Layer_1" xmlns="http://www.w3.org/2000/svg" xmlns:xlink="http://www.w3.org/1999/xlink" x="0px" y="0px"
	 viewBox="0 0 714 401" style="enable-background:new 0 0 714 401;" xml:space="preserve">
<style type="text/css">
	.st0{fill:#FFFFFF;}
	.st1{clip-path:url(#SVGID_2_);fill:url(#SVGID_3_);}
	.st2{fill:url(#SVGID_4_);}
	.st3{fill:url(#SVGID_5_);}
	.st4{fill:url(#SVGID_6_);}
	.st5{fill:#01121C;}
	.st6{clip-path:url(#SVGID_8_);fill:url(#SVGID_9_);}
	.st7{fill:url(#SVGID_10_);}
	.st8{fill:url(#SVGID_11_);}
	.st9{fill:url(#SVGID_12_);}
	.st10{clip-path:url(#SVGID_14_);fill:url(#SVGID_15_);}
	.st11{fill:url(#SVGID_16_);}
	.st12{fill:url(#SVGID_17_);}
	.st13{fill:url(#SVGID_18_);}
	.st14{clip-path:url(#SVGID_20_);fill:url(#SVGID_21_);}
	.st15{fill:url(#SVGID_22_);}
	.st16{fill:url(#SVGID_23_);}
	.st17{fill:url(#SVGID_24_);}
	.st18{clip-path:url(#SVGID_26_);fill:url(#SVGID_27_);}
	.st19{fill:url(#SVGID_28_);}
	.st20{fill:url(#SVGID_29_);}
	.st21{fill:url(#SVGID_30_);}
	.st22{clip-path:url(#SVGID_32_);fill:url(#SVGID_33_);}
	.st23{fill:url(#SVGID_34_);}
	.st24{fill:url(#SVGID_35_);}
	.st25{fill:url(#SVGID_36_);}
</style>
<rect x="-1349" y="-2147" class="st0" width="1027" height="1028"/>
<g>
	<g>
		<defs>
			<path id="SVGID_1_" d="M-936.3-1757.8v69.3c0,38.1,31.2,69.3,69.3,69.3h15.7c-29.5-24.6-39-56.6-39.9-87.3
				c13.2,48.3,56.5,87.3,97.3,87.3h46.5v-69.3c0-38.1-31.2-69.3-69.3-69.3h-15.7c29.5,24.6,39,56.6,39.9,87.3
				c-13.2-48.3-56.5-87.3-97.3-87.3H-936.3z M-958-1779.4h141.2c50,0,90.9,40.9,90.9,90.9v90.9h-141.2c-50,0-90.9-40.9-90.9-90.9
				V-1779.4z"/>
		</defs>
		<clipPath id="SVGID_2_">
			<use xlink:href="#SVGID_1_"  style="overflow:visible;"/>
		</clipPath>
		<linearGradient id="SVGID_3_" gradientUnits="userSpaceOnUse" x1="-739.2556" y1="-1600.9" x2="-942.1844" y2="-1774.0309">
			<stop  offset="0" style="stop-color:#47BEA9"/>
			<stop  offset="1" style="stop-color:#91C73E"/>
		</linearGradient>
		<rect x="-958" y="-1779.4" class="st1" width="232.1" height="181.8"/>
	</g>
	<g>
		<g>
			<g>
				<linearGradient id="SVGID_4_" gradientUnits="userSpaceOnUse" x1="-577.3874" y1="-1527.7637" x2="-550.5442" y2="-1527.7637">
					<stop  offset="0" style="stop-color:#47BEA9"/>
					<stop  offset="1" style="stop-color:#91C73E"/>
				</linearGradient>
				<path class="st2" d="M-570.9-1562.5h12.7v18.7h7.6v11h-7.6v39.8h-12.7v-39.8h-6.5v-11h6.5V-1562.5z"/>
			</g>
			<g>
				<linearGradient id="SVGID_5_" gradientUnits="userSpaceOnUse" x1="-606.0623" y1="-1528.6915" x2="-589.1981" y2="-1528.6915">
					<stop  offset="0" style="stop-color:#47BEA9"/>
					<stop  offset="1" style="stop-color:#91C73E"/>
				</linearGradient>
				<path class="st3" d="M-597.7-1565.9c2.3,0,4.3,0.8,6,2.5c1.7,1.7,2.5,3.7,2.5,6.1c0,2.4-0.8,4.4-2.5,6s-3.6,2.5-5.9,2.5
					c-2.4,0-4.4-0.8-6-2.5c-1.7-1.7-2.5-3.8-2.5-6.2c0-2.3,0.8-4.3,2.5-6C-602-1565.1-600-1565.9-597.7-1565.9z M-604.3-1544.2h13.2
					v52.7h-13.2V-1544.2z"/>
			</g>
			<linearGradient id="SVGID_6_" gradientUnits="userSpaceOnUse" x1="-657.2173" y1="-1527.4418" x2="-615.697" y2="-1527.4418">
				<stop  offset="0" style="stop-color:#47BEA9"/>
				<stop  offset="1" style="stop-color:#91C73E"/>
			</linearGradient>
			<path class="st4" d="M-615.7-1561.8v10.9h-28.9v18.4h23.1v10.5h-23.1v28.9h-12.6v-68.6H-615.7z"/>
		</g>
		<g>
			<path d="M-1119.1-1561.9h12.2l28.6,45.7v-45.7h12.7v69.5h-12.3l-28.6-45.6v45.6h-12.7V-1561.9z"/>
		</g>
		<g>
			<path d="M-1049.3-1543.8h12.6v24.8c0,4.8,0.3,8.2,1,10c0.6,1.9,1.7,3.3,3.1,4.4c1.4,1,3.2,1.6,5.2,1.6c2.1,0,3.8-0.5,5.3-1.5
				s2.5-2.5,3.2-4.5c0.5-1.5,0.8-4.6,0.8-9.5v-25.2h12.4v21.8c0,9-0.7,15.1-2,18.4c-1.7,4-4.1,7.1-7.4,9.3
				c-3.2,2.2-7.4,3.2-12.4,3.2c-5.4,0-9.8-1.3-13.2-3.8c-3.4-2.5-5.7-6-7.1-10.5c-1-3.1-1.5-8.8-1.5-17V-1543.8z"/>
		</g>
		<g>
			<path d="M-989.5-1562.8h12.4v19h7.4v11.1h-7.4v40.3h-12.4v-40.3h-6.4v-11.1h6.4V-1562.8z"/>
		</g>
		<g>
			<path d="M-963.6-1543.8h10.6v6.5c1.2-2.6,2.7-4.5,4.6-5.8c1.9-1.3,4-2,6.3-2c1.6,0,3.3,0.4,5.1,1.3l-3.9,11.1
				c-1.5-0.8-2.7-1.1-3.6-1.1c-1.9,0-3.5,1.2-4.8,3.7c-1.3,2.5-2,7.3-2,14.5l0,2.5v20.8h-12.3V-1543.8z"/>
		</g>
		<g>
			<path d="M-923.7-1565c2.2,0,4,0.8,5.6,2.5c1.6,1.6,2.3,3.6,2.3,6c0,2.3-0.8,4.3-2.3,5.9c-1.5,1.6-3.4,2.4-5.5,2.4
				c-2.2,0-4.1-0.8-5.7-2.5c-1.6-1.7-2.3-3.7-2.3-6c0-2.3,0.8-4.2,2.3-5.8C-927.8-1564.2-925.9-1565-923.7-1565z M-929.9-1543.8
				h12.4v51.4h-12.4V-1543.8z"/>
		</g>
		<g>
			<path d="M-867.4-1563.7h12.4v71.3h-12.4v-5.4c-2.4,2.4-4.9,4.1-7.3,5.2c-2.4,1.1-5.1,1.6-7.9,1.6c-6.4,0-11.9-2.6-16.6-7.7
				c-4.7-5.2-7-11.6-7-19.2c0-7.9,2.3-14.4,6.8-19.5c4.5-5.1,10-7.6,16.5-7.6c3,0,5.8,0.6,8.4,1.7c2.6,1.2,5,2.9,7.2,5.2V-1563.7z
				 M-880.4-1533.2c-3.8,0-7,1.4-9.6,4.2c-2.5,2.8-3.8,6.4-3.8,10.8c0,4.4,1.3,8.1,3.9,11c2.6,2.9,5.8,4.3,9.5,4.3
				c3.9,0,7.1-1.4,9.7-4.2c2.6-2.8,3.9-6.5,3.9-11.1c0-4.5-1.3-8.1-3.9-10.9C-873.2-1531.9-876.5-1533.2-880.4-1533.2z"/>
		</g>
		<g>
			<path d="M-816.8-1545.2c4.7,0,9.1,1.2,13.2,3.6c4.1,2.4,7.3,5.7,9.6,9.9c2.3,4.2,3.5,8.6,3.5,13.5c0,4.9-1.2,9.4-3.5,13.6
				c-2.3,4.2-5.5,7.5-9.5,9.9c-4,2.4-8.4,3.6-13.2,3.6c-7.1,0-13.2-2.6-18.2-7.9c-5-5.2-7.5-11.6-7.5-19.1c0-8,2.8-14.7,8.5-20.1
				C-829-1542.8-823.3-1545.2-816.8-1545.2z M-816.6-1533c-3.9,0-7.1,1.4-9.6,4.2c-2.6,2.8-3.9,6.4-3.9,10.7c0,4.5,1.3,8.1,3.8,10.9
				c2.5,2.8,5.8,4.2,9.6,4.2c3.9,0,7.1-1.4,9.7-4.2c2.6-2.8,3.9-6.4,3.9-10.8c0-4.4-1.3-8-3.8-10.8
				C-809.4-1531.6-812.6-1533-816.6-1533z"/>
		</g>
		<g>
			<path d="M-729.6-1533.4l-10.3,5.9c-1.9-2.1-3.9-3.6-5.8-4.4c-1.9-0.8-4.1-1.2-6.7-1.2c-4.6,0-8.4,1.4-11.3,4.3
				c-2.9,2.9-4.3,6.6-4.3,11.1c0,4.4,1.4,7.9,4.1,10.7c2.8,2.8,6.4,4.2,10.9,4.2c5.6,0,9.9-2,13-5.9l9.8,7
				c-5.3,7.2-12.8,10.8-22.5,10.8c-8.7,0-15.5-2.7-20.5-8c-4.9-5.4-7.4-11.6-7.4-18.8c0-5,1.2-9.6,3.6-13.8c2.4-4.2,5.7-7.5,10-9.9
				c4.3-2.4,9.1-3.6,14.4-3.6c4.9,0,9.3,1,13.2,3C-735.3-1540.1-732.1-1537.2-729.6-1533.4z"/>
		</g>
		<g>
			<path d="M-716-1563.7h12.4v41l18.3-21.2h15.6l-21.3,24.6l23.9,26.8h-15.4l-21-23.7v23.7H-716V-1563.7z"/>
		</g>
	</g>
</g>
<rect x="-154" y="-2147" class="st5" width="1027" height="1028"/>
<g>
	<g>
		<defs>
			<path id="SVGID_7_" d="M258.7-1757.8v69.3c0,38.1,31.2,69.3,69.3,69.3h15.7c-29.5-24.6-39-56.6-39.9-87.3
				c13.2,48.3,56.5,87.3,97.3,87.3h46.5v-69.3c0-38.1-31.2-69.3-69.3-69.3h-15.7c29.5,24.6,39,56.6,39.9,87.3
				c-13.2-48.3-56.5-87.3-97.3-87.3H258.7z M237-1779.4h141.2c50,0,90.9,40.9,90.9,90.9v90.9H327.9c-50,0-90.9-40.9-90.9-90.9
				V-1779.4z"/>
		</defs>
		<clipPath id="SVGID_8_">
			<use xlink:href="#SVGID_7_"  style="overflow:visible;"/>
		</clipPath>
		<linearGradient id="SVGID_9_" gradientUnits="userSpaceOnUse" x1="455.7444" y1="-1600.9" x2="252.8156" y2="-1774.0309">
			<stop  offset="0" style="stop-color:#47BEA9"/>
			<stop  offset="1" style="stop-color:#91C73E"/>
		</linearGradient>
		<rect x="237" y="-1779.4" class="st6" width="232.1" height="181.8"/>
	</g>
	<g>
		<g>
			<g>
				<linearGradient id="SVGID_10_" gradientUnits="userSpaceOnUse" x1="617.6126" y1="-1527.7637" x2="644.4558" y2="-1527.7637">
					<stop  offset="0" style="stop-color:#47BEA9"/>
					<stop  offset="1" style="stop-color:#91C73E"/>
				</linearGradient>
				<path class="st7" d="M624.1-1562.5h12.7v18.7h7.6v11h-7.6v39.8h-12.7v-39.8h-6.5v-11h6.5V-1562.5z"/>
			</g>
			<g>
				<linearGradient id="SVGID_11_" gradientUnits="userSpaceOnUse" x1="588.9377" y1="-1528.6915" x2="605.8019" y2="-1528.6915">
					<stop  offset="0" style="stop-color:#47BEA9"/>
					<stop  offset="1" style="stop-color:#91C73E"/>
				</linearGradient>
				<path class="st8" d="M597.3-1565.9c2.3,0,4.3,0.8,6,2.5c1.7,1.7,2.5,3.7,2.5,6.1c0,2.4-0.8,4.4-2.5,6s-3.6,2.5-5.9,2.5
					c-2.4,0-4.4-0.8-6-2.5c-1.7-1.7-2.5-3.8-2.5-6.2c0-2.3,0.8-4.3,2.5-6C593-1565.1,595-1565.9,597.3-1565.9z M590.7-1544.2H604
					v52.7h-13.2V-1544.2z"/>
			</g>
			<linearGradient id="SVGID_12_" gradientUnits="userSpaceOnUse" x1="537.7827" y1="-1527.4418" x2="579.303" y2="-1527.4418">
				<stop  offset="0" style="stop-color:#47BEA9"/>
				<stop  offset="1" style="stop-color:#91C73E"/>
			</linearGradient>
			<path class="st9" d="M579.3-1561.8v10.9h-28.9v18.4h23.1v10.5h-23.1v28.9h-12.6v-68.6H579.3z"/>
		</g>
		<g>
			<path class="st0" d="M75.9-1561.9h12.2l28.6,45.7v-45.7h12.7v69.5h-12.3L88.7-1538v45.6H75.9V-1561.9z"/>
		</g>
		<g>
			<path class="st0" d="M145.7-1543.8h12.6v24.8c0,4.8,0.3,8.2,1,10c0.6,1.9,1.7,3.3,3.1,4.4c1.4,1,3.2,1.6,5.2,1.6
				c2.1,0,3.8-0.5,5.3-1.5s2.5-2.5,3.2-4.5c0.5-1.5,0.8-4.6,0.8-9.5v-25.2h12.4v21.8c0,9-0.7,15.1-2,18.4c-1.7,4-4.1,7.1-7.4,9.3
				c-3.2,2.2-7.4,3.2-12.4,3.2c-5.4,0-9.8-1.3-13.2-3.8c-3.4-2.5-5.7-6-7.1-10.5c-1-3.1-1.5-8.8-1.5-17V-1543.8z"/>
		</g>
		<g>
			<path class="st0" d="M205.5-1562.8H218v19h7.4v11.1H218v40.3h-12.4v-40.3h-6.4v-11.1h6.4V-1562.8z"/>
		</g>
		<g>
			<path class="st0" d="M231.4-1543.8H242v6.5c1.2-2.6,2.7-4.5,4.6-5.8c1.9-1.3,4-2,6.3-2c1.6,0,3.3,0.4,5.1,1.3l-3.9,11.1
				c-1.5-0.8-2.7-1.1-3.6-1.1c-1.9,0-3.5,1.2-4.8,3.7c-1.3,2.5-2,7.3-2,14.5l0,2.5v20.8h-12.3V-1543.8z"/>
		</g>
		<g>
			<path class="st0" d="M271.3-1565c2.2,0,4,0.8,5.6,2.5c1.6,1.6,2.3,3.6,2.3,6c0,2.3-0.8,4.3-2.3,5.9c-1.5,1.6-3.4,2.4-5.5,2.4
				c-2.2,0-4.1-0.8-5.7-2.5c-1.6-1.7-2.3-3.7-2.3-6c0-2.3,0.8-4.2,2.3-5.8C267.2-1564.2,269.1-1565,271.3-1565z M265.1-1543.8h12.4
				v51.4h-12.4V-1543.8z"/>
		</g>
		<g>
			<path class="st0" d="M327.6-1563.7h12.4v71.3h-12.4v-5.4c-2.4,2.4-4.9,4.1-7.3,5.2c-2.4,1.1-5.1,1.6-7.9,1.6
				c-6.4,0-11.9-2.6-16.6-7.7c-4.7-5.2-7-11.6-7-19.2c0-7.9,2.3-14.4,6.8-19.5c4.5-5.1,10-7.6,16.5-7.6c3,0,5.8,0.6,8.4,1.7
				c2.6,1.2,5,2.9,7.2,5.2V-1563.7z M314.6-1533.2c-3.8,0-7,1.4-9.6,4.2c-2.5,2.8-3.8,6.4-3.8,10.8c0,4.4,1.3,8.1,3.9,11
				c2.6,2.9,5.8,4.3,9.5,4.3c3.9,0,7.1-1.4,9.7-4.2c2.6-2.8,3.9-6.5,3.9-11.1c0-4.5-1.3-8.1-3.9-10.9
				C321.8-1531.9,318.5-1533.2,314.6-1533.2z"/>
		</g>
		<g>
			<path class="st0" d="M378.2-1545.2c4.7,0,9.1,1.2,13.2,3.6c4.1,2.4,7.3,5.7,9.6,9.9c2.3,4.2,3.5,8.6,3.5,13.5
				c0,4.9-1.2,9.4-3.5,13.6c-2.3,4.2-5.5,7.5-9.5,9.9c-4,2.4-8.4,3.6-13.2,3.6c-7.1,0-13.2-2.6-18.2-7.9c-5-5.2-7.5-11.6-7.5-19.1
				c0-8,2.8-14.7,8.5-20.1C366-1542.8,371.7-1545.2,378.2-1545.2z M378.4-1533c-3.9,0-7.1,1.4-9.6,4.2c-2.6,2.8-3.9,6.4-3.9,10.7
				c0,4.5,1.3,8.1,3.8,10.9c2.5,2.8,5.8,4.2,9.6,4.2c3.9,0,7.1-1.4,9.7-4.2c2.6-2.8,3.9-6.4,3.9-10.8c0-4.4-1.3-8-3.8-10.8
				C385.6-1531.6,382.4-1533,378.4-1533z"/>
		</g>
		<g>
			<path class="st0" d="M465.4-1533.4l-10.3,5.9c-1.9-2.1-3.9-3.6-5.8-4.4c-1.9-0.8-4.1-1.2-6.7-1.2c-4.6,0-8.4,1.4-11.3,4.3
				c-2.9,2.9-4.3,6.6-4.3,11.1c0,4.4,1.4,7.9,4.1,10.7c2.8,2.8,6.4,4.2,10.9,4.2c5.6,0,9.9-2,13-5.9l9.8,7
				c-5.3,7.2-12.8,10.8-22.5,10.8c-8.7,0-15.5-2.7-20.5-8s-7.4-11.6-7.4-18.8c0-5,1.2-9.6,3.6-13.8c2.4-4.2,5.7-7.5,10-9.9
				c4.3-2.4,9.1-3.6,14.4-3.6c4.9,0,9.3,1,13.2,3C459.7-1540.1,462.9-1537.2,465.4-1533.4z"/>
		</g>
		<g>
			<path class="st0" d="M479-1563.7h12.4v41l18.3-21.2h15.6l-21.3,24.6l23.9,26.8h-15.4l-21-23.7v23.7H479V-1563.7z"/>
		</g>
	</g>
</g>
<g>
	<g>
		<defs>
			<path id="SVGID_13_" d="M-936.3-640.8v69.3c0,38.1,31.2,69.3,69.3,69.3h15.7c-29.5-24.6-39-56.6-39.9-87.3
				c13.2,48.3,56.5,87.3,97.3,87.3h46.5v-69.3c0-38.1-31.2-69.3-69.3-69.3h-15.7c29.5,24.6,39,56.6,39.9,87.3
				c-13.2-48.3-56.5-87.3-97.3-87.3H-936.3z M-958-662.4h141.2c50,0,90.9,40.9,90.9,90.9v90.9h-141.2c-50,0-90.9-40.9-90.9-90.9
				V-662.4z"/>
		</defs>
		<clipPath id="SVGID_14_">
			<use xlink:href="#SVGID_13_"  style="overflow:visible;"/>
		</clipPath>
		<linearGradient id="SVGID_15_" gradientUnits="userSpaceOnUse" x1="-739.2556" y1="-483.9" x2="-942.1844" y2="-657.0309">
			<stop  offset="0" style="stop-color:#47BEA9"/>
			<stop  offset="1" style="stop-color:#91C73E"/>
		</linearGradient>
		<rect x="-958" y="-662.4" class="st10" width="232.1" height="181.8"/>
	</g>
	<g>
		<g>
			<g>
				<linearGradient id="SVGID_16_" gradientUnits="userSpaceOnUse" x1="-577.3874" y1="-410.7637" x2="-550.5442" y2="-410.7637">
					<stop  offset="0" style="stop-color:#47BEA9"/>
					<stop  offset="1" style="stop-color:#91C73E"/>
				</linearGradient>
				<path class="st11" d="M-570.9-445.5h12.7v18.7h7.6v11h-7.6v39.8h-12.7v-39.8h-6.5v-11h6.5V-445.5z"/>
			</g>
			<g>
				<linearGradient id="SVGID_17_" gradientUnits="userSpaceOnUse" x1="-606.0623" y1="-411.6915" x2="-589.1981" y2="-411.6915">
					<stop  offset="0" style="stop-color:#47BEA9"/>
					<stop  offset="1" style="stop-color:#91C73E"/>
				</linearGradient>
				<path class="st12" d="M-597.7-448.9c2.3,0,4.3,0.8,6,2.5c1.7,1.7,2.5,3.7,2.5,6.1c0,2.4-0.8,4.4-2.5,6c-1.6,1.7-3.6,2.5-5.9,2.5
					c-2.4,0-4.4-0.8-6-2.5c-1.7-1.7-2.5-3.8-2.5-6.2c0-2.3,0.8-4.3,2.5-6C-602-448.1-600-448.9-597.7-448.9z M-604.3-427.2h13.2
					v52.7h-13.2V-427.2z"/>
			</g>
			<linearGradient id="SVGID_18_" gradientUnits="userSpaceOnUse" x1="-657.2173" y1="-410.4417" x2="-615.697" y2="-410.4417">
				<stop  offset="0" style="stop-color:#47BEA9"/>
				<stop  offset="1" style="stop-color:#91C73E"/>
			</linearGradient>
			<path class="st13" d="M-615.7-444.8v10.9h-28.9v18.4h23.1v10.5h-23.1v28.9h-12.6v-68.6H-615.7z"/>
		</g>
		<g>
			<path d="M-1119.1-444.9h12.2l28.6,45.7v-45.7h12.7v69.5h-12.3l-28.6-45.6v45.6h-12.7V-444.9z"/>
		</g>
		<g>
			<path d="M-1049.3-426.8h12.6v24.8c0,4.8,0.3,8.2,1,10c0.6,1.9,1.7,3.3,3.1,4.4c1.4,1,3.2,1.6,5.2,1.6c2.1,0,3.8-0.5,5.3-1.5
				s2.5-2.5,3.2-4.5c0.5-1.5,0.8-4.6,0.8-9.5v-25.2h12.4v21.8c0,9-0.7,15.1-2,18.4c-1.7,4-4.1,7.1-7.4,9.3
				c-3.2,2.2-7.4,3.2-12.4,3.2c-5.4,0-9.8-1.3-13.2-3.8c-3.4-2.5-5.7-6-7.1-10.5c-1-3.1-1.5-8.8-1.5-17V-426.8z"/>
		</g>
		<g>
			<path d="M-989.5-445.8h12.4v19h7.4v11.1h-7.4v40.3h-12.4v-40.3h-6.4v-11.1h6.4V-445.8z"/>
		</g>
		<g>
			<path d="M-963.6-426.8h10.6v6.5c1.2-2.6,2.7-4.5,4.6-5.8c1.9-1.3,4-2,6.3-2c1.6,0,3.3,0.4,5.1,1.3l-3.9,11.1
				c-1.5-0.8-2.7-1.1-3.6-1.1c-1.9,0-3.5,1.2-4.8,3.7c-1.3,2.5-2,7.3-2,14.5l0,2.5v20.8h-12.3V-426.8z"/>
		</g>
		<g>
			<path d="M-923.7-448c2.2,0,4,0.8,5.6,2.5c1.6,1.6,2.3,3.6,2.3,6c0,2.3-0.8,4.3-2.3,5.9c-1.5,1.6-3.4,2.4-5.5,2.4
				c-2.2,0-4.1-0.8-5.7-2.5c-1.6-1.7-2.3-3.7-2.3-6c0-2.3,0.8-4.2,2.3-5.8C-927.8-447.2-925.9-448-923.7-448z M-929.9-426.8h12.4
				v51.4h-12.4V-426.8z"/>
		</g>
		<g>
			<path d="M-867.4-446.7h12.4v71.3h-12.4v-5.4c-2.4,2.4-4.9,4.1-7.3,5.2c-2.4,1.1-5.1,1.6-7.9,1.6c-6.4,0-11.9-2.6-16.6-7.7
				c-4.7-5.2-7-11.6-7-19.2c0-7.9,2.3-14.4,6.8-19.5c4.5-5.1,10-7.6,16.5-7.6c3,0,5.8,0.6,8.4,1.7c2.6,1.2,5,2.9,7.2,5.2V-446.7z
				 M-880.4-416.2c-3.8,0-7,1.4-9.6,4.2c-2.5,2.8-3.8,6.4-3.8,10.8c0,4.4,1.3,8.1,3.9,11c2.6,2.9,5.8,4.3,9.5,4.3
				c3.9,0,7.1-1.4,9.7-4.2c2.6-2.8,3.9-6.5,3.9-11.1c0-4.5-1.3-8.1-3.9-10.9C-873.2-414.9-876.5-416.2-880.4-416.2z"/>
		</g>
		<g>
			<path d="M-816.8-428.2c4.7,0,9.1,1.2,13.2,3.6c4.1,2.4,7.3,5.7,9.6,9.9c2.3,4.2,3.5,8.6,3.5,13.5c0,4.9-1.2,9.4-3.5,13.6
				c-2.3,4.2-5.5,7.5-9.5,9.9c-4,2.4-8.4,3.6-13.2,3.6c-7.1,0-13.2-2.6-18.2-7.9c-5-5.2-7.5-11.6-7.5-19.1c0-8,2.8-14.7,8.5-20.1
				C-829-425.8-823.3-428.2-816.8-428.2z M-816.6-416c-3.9,0-7.1,1.4-9.6,4.2c-2.6,2.8-3.9,6.4-3.9,10.7c0,4.5,1.3,8.1,3.8,10.9
				c2.5,2.8,5.8,4.2,9.6,4.2c3.9,0,7.1-1.4,9.7-4.2c2.6-2.8,3.9-6.4,3.9-10.8s-1.3-8-3.8-10.8C-809.4-414.6-812.6-416-816.6-416z"/>
		</g>
		<g>
			<path d="M-729.6-416.4l-10.3,5.9c-1.9-2.1-3.9-3.6-5.8-4.4c-1.9-0.8-4.1-1.2-6.7-1.2c-4.6,0-8.4,1.4-11.3,4.3
				c-2.9,2.9-4.3,6.6-4.3,11.1c0,4.4,1.4,7.9,4.1,10.7c2.8,2.8,6.4,4.2,10.9,4.2c5.6,0,9.9-2,13-5.9l9.8,7
				c-5.3,7.2-12.8,10.8-22.5,10.8c-8.7,0-15.5-2.7-20.5-8c-4.9-5.4-7.4-11.6-7.4-18.8c0-5,1.2-9.6,3.6-13.8c2.4-4.2,5.7-7.5,10-9.9
				c4.3-2.4,9.1-3.6,14.4-3.6c4.9,0,9.3,1,13.2,3C-735.3-423.1-732.1-420.2-729.6-416.4z"/>
		</g>
		<g>
			<path d="M-716-446.7h12.4v41l18.3-21.2h15.6l-21.3,24.6l23.9,26.8h-15.4l-21-23.7v23.7H-716V-446.7z"/>
		</g>
	</g>
</g>
<g>
	<g>
		<defs>
			<path id="SVGID_19_" d="M-936.3-39.8v69.3c0,38.1,31.2,69.3,69.3,69.3h15.7c-29.5-24.6-39-56.6-39.9-87.3
				c13.2,48.3,56.5,87.3,97.3,87.3h46.5V29.5c0-38.1-31.2-69.3-69.3-69.3h-15.7c29.5,24.6,39,56.6,39.9,87.3
				c-13.2-48.3-56.5-87.3-97.3-87.3H-936.3z M-958-61.4h141.2c50,0,90.9,40.9,90.9,90.9v90.9h-141.2c-50,0-90.9-40.9-90.9-90.9
				V-61.4z"/>
		</defs>
		<clipPath id="SVGID_20_">
			<use xlink:href="#SVGID_19_"  style="overflow:visible;"/>
		</clipPath>
		<linearGradient id="SVGID_21_" gradientUnits="userSpaceOnUse" x1="-739.2556" y1="117.1" x2="-942.1844" y2="-56.0309">
			<stop  offset="0" style="stop-color:#47BEA9"/>
			<stop  offset="1" style="stop-color:#91C73E"/>
		</linearGradient>
		<rect x="-958" y="-61.4" class="st14" width="232.1" height="181.8"/>
	</g>
	<g>
		<g>
			<g>
				<linearGradient id="SVGID_22_" gradientUnits="userSpaceOnUse" x1="-577.3874" y1="190.2363" x2="-550.5442" y2="190.2363">
					<stop  offset="0" style="stop-color:#47BEA9"/>
					<stop  offset="1" style="stop-color:#91C73E"/>
				</linearGradient>
				<path class="st15" d="M-570.9,155.5h12.7v18.7h7.6v11h-7.6V225h-12.7v-39.8h-6.5v-11h6.5V155.5z"/>
			</g>
			<g>
				<linearGradient id="SVGID_23_" gradientUnits="userSpaceOnUse" x1="-606.0623" y1="189.3085" x2="-589.1981" y2="189.3085">
					<stop  offset="0" style="stop-color:#47BEA9"/>
					<stop  offset="1" style="stop-color:#91C73E"/>
				</linearGradient>
				<path class="st16" d="M-597.7,152.1c2.3,0,4.3,0.8,6,2.5c1.7,1.7,2.5,3.7,2.5,6.1c0,2.4-0.8,4.4-2.5,6s-3.6,2.5-5.9,2.5
					c-2.4,0-4.4-0.8-6-2.5c-1.7-1.7-2.5-3.8-2.5-6.2c0-2.3,0.8-4.3,2.5-6C-602,152.9-600,152.1-597.7,152.1z M-604.3,173.8h13.2
					v52.7h-13.2V173.8z"/>
			</g>
			<linearGradient id="SVGID_24_" gradientUnits="userSpaceOnUse" x1="-657.2173" y1="190.5583" x2="-615.697" y2="190.5583">
				<stop  offset="0" style="stop-color:#47BEA9"/>
				<stop  offset="1" style="stop-color:#91C73E"/>
			</linearGradient>
			<path class="st17" d="M-615.7,156.2v10.9h-28.9v18.4h23.1V196h-23.1v28.9h-12.6v-68.6H-615.7z"/>
		</g>
		<g>
			<path d="M-1119.1,156.1h12.2l28.6,45.7v-45.7h12.7v69.5h-12.3l-28.6-45.6v45.6h-12.7V156.1z"/>
		</g>
		<g>
			<path d="M-1049.3,174.2h12.6v24.8c0,4.8,0.3,8.2,1,10c0.6,1.9,1.7,3.3,3.1,4.4c1.4,1,3.2,1.6,5.2,1.6c2.1,0,3.8-0.5,5.3-1.5
				s2.5-2.5,3.2-4.5c0.5-1.5,0.8-4.6,0.8-9.5v-25.2h12.4V196c0,9-0.7,15.1-2,18.4c-1.7,4-4.1,7.1-7.4,9.3c-3.2,2.2-7.4,3.2-12.4,3.2
				c-5.4,0-9.8-1.3-13.2-3.8c-3.4-2.5-5.7-6-7.1-10.5c-1-3.1-1.5-8.8-1.5-17V174.2z"/>
		</g>
		<g>
			<path d="M-989.5,155.2h12.4v19h7.4v11.1h-7.4v40.3h-12.4v-40.3h-6.4v-11.1h6.4V155.2z"/>
		</g>
		<g>
			<path d="M-963.6,174.2h10.6v6.5c1.2-2.6,2.7-4.5,4.6-5.8c1.9-1.3,4-2,6.3-2c1.6,0,3.3,0.4,5.1,1.3l-3.9,11.1
				c-1.5-0.8-2.7-1.1-3.6-1.1c-1.9,0-3.5,1.2-4.8,3.7c-1.3,2.5-2,7.3-2,14.5l0,2.5v20.8h-12.3V174.2z"/>
		</g>
		<g>
			<path d="M-923.7,153c2.2,0,4,0.8,5.6,2.5c1.6,1.6,2.3,3.6,2.3,6c0,2.3-0.8,4.3-2.3,5.9c-1.5,1.6-3.4,2.4-5.5,2.4
				c-2.2,0-4.1-0.8-5.7-2.5c-1.6-1.7-2.3-3.7-2.3-6c0-2.3,0.8-4.2,2.3-5.8C-927.8,153.8-925.9,153-923.7,153z M-929.9,174.2h12.4
				v51.4h-12.4V174.2z"/>
		</g>
		<g>
			<path d="M-867.4,154.3h12.4v71.3h-12.4v-5.4c-2.4,2.4-4.9,4.1-7.3,5.2c-2.4,1.1-5.1,1.6-7.9,1.6c-6.4,0-11.9-2.6-16.6-7.7
				c-4.7-5.2-7-11.6-7-19.2c0-7.9,2.3-14.4,6.8-19.5c4.5-5.1,10-7.6,16.5-7.6c3,0,5.8,0.6,8.4,1.7c2.6,1.2,5,2.9,7.2,5.2V154.3z
				 M-880.4,184.8c-3.8,0-7,1.4-9.6,4.2c-2.5,2.8-3.8,6.4-3.8,10.8c0,4.4,1.3,8.1,3.9,11c2.6,2.9,5.8,4.3,9.5,4.3
				c3.9,0,7.1-1.4,9.7-4.2c2.6-2.8,3.9-6.5,3.9-11.1c0-4.5-1.3-8.1-3.9-10.9C-873.2,186.1-876.5,184.8-880.4,184.8z"/>
		</g>
		<g>
			<path d="M-816.8,172.8c4.7,0,9.1,1.2,13.2,3.6c4.1,2.4,7.3,5.7,9.6,9.9c2.3,4.2,3.5,8.6,3.5,13.5c0,4.9-1.2,9.4-3.5,13.6
				c-2.3,4.2-5.5,7.5-9.5,9.9c-4,2.4-8.4,3.6-13.2,3.6c-7.1,0-13.2-2.6-18.2-7.9c-5-5.2-7.5-11.6-7.5-19.1c0-8,2.8-14.7,8.5-20.1
				C-829,175.2-823.3,172.8-816.8,172.8z M-816.6,185c-3.9,0-7.1,1.4-9.6,4.2c-2.6,2.8-3.9,6.4-3.9,10.7c0,4.5,1.3,8.1,3.8,10.9
				c2.5,2.8,5.8,4.2,9.6,4.2c3.9,0,7.1-1.4,9.7-4.2c2.6-2.8,3.9-6.4,3.9-10.8s-1.3-8-3.8-10.8C-809.4,186.4-812.6,185-816.6,185z"/>
		</g>
		<g>
			<path d="M-729.6,184.6l-10.3,5.9c-1.9-2.1-3.9-3.6-5.8-4.4c-1.9-0.8-4.1-1.2-6.7-1.2c-4.6,0-8.4,1.4-11.3,4.3
				c-2.9,2.9-4.3,6.6-4.3,11.1c0,4.4,1.4,7.9,4.1,10.7c2.8,2.8,6.4,4.2,10.9,4.2c5.6,0,9.9-2,13-5.9l9.8,7
				c-5.3,7.2-12.8,10.8-22.5,10.8c-8.7,0-15.5-2.7-20.5-8c-4.9-5.4-7.4-11.6-7.4-18.8c0-5,1.2-9.6,3.6-13.8c2.4-4.2,5.7-7.5,10-9.9
				c4.3-2.4,9.1-3.6,14.4-3.6c4.9,0,9.3,1,13.2,3C-735.3,177.9-732.1,180.8-729.6,184.6z"/>
		</g>
		<g>
			<path d="M-716,154.3h12.4v41l18.3-21.2h15.6l-21.3,24.6l23.9,26.8h-15.4l-21-23.7v23.7H-716V154.3z"/>
		</g>
	</g>
</g>
<g>
	<g>
		<defs>
			<path id="SVGID_25_" d="M258.7-640.8v69.3c0,38.1,31.2,69.3,69.3,69.3h15.7c-29.5-24.6-39-56.6-39.9-87.3
				c13.2,48.3,56.5,87.3,97.3,87.3h46.5v-69.3c0-38.1-31.2-69.3-69.3-69.3h-15.7c29.5,24.6,39,56.6,39.9,87.3
				c-13.2-48.3-56.5-87.3-97.3-87.3H258.7z M237-662.4h141.2c50,0,90.9,40.9,90.9,90.9v90.9H327.9c-50,0-90.9-40.9-90.9-90.9V-662.4
				z"/>
		</defs>
		<clipPath id="SVGID_26_">
			<use xlink:href="#SVGID_25_"  style="overflow:visible;"/>
		</clipPath>
		<linearGradient id="SVGID_27_" gradientUnits="userSpaceOnUse" x1="455.7444" y1="-483.9" x2="252.8156" y2="-657.0309">
			<stop  offset="0" style="stop-color:#47BEA9"/>
			<stop  offset="1" style="stop-color:#91C73E"/>
		</linearGradient>
		<rect x="237" y="-662.4" class="st18" width="232.1" height="181.8"/>
	</g>
	<g>
		<g>
			<g>
				<linearGradient id="SVGID_28_" gradientUnits="userSpaceOnUse" x1="617.6126" y1="-410.7637" x2="644.4558" y2="-410.7637">
					<stop  offset="0" style="stop-color:#47BEA9"/>
					<stop  offset="1" style="stop-color:#91C73E"/>
				</linearGradient>
				<path class="st19" d="M624.1-445.5h12.7v18.7h7.6v11h-7.6v39.8h-12.7v-39.8h-6.5v-11h6.5V-445.5z"/>
			</g>
			<g>
				<linearGradient id="SVGID_29_" gradientUnits="userSpaceOnUse" x1="588.9377" y1="-411.6915" x2="605.8019" y2="-411.6915">
					<stop  offset="0" style="stop-color:#47BEA9"/>
					<stop  offset="1" style="stop-color:#91C73E"/>
				</linearGradient>
				<path class="st20" d="M597.3-448.9c2.3,0,4.3,0.8,6,2.5c1.7,1.7,2.5,3.7,2.5,6.1c0,2.4-0.8,4.4-2.5,6c-1.6,1.7-3.6,2.5-5.9,2.5
					c-2.4,0-4.4-0.8-6-2.5c-1.7-1.7-2.5-3.8-2.5-6.2c0-2.3,0.8-4.3,2.5-6C593-448.1,595-448.9,597.3-448.9z M590.7-427.2H604v52.7
					h-13.2V-427.2z"/>
			</g>
			<linearGradient id="SVGID_30_" gradientUnits="userSpaceOnUse" x1="537.7827" y1="-410.4417" x2="579.303" y2="-410.4417">
				<stop  offset="0" style="stop-color:#47BEA9"/>
				<stop  offset="1" style="stop-color:#91C73E"/>
			</linearGradient>
			<path class="st21" d="M579.3-444.8v10.9h-28.9v18.4h23.1v10.5h-23.1v28.9h-12.6v-68.6H579.3z"/>
		</g>
		<g>
			<path class="st0" d="M75.9-444.9h12.2l28.6,45.7v-45.7h12.7v69.5h-12.3L88.7-421v45.6H75.9V-444.9z"/>
		</g>
		<g>
			<path class="st0" d="M145.7-426.8h12.6v24.8c0,4.8,0.3,8.2,1,10c0.6,1.9,1.7,3.3,3.1,4.4c1.4,1,3.2,1.6,5.2,1.6
				c2.1,0,3.8-0.5,5.3-1.5s2.5-2.5,3.2-4.5c0.5-1.5,0.8-4.6,0.8-9.5v-25.2h12.4v21.8c0,9-0.7,15.1-2,18.4c-1.7,4-4.1,7.1-7.4,9.3
				c-3.2,2.2-7.4,3.2-12.4,3.2c-5.4,0-9.8-1.3-13.2-3.8c-3.4-2.5-5.7-6-7.1-10.5c-1-3.1-1.5-8.8-1.5-17V-426.8z"/>
		</g>
		<g>
			<path class="st0" d="M205.5-445.8H218v19h7.4v11.1H218v40.3h-12.4v-40.3h-6.4v-11.1h6.4V-445.8z"/>
		</g>
		<g>
			<path class="st0" d="M231.4-426.8H242v6.5c1.2-2.6,2.7-4.5,4.6-5.8c1.9-1.3,4-2,6.3-2c1.6,0,3.3,0.4,5.1,1.3l-3.9,11.1
				c-1.5-0.8-2.7-1.1-3.6-1.1c-1.9,0-3.5,1.2-4.8,3.7c-1.3,2.5-2,7.3-2,14.5l0,2.5v20.8h-12.3V-426.8z"/>
		</g>
		<g>
			<path class="st0" d="M271.3-448c2.2,0,4,0.8,5.6,2.5c1.6,1.6,2.3,3.6,2.3,6c0,2.3-0.8,4.3-2.3,5.9c-1.5,1.6-3.4,2.4-5.5,2.4
				c-2.2,0-4.1-0.8-5.7-2.5c-1.6-1.7-2.3-3.7-2.3-6c0-2.3,0.8-4.2,2.3-5.8C267.2-447.2,269.1-448,271.3-448z M265.1-426.8h12.4v51.4
				h-12.4V-426.8z"/>
		</g>
		<g>
			<path class="st0" d="M327.6-446.7h12.4v71.3h-12.4v-5.4c-2.4,2.4-4.9,4.1-7.3,5.2c-2.4,1.1-5.1,1.6-7.9,1.6
				c-6.4,0-11.9-2.6-16.6-7.7c-4.7-5.2-7-11.6-7-19.2c0-7.9,2.3-14.4,6.8-19.5c4.5-5.1,10-7.6,16.5-7.6c3,0,5.8,0.6,8.4,1.7
				c2.6,1.2,5,2.9,7.2,5.2V-446.7z M314.6-416.2c-3.8,0-7,1.4-9.6,4.2c-2.5,2.8-3.8,6.4-3.8,10.8c0,4.4,1.3,8.1,3.9,11
				c2.6,2.9,5.8,4.3,9.5,4.3c3.9,0,7.1-1.4,9.7-4.2c2.6-2.8,3.9-6.5,3.9-11.1c0-4.5-1.3-8.1-3.9-10.9
				C321.8-414.9,318.5-416.2,314.6-416.2z"/>
		</g>
		<g>
			<path class="st0" d="M378.2-428.2c4.7,0,9.1,1.2,13.2,3.6c4.1,2.4,7.3,5.7,9.6,9.9c2.3,4.2,3.5,8.6,3.5,13.5
				c0,4.9-1.2,9.4-3.5,13.6c-2.3,4.2-5.5,7.5-9.5,9.9c-4,2.4-8.4,3.6-13.2,3.6c-7.1,0-13.2-2.6-18.2-7.9c-5-5.2-7.5-11.6-7.5-19.1
				c0-8,2.8-14.7,8.5-20.1C366-425.8,371.7-428.2,378.2-428.2z M378.4-416c-3.9,0-7.1,1.4-9.6,4.2c-2.6,2.8-3.9,6.4-3.9,10.7
				c0,4.5,1.3,8.1,3.8,10.9c2.5,2.8,5.8,4.2,9.6,4.2c3.9,0,7.1-1.4,9.7-4.2c2.6-2.8,3.9-6.4,3.9-10.8s-1.3-8-3.8-10.8
				C385.6-414.6,382.4-416,378.4-416z"/>
		</g>
		<g>
			<path class="st0" d="M465.4-416.4l-10.3,5.9c-1.9-2.1-3.9-3.6-5.8-4.4c-1.9-0.8-4.1-1.2-6.7-1.2c-4.6,0-8.4,1.4-11.3,4.3
				c-2.9,2.9-4.3,6.6-4.3,11.1c0,4.4,1.4,7.9,4.1,10.7c2.8,2.8,6.4,4.2,10.9,4.2c5.6,0,9.9-2,13-5.9l9.8,7
				c-5.3,7.2-12.8,10.8-22.5,10.8c-8.7,0-15.5-2.7-20.5-8s-7.4-11.6-7.4-18.8c0-5,1.2-9.6,3.6-13.8c2.4-4.2,5.7-7.5,10-9.9
				c4.3-2.4,9.1-3.6,14.4-3.6c4.9,0,9.3,1,13.2,3C459.7-423.1,462.9-420.2,465.4-416.4z"/>
		</g>
		<g>
			<path class="st0" d="M479-446.7h12.4v41l18.3-21.2h15.6L504-402.2l23.9,26.8h-15.4l-21-23.7v23.7H479V-446.7z"/>
		</g>
	</g>
</g>
<g>
	<g>
		<defs>
			<path id="SVGID_31_" d="M258.7,70.2v69.3c0,38.1,31.2,69.3,69.3,69.3h15.7c-29.5-24.6-39-56.6-39.9-87.3
				c13.2,48.3,56.5,87.3,97.3,87.3h46.5v-69.3c0-38.1-31.2-69.3-69.3-69.3h-15.7c29.5,24.6,39,56.6,39.9,87.3
				c-13.2-48.3-56.5-87.3-97.3-87.3H258.7z M237,48.6h141.2c50,0,90.9,40.9,90.9,90.9v90.9H327.9c-50,0-90.9-40.9-90.9-90.9V48.6z"
				/>
		</defs>
		<clipPath id="SVGID_32_">
			<use xlink:href="#SVGID_31_"  style="overflow:visible;"/>
		</clipPath>
		<linearGradient id="SVGID_33_" gradientUnits="userSpaceOnUse" x1="455.7444" y1="227.1" x2="252.8156" y2="53.9691">
			<stop  offset="0" style="stop-color:#47BEA9"/>
			<stop  offset="1" style="stop-color:#91C73E"/>
		</linearGradient>
		<rect x="237" y="48.6" class="st22" width="232.1" height="181.8"/>
	</g>
	<g>
		<g>
			<g>
				<linearGradient id="SVGID_34_" gradientUnits="userSpaceOnUse" x1="617.6126" y1="300.2363" x2="644.4558" y2="300.2363">
					<stop  offset="0" style="stop-color:#47BEA9"/>
					<stop  offset="1" style="stop-color:#91C73E"/>
				</linearGradient>
				<path class="st23" d="M624.1,265.5h12.7v18.7h7.6v11h-7.6V335h-12.7v-39.8h-6.5v-11h6.5V265.5z"/>
			</g>
			<g>
				<linearGradient id="SVGID_35_" gradientUnits="userSpaceOnUse" x1="588.9377" y1="299.3085" x2="605.8019" y2="299.3085">
					<stop  offset="0" style="stop-color:#47BEA9"/>
					<stop  offset="1" style="stop-color:#91C73E"/>
				</linearGradient>
				<path class="st24" d="M597.3,262.1c2.3,0,4.3,0.8,6,2.5c1.7,1.7,2.5,3.7,2.5,6.1c0,2.4-0.8,4.4-2.5,6c-1.6,1.7-3.6,2.5-5.9,2.5
					c-2.4,0-4.4-0.8-6-2.5c-1.7-1.7-2.5-3.8-2.5-6.2c0-2.3,0.8-4.3,2.5-6C593,262.9,595,262.1,597.3,262.1z M590.7,283.8H604v52.7
					h-13.2V283.8z"/>
			</g>
			<linearGradient id="SVGID_36_" gradientUnits="userSpaceOnUse" x1="537.7827" y1="300.5583" x2="579.303" y2="300.5583">
				<stop  offset="0" style="stop-color:#47BEA9"/>
				<stop  offset="1" style="stop-color:#91C73E"/>
			</linearGradient>
			<path class="st25" d="M579.3,266.2v10.9h-28.9v18.4h23.1V306h-23.1v28.9h-12.6v-68.6H579.3z"/>
		</g>
		<g>
			<path class="st0" d="M75.9,266.1h12.2l28.6,45.7v-45.7h12.7v69.5h-12.3L88.7,290v45.6H75.9V266.1z"/>
		</g>
		<g>
			<path class="st0" d="M145.7,284.2h12.6v24.8c0,4.8,0.3,8.2,1,10c0.6,1.9,1.7,3.3,3.1,4.4c1.4,1,3.2,1.6,5.2,1.6
				c2.1,0,3.8-0.5,5.3-1.5s2.5-2.5,3.2-4.5c0.5-1.5,0.8-4.6,0.8-9.5v-25.2h12.4V306c0,9-0.7,15.1-2,18.4c-1.7,4-4.1,7.1-7.4,9.3
				c-3.2,2.2-7.4,3.2-12.4,3.2c-5.4,0-9.8-1.3-13.2-3.8c-3.4-2.5-5.7-6-7.1-10.5c-1-3.1-1.5-8.8-1.5-17V284.2z"/>
		</g>
		<g>
			<path class="st0" d="M205.5,265.2H218v19h7.4v11.1H218v40.3h-12.4v-40.3h-6.4v-11.1h6.4V265.2z"/>
		</g>
		<g>
			<path class="st0" d="M231.4,284.2H242v6.5c1.2-2.6,2.7-4.5,4.6-5.8c1.9-1.3,4-2,6.3-2c1.6,0,3.3,0.4,5.1,1.3l-3.9,11.1
				c-1.5-0.8-2.7-1.1-3.6-1.1c-1.9,0-3.5,1.2-4.8,3.7c-1.3,2.5-2,7.3-2,14.5l0,2.5v20.8h-12.3V284.2z"/>
		</g>
		<g>
			<path class="st0" d="M271.3,263c2.2,0,4,0.8,5.6,2.5c1.6,1.6,2.3,3.6,2.3,6c0,2.3-0.8,4.3-2.3,5.9c-1.5,1.6-3.4,2.4-5.5,2.4
				c-2.2,0-4.1-0.8-5.7-2.5c-1.6-1.7-2.3-3.7-2.3-6c0-2.3,0.8-4.2,2.3-5.8C267.2,263.8,269.1,263,271.3,263z M265.1,284.2h12.4v51.4
				h-12.4V284.2z"/>
		</g>
		<g>
			<path class="st0" d="M327.6,264.3h12.4v71.3h-12.4v-5.4c-2.4,2.4-4.9,4.1-7.3,5.2c-2.4,1.1-5.1,1.6-7.9,1.6
				c-6.4,0-11.9-2.6-16.6-7.7c-4.7-5.2-7-11.6-7-19.2c0-7.9,2.3-14.4,6.8-19.5c4.5-5.1,10-7.6,16.5-7.6c3,0,5.8,0.6,8.4,1.7
				c2.6,1.2,5,2.9,7.2,5.2V264.3z M314.6,294.8c-3.8,0-7,1.4-9.6,4.2c-2.5,2.8-3.8,6.4-3.8,10.8c0,4.4,1.3,8.1,3.9,11
				c2.6,2.9,5.8,4.3,9.5,4.3c3.9,0,7.1-1.4,9.7-4.2c2.6-2.8,3.9-6.5,3.9-11.1c0-4.5-1.3-8.1-3.9-10.9
				C321.8,296.1,318.5,294.8,314.6,294.8z"/>
		</g>
		<g>
			<path class="st0" d="M378.2,282.8c4.7,0,9.1,1.2,13.2,3.6c4.1,2.4,7.3,5.7,9.6,9.9c2.3,4.2,3.5,8.6,3.5,13.5
				c0,4.9-1.2,9.4-3.5,13.6c-2.3,4.2-5.5,7.5-9.5,9.9c-4,2.4-8.4,3.6-13.2,3.6c-7.1,0-13.2-2.6-18.2-7.9c-5-5.2-7.5-11.6-7.5-19.1
				c0-8,2.8-14.7,8.5-20.1C366,285.2,371.7,282.8,378.2,282.8z M378.4,295c-3.9,0-7.1,1.4-9.6,4.2c-2.6,2.8-3.9,6.4-3.9,10.7
				c0,4.5,1.3,8.1,3.8,10.9c2.5,2.8,5.8,4.2,9.6,4.2c3.9,0,7.1-1.4,9.7-4.2c2.6-2.8,3.9-6.4,3.9-10.8s-1.3-8-3.8-10.8
				C385.6,296.4,382.4,295,378.4,295z"/>
		</g>
		<g>
			<path class="st0" d="M465.4,294.6l-10.3,5.9c-1.9-2.1-3.9-3.6-5.8-4.4c-1.9-0.8-4.1-1.2-6.7-1.2c-4.6,0-8.4,1.4-11.3,4.3
				c-2.9,2.9-4.3,6.6-4.3,11.1c0,4.4,1.4,7.9,4.1,10.7c2.8,2.8,6.4,4.2,10.9,4.2c5.6,0,9.9-2,13-5.9l9.8,7
				c-5.3,7.2-12.8,10.8-22.5,10.8c-8.7,0-15.5-2.7-20.5-8s-7.4-11.6-7.4-18.8c0-5,1.2-9.6,3.6-13.8c2.4-4.2,5.7-7.5,10-9.9
				c4.3-2.4,9.1-3.6,14.4-3.6c4.9,0,9.3,1,13.2,3C459.7,287.9,462.9,290.8,465.4,294.6z"/>
		</g>
		<g>
			<path class="st0" d="M479,264.3h12.4v41l18.3-21.2h15.6L504,308.8l23.9,26.8h-15.4l-21-23.7v23.7H479V264.3z"/>
		</g>
	</g>
</g>
</svg>
