<?xml version="1.0" encoding="utf-8"?>
<!-- Generator: Adobe Illustrator 24.0.1, SVG Export Plug-In . SVG Version: 6.00 Build 0)  -->
<svg version="1.1" id="Capa_1" xmlns="http://www.w3.org/2000/svg" xmlns:xlink="http://www.w3.org/1999/xlink" x="0px" y="0px"
	 viewBox="0 0 512 512" style="enable-background:new 0 0 512 512;" xml:space="preserve">
<style type="text/css">
	.st0{fill:#302C2A;}
	.st1{fill:#1F261E;}
	.st2{fill:#F4E9D3;}
	.st3{fill:#E5D6BE;}
	.st4{fill:#8FC741;}
	.st5{fill:#84B734;}
	.st6{fill:#333232;}
	.st7{fill:#FF4755;}
	.st8{fill:#FC2B3A;}
	.st9{fill:#98DB7C;}
	.st10{fill:#E52940;}
</style>
<path class="st0" d="M272,42.8h78.4c11.1,0,20.1,9,20.1,20.1v428.9c0,11.1-9,20.1-20.1,20.1H30.8c-11.1,0-20.1-9-20.1-20.1V62.8
	c0-11.1,9-20.1,20.1-20.1h78.4"/>
<path class="st1" d="M350.4,42.8h-18.6c11.1,0,20.1,9,20.1,20.1v428.9c0,11.1-9,20.1-20.1,20.1h18.6c11.1,0,20.1-9,20.1-20.1V62.8
	C370.4,51.8,361.5,42.8,350.4,42.8L350.4,42.8z"/>
<path class="st2" d="M333.7,85.1v384.4c0,2.9-2.3,5.2-5.2,5.2h-276c-2.9,0-5.2-2.3-5.2-5.2V85.1c0-2.9,2.3-5.2,5.2-5.2h276
	C331.4,79.9,333.7,82.2,333.7,85.1L333.7,85.1z"/>
<path class="st3" d="M315.2,79.9v394.8h13.4c2.9,0,5.2-2.3,5.2-5.2V85.1c0-2.9-2.3-5.2-5.2-5.2L315.2,79.9z"/>
<path class="st4" d="M258.8,29.6h-33.4V10.5C225.4,4.7,220.7,0,215,0h-48.7c-5.8,0-10.5,4.7-10.5,10.5v19.1h-33.4
	c-7.3,0-13.2,5.9-13.2,13.2v36.4c0,7.3,5.9,13.2,13.2,13.2h43.8H215h43.8c7.3,0,13.2-5.9,13.2-13.2V42.8
	C272,35.5,266.1,29.6,258.8,29.6z"/>
<path class="st5" d="M206.9,10.5v19.1h18.6V10.5C225.4,4.7,220.7,0,215,0h-18.6C202.2,0,206.9,4.7,206.9,10.5z"/>
<path class="st5" d="M258.8,29.6h-18.6c7.3,0,13.2,5.9,13.2,13.2v36.4c0,7.3-5.9,13.2-13.2,13.2h18.6c7.3,0,13.2-5.9,13.2-13.2V42.8
	C272,35.5,266.1,29.6,258.8,29.6z"/>
<path class="st6" d="M294.6,147.8H164.2c-4.3,0-7.8,3.5-7.8,7.8s3.5,7.8,7.8,7.8h130.4c4.3,0,7.8-3.5,7.8-7.8
	S298.9,147.8,294.6,147.8z"/>
<path class="st6" d="M164.2,191.2h73.3c4.3,0,7.8-3.5,7.8-7.8s-3.5-7.8-7.8-7.8h-73.3c-4.3,0-7.8,3.5-7.8,7.8
	S159.9,191.2,164.2,191.2z"/>
<path class="st4" d="M125.2,144.7l-28.6,29.3l-12.4-12c-3.1-3-8-2.9-11,0.2c-3,3.1-2.9,8,0.2,11l17.9,17.4c3,2.9,8,2.9,11-0.1
	l34-34.8c3-3.1,2.9-8-0.1-11C133.1,141.5,128.2,141.6,125.2,144.7z"/>
<g>
	<path class="st6" d="M294.6,226.8H164.2c-4.3,0-7.8,3.5-7.8,7.8s3.5,7.8,7.8,7.8h130.4c4.3,0,7.8-3.5,7.8-7.8
		S298.9,226.8,294.6,226.8z"/>
	<path class="st6" d="M256.9,321.2h-92.5c-4.3,0-7.7-3.5-7.7-7.7s3.5-7.7,7.7-7.7h92.5c4.3,0,7.7,3.5,7.7,7.7
		S261.2,321.2,256.9,321.2z"/>
	<path class="st6" d="M249.3,349h-84.9c-4.3,0-7.7-3.5-7.7-7.7s3.5-7.7,7.7-7.7h84.9c4.3,0,7.7,3.5,7.7,7.7S253.6,349,249.3,349
		L249.3,349z"/>
	<path class="st6" d="M253.8,400.1h-89.4c-4.3,0-7.7-3.5-7.7-7.7s3.5-7.7,7.7-7.7h89.4c4.3,0,7.7,3.5,7.7,7.7
		S258.1,400.1,253.8,400.1z"/>
	<path class="st6" d="M261.3,427.8h-96.9c-4.3,0-7.7-3.5-7.7-7.7s3.5-7.7,7.7-7.7h96.9c4.3,0,7.7,3.5,7.7,7.7
		S265.5,427.8,261.3,427.8z"/>
	<path class="st6" d="M237.5,254.7h-73.3c-4.3,0-7.8,3.5-7.8,7.8s3.5,7.8,7.8,7.8h73.3c4.3,0,7.8-3.5,7.8-7.8
		C245.3,258.1,241.8,254.7,237.5,254.7z"/>
</g>
<path class="st4" d="M125.2,223.7l-28.6,29.3l-12.4-12c-3.1-3-8-2.9-11,0.2s-2.9,8,0.2,11l17.9,17.4c3,2.9,8,2.9,11-0.1l34-34.8
	c3-3.1,2.9-8-0.1-11C133.1,220.5,128.2,220.6,125.2,223.7L125.2,223.7z"/>
<path class="st4" d="M125.2,302.7l-28.6,29.3l-12.4-12c-3.1-3-8-2.9-11,0.2s-2.9,8,0.2,11l17.9,17.4c3,2.9,8,2.9,11-0.1l34-34.8
	c3-3.1,2.9-8-0.1-11C133.1,299.5,128.2,299.6,125.2,302.7L125.2,302.7z"/>
<path class="st4" d="M125.2,381.7l-28.6,29.3l-12.4-12c-3.1-3-8-2.9-11,0.2c-3,3.1-2.9,8,0.2,11l17.9,17.4c3,2.9,8,2.9,11-0.1
	l34-34.8c3-3.1,2.9-8-0.1-11C133.1,378.5,128.2,378.6,125.2,381.7L125.2,381.7z"/>
<path class="st7" d="M370.4,256.8c68.9,0,135,29.1,130.6,100.3c-6.9,111.4-84.4,188.3-130.6,140.4c-46.2,47.9-123.7-29-130.6-140.4
	C235.4,285.9,301.5,256.8,370.4,256.8L370.4,256.8z"/>
<path class="st8" d="M370.4,256.8c-3.1,0-6.2,0.1-9.3,0.2c65.5,2.5,125.5,32.1,121.3,100.1c-5.1,81.9-48.3,145.2-89.2,153.9
	c45.3,10.3,101.9-59.3,107.8-153.9C505.5,285.9,439.4,256.8,370.4,256.8z"/>
<path class="st9" d="M432.4,265.3c-22,22-62.4,17.3-62.4,17.3s-4.7-40.4,17.3-62.4c17.5-17.5,46.6-18.1,57.8-17.7
	c2.7,0.1,4.8,2.3,4.9,4.9C450.6,218.7,449.9,247.8,432.4,265.3z"/>
<path class="st4" d="M445.1,202.6c-1.7-0.1-3.8-0.1-6.2-0.1c-0.1,13.4-2.6,37.2-17.8,52.4c-14.8,14.8-38,17.6-51.5,17.7
	c0,6.1,0.4,10,0.4,10s40.4,4.7,62.4-17.3c17.5-17.5,18.1-46.6,17.7-57.8C450,204.8,447.8,202.7,445.1,202.6L445.1,202.6z"/>
<path class="st4" d="M370.4,311.4c-0.3,0-0.7,0-1.1-0.1c-4.2-0.6-7.2-4.5-6.6-8.7c0-0.3,1.7-14.1-2.8-31.3
	c-6-22.6-19.5-40.2-40.3-52.3c-3.7-2.1-5-6.9-2.8-10.6c2.1-3.7,6.9-5,10.6-2.8c30.7,17.8,42.8,43.8,47.6,62.4
	c5.2,20.1,3.1,36,3,36.6C377.6,308.6,374.3,311.4,370.4,311.4z"/>
<path class="st10" d="M370.4,311.4c-24,0-40.1-12.5-40.7-13c-3.4-2.7-3.9-7.5-1.3-10.9c2.6-3.4,7.5-3.9,10.9-1.3
	c0.1,0.1,12.7,9.7,31.1,9.7c18.4,0,31.1-9.6,31.2-9.7c3.4-2.6,8.2-2,10.9,1.3c2.6,3.4,2.1,8.2-1.3,10.8
	C410.5,298.9,394.4,311.4,370.4,311.4z"/>
</svg>
