<?xml version="1.0" encoding="utf-8"?>
<!-- Generator: Adobe Illustrator 25.2.1, SVG Export Plug-In . SVG Version: 6.00 Build 0)  -->
<svg version="1.1" id="Layer_1" xmlns="http://www.w3.org/2000/svg" xmlns:xlink="http://www.w3.org/1999/xlink" x="0px" y="0px"
	 viewBox="0 0 435.1 268.1" style="enable-background:new 0 0 435.1 268.1;" xml:space="preserve">
<style type="text/css">
	.st0{fill-rule:evenodd;clip-rule:evenodd;fill:#1C2A39;}
	.st1{clip-path:url(#SVGID_2_);fill:url(#SVGID_3_);}
	.st2{fill:#FFFFFF;}
	.st3{clip-path:url(#SVGID_5_);fill:url(#SVGID_6_);}
	.st4{fill:#1C2A39;}
	.st5{clip-path:url(#SVGID_8_);fill:url(#SVGID_9_);}
	.st6{clip-path:url(#SVGID_11_);fill:url(#SVGID_12_);}
</style>
<rect x="941.2" y="-884.4" class="st0" width="691" height="691"/>
<rect x="-287.8" y="-884.4" class="st0" width="1019" height="691"/>
<g>
	<g>
		<defs>
			<path id="SVGID_1_" d="M132.7-640.7v59.2c0,32.5,26.7,59.2,59.2,59.2h13.4c-25.2-21-33.3-48.4-34.1-74.6
				c11.2,41.3,48.3,74.6,83.1,74.6H294v-59.2c0-32.5-26.7-59.2-59.2-59.2h-13.4c25.2,21,33.3,48.4,34.1,74.6
				c-11.2-41.3-48.3-74.6-83.1-74.6H132.7z M114.2-659.2h120.6c42.7,0,77.7,35,77.7,77.7v77.7H191.9c-42.7,0-77.7-34.9-77.7-77.7
				V-659.2z"/>
		</defs>
		<clipPath id="SVGID_2_">
			<use xlink:href="#SVGID_1_"  style="overflow:visible;"/>
		</clipPath>
		<linearGradient id="SVGID_3_" gradientUnits="userSpaceOnUse" x1="301.1062" y1="-506.6521" x2="127.7323" y2="-654.5679">
			<stop  offset="0" style="stop-color:#12D3B4"/>
			<stop  offset="1" style="stop-color:#90D124"/>
		</linearGradient>
		<rect x="114.2" y="-659.2" class="st1" width="198.3" height="155.3"/>
	</g>
	<g>
		<path class="st2" d="M46.6-471.4h9.5l22.2,34.1v-34.1h9.9v51.9h-9.5l-22.2-34v34h-9.9V-471.4z"/>
	</g>
	<g>
		<path class="st2" d="M100.7-457.9h9.7v18.5c0,3.6,0.2,6.1,0.7,7.5c0.5,1.4,1.3,2.5,2.4,3.3c1.1,0.8,2.4,1.2,4,1.2
			c1.6,0,3-0.4,4.1-1.1c1.1-0.8,1.9-1.9,2.5-3.4c0.4-1.1,0.6-3.5,0.6-7.1v-18.8h9.6v16.3c0,6.7-0.5,11.3-1.6,13.7
			c-1.3,3-3.2,5.3-5.7,6.9c-2.5,1.6-5.7,2.4-9.6,2.4c-4.2,0-7.6-0.9-10.2-2.8c-2.6-1.9-4.4-4.5-5.5-7.9c-0.8-2.3-1.1-6.6-1.1-12.7
			V-457.9z"/>
	</g>
	<g>
		<path class="st2" d="M147-472h9.6v14.1h5.7v8.3h-5.7v30.1H147v-30.1h-4.9v-8.3h4.9V-472z"/>
	</g>
	<g>
		<path class="st2" d="M167-457.9h8.2v4.8c0.9-1.9,2.1-3.3,3.6-4.3c1.5-1,3.1-1.5,4.9-1.5c1.2,0,2.5,0.3,3.9,1l-3,8.3
			c-1.1-0.6-2.1-0.8-2.8-0.8c-1.5,0-2.7,0.9-3.8,2.7c-1,1.8-1.5,5.4-1.5,10.8l0,1.9v15.5H167V-457.9z"/>
	</g>
	<g>
		<path class="st2" d="M197.9-473.7c1.7,0,3.1,0.6,4.3,1.8c1.2,1.2,1.8,2.7,1.8,4.4c0,1.7-0.6,3.2-1.8,4.4c-1.2,1.2-2.6,1.8-4.3,1.8
			c-1.7,0-3.2-0.6-4.4-1.9c-1.2-1.2-1.8-2.7-1.8-4.5c0-1.7,0.6-3.1,1.8-4.3C194.8-473.1,196.3-473.7,197.9-473.7z M193.1-457.9h9.6
			v38.4h-9.6V-457.9z"/>
	</g>
	<g>
		<path class="st2" d="M241.6-472.7h9.6v53.2h-9.6v-4.1c-1.9,1.8-3.8,3.1-5.7,3.9c-1.9,0.8-3.9,1.2-6.1,1.2c-5,0-9.2-1.9-12.9-5.8
			c-3.6-3.8-5.4-8.6-5.4-14.3c0-5.9,1.7-10.8,5.2-14.6c3.5-3.8,7.7-5.7,12.7-5.7c2.3,0,4.5,0.4,6.5,1.3c2,0.9,3.9,2.2,5.6,3.9
			V-472.7z M231.5-450c-3,0-5.4,1.1-7.4,3.2c-2,2.1-3,4.8-3,8.1c0,3.3,1,6,3,8.2c2,2.1,4.5,3.2,7.4,3.2c3,0,5.5-1.1,7.5-3.2
			c2-2.1,3-4.9,3-8.3c0-3.3-1-6-3-8.1C237-449,234.5-450,231.5-450z"/>
	</g>
	<g>
		<path class="st2" d="M280.7-458.9c3.6,0,7,0.9,10.2,2.7c3.2,1.8,5.7,4.3,7.5,7.4c1.8,3.1,2.7,6.5,2.7,10c0,3.6-0.9,7-2.7,10.2
			c-1.8,3.1-4.2,5.6-7.3,7.4c-3.1,1.8-6.5,2.7-10.3,2.7c-5.5,0-10.2-2-14.1-5.9c-3.9-3.9-5.8-8.7-5.8-14.3c0-6,2.2-11,6.6-15
			C271.3-457.1,275.7-458.9,280.7-458.9z M280.9-449.8c-3,0-5.5,1-7.5,3.1c-2,2.1-3,4.7-3,8c0,3.3,1,6,2.9,8.1
			c2,2.1,4.5,3.1,7.5,3.1c3,0,5.5-1,7.5-3.1c2-2.1,3-4.8,3-8.1c0-3.3-1-6-2.9-8C286.5-448.8,284-449.8,280.9-449.8z"/>
	</g>
	<g>
		<path class="st2" d="M348.3-450.1l-8,4.4c-1.5-1.6-3-2.7-4.5-3.3c-1.5-0.6-3.2-0.9-5.2-0.9c-3.6,0-6.5,1.1-8.7,3.2
			c-2.2,2.1-3.3,4.9-3.3,8.3c0,3.3,1.1,5.9,3.2,8c2.1,2.1,5,3.1,8.4,3.1c4.3,0,7.7-1.5,10.1-4.4l7.6,5.2c-4.1,5.3-9.9,8-17.4,8
			c-6.7,0-12-2-15.8-6c-3.8-4-5.7-8.7-5.7-14c0-3.7,0.9-7.1,2.8-10.3c1.9-3.1,4.4-5.6,7.8-7.4c3.3-1.8,7-2.7,11.2-2.7
			c3.8,0,7.2,0.8,10.3,2.3C343.9-455.1,346.4-452.9,348.3-450.1z"/>
	</g>
	<g>
		<path class="st2" d="M358.8-472.7h9.6v30.6l14.2-15.8h12.1l-16.5,18.4l18.5,20h-11.9l-16.3-17.7v17.7h-9.6V-472.7z"/>
	</g>
</g>
<g>
	<g>
		<defs>
			<path id="SVGID_4_" d="M141.5,46.9v52.7c0,29,23.8,52.7,52.7,52.7h12c-22.4-18.7-29.7-43.1-30.4-66.5c10,36.8,43,66.5,74,66.5
				h35.4V99.6c0-29-23.8-52.7-52.7-52.7h-12c22.4,18.7,29.7,43.1,30.4,66.5c-10-36.8-43-66.5-74-66.5H141.5z M125.1,30.4h107.5
				c38.1,0,69.2,31.1,69.2,69.2v69.2H194.3c-38.1,0-69.2-31.1-69.2-69.2V30.4z"/>
		</defs>
		<clipPath id="SVGID_5_">
			<use xlink:href="#SVGID_4_"  style="overflow:visible;"/>
		</clipPath>
		<linearGradient id="SVGID_6_" gradientUnits="userSpaceOnUse" x1="291.5349" y1="166.249" x2="137.0788" y2="34.4731">
			<stop  offset="0" style="stop-color:#12D3B4"/>
			<stop  offset="1" style="stop-color:#90D124"/>
		</linearGradient>
		<rect x="125.1" y="30.4" class="st3" width="176.7" height="138.4"/>
	</g>
	<g>
		<path class="st4" d="M46.6,197.7h9.5l22.2,34.1v-34.1h9.9v51.9h-9.5l-22.2-34v34h-9.9V197.7z"/>
	</g>
	<g>
		<path class="st4" d="M100.7,211.2h9.7v18.5c0,3.6,0.2,6.1,0.7,7.5c0.5,1.4,1.3,2.5,2.4,3.3c1.1,0.8,2.4,1.2,4,1.2
			c1.6,0,3-0.4,4.1-1.1c1.1-0.8,1.9-1.9,2.5-3.4c0.4-1.1,0.6-3.5,0.6-7.1v-18.8h9.6v16.3c0,6.7-0.5,11.3-1.6,13.7
			c-1.3,3-3.2,5.3-5.7,6.9c-2.5,1.6-5.7,2.4-9.6,2.4c-4.2,0-7.6-0.9-10.2-2.8c-2.6-1.9-4.4-4.5-5.5-7.9c-0.8-2.3-1.1-6.6-1.1-12.7
			V211.2z"/>
	</g>
	<g>
		<path class="st4" d="M147,197h9.6v14.1h5.7v8.3h-5.7v30.1H147v-30.1h-4.9v-8.3h4.9V197z"/>
	</g>
	<g>
		<path class="st4" d="M167,211.2h8.2v4.8c0.9-1.9,2.1-3.3,3.6-4.3c1.5-1,3.1-1.5,4.9-1.5c1.2,0,2.5,0.3,3.9,1l-3,8.3
			c-1.1-0.6-2.1-0.8-2.8-0.8c-1.5,0-2.7,0.9-3.8,2.7c-1,1.8-1.5,5.4-1.5,10.8l0,1.9v15.5H167V211.2z"/>
	</g>
	<g>
		<path class="st4" d="M197.9,195.4c1.7,0,3.1,0.6,4.3,1.8c1.2,1.2,1.8,2.7,1.8,4.4c0,1.7-0.6,3.2-1.8,4.4c-1.2,1.2-2.6,1.8-4.3,1.8
			c-1.7,0-3.2-0.6-4.4-1.9c-1.2-1.2-1.8-2.7-1.8-4.5c0-1.7,0.6-3.1,1.8-4.3C194.8,196,196.3,195.4,197.9,195.4z M193.1,211.2h9.6
			v38.4h-9.6V211.2z"/>
	</g>
	<g>
		<path class="st4" d="M241.6,196.4h9.6v53.2h-9.6v-4.1c-1.9,1.8-3.8,3.1-5.7,3.9c-1.9,0.8-3.9,1.2-6.1,1.2c-5,0-9.2-1.9-12.9-5.8
			c-3.6-3.8-5.4-8.6-5.4-14.3c0-5.9,1.7-10.8,5.2-14.6c3.5-3.8,7.7-5.7,12.7-5.7c2.3,0,4.5,0.4,6.5,1.3c2,0.9,3.9,2.2,5.6,3.9V196.4
			z M231.5,219.1c-3,0-5.4,1.1-7.4,3.2c-2,2.1-3,4.8-3,8.1c0,3.3,1,6,3,8.2c2,2.1,4.5,3.2,7.4,3.2c3,0,5.5-1.1,7.5-3.2
			c2-2.1,3-4.9,3-8.3c0-3.3-1-6-3-8.1C237,220.1,234.5,219.1,231.5,219.1z"/>
	</g>
	<g>
		<path class="st4" d="M280.7,210.2c3.6,0,7,0.9,10.2,2.7c3.2,1.8,5.7,4.3,7.5,7.4c1.8,3.1,2.7,6.5,2.7,10c0,3.6-0.9,7-2.7,10.2
			c-1.8,3.1-4.2,5.6-7.3,7.4c-3.1,1.8-6.5,2.7-10.3,2.7c-5.5,0-10.2-2-14.1-5.9c-3.9-3.9-5.8-8.7-5.8-14.3c0-6,2.2-11,6.6-15
			C271.3,211.9,275.7,210.2,280.7,210.2z M280.9,219.2c-3,0-5.5,1-7.5,3.1c-2,2.1-3,4.7-3,8c0,3.3,1,6,2.9,8.1
			c2,2.1,4.5,3.1,7.5,3.1c3,0,5.5-1,7.5-3.1c2-2.1,3-4.8,3-8.1c0-3.3-1-6-2.9-8C286.5,220.3,284,219.2,280.9,219.2z"/>
	</g>
	<g>
		<path class="st4" d="M348.3,218.9l-8,4.4c-1.5-1.6-3-2.7-4.5-3.3c-1.5-0.6-3.2-0.9-5.2-0.9c-3.6,0-6.5,1.1-8.7,3.2
			c-2.2,2.1-3.3,4.9-3.3,8.3c0,3.3,1.1,5.9,3.2,8c2.1,2.1,5,3.1,8.4,3.1c4.3,0,7.7-1.5,10.1-4.4l7.6,5.2c-4.1,5.3-9.9,8-17.4,8
			c-6.7,0-12-2-15.8-6c-3.8-4-5.7-8.7-5.7-14c0-3.7,0.9-7.1,2.8-10.3c1.9-3.1,4.4-5.6,7.8-7.4c3.3-1.8,7-2.7,11.2-2.7
			c3.8,0,7.2,0.8,10.3,2.3C343.9,214,346.4,216.1,348.3,218.9z"/>
	</g>
	<g>
		<path class="st4" d="M358.8,196.4h9.6V227l14.2-15.8h12.1l-16.5,18.4l18.5,20h-11.9l-16.3-17.7v17.7h-9.6V196.4z"/>
	</g>
</g>
<g>
	<g>
		<defs>
			<path id="SVGID_7_" d="M1200.8-651.3v59.2c0,32.5,26.7,59.2,59.2,59.2h13.4c-25.2-21-33.3-48.4-34.1-74.6
				c11.2,41.3,48.3,74.6,83.1,74.6h39.7v-59.2c0-32.5-26.7-59.2-59.2-59.2h-13.4c25.2,21,33.3,48.4,34.1,74.6
				c-11.2-41.3-48.3-74.6-83.1-74.6H1200.8z M1182.3-669.8h120.6c42.7,0,77.7,35,77.7,77.7v77.7h-120.6c-42.7,0-77.7-34.9-77.7-77.7
				V-669.8z"/>
		</defs>
		<clipPath id="SVGID_8_">
			<use xlink:href="#SVGID_7_"  style="overflow:visible;"/>
		</clipPath>
		<linearGradient id="SVGID_9_" gradientUnits="userSpaceOnUse" x1="1369.1222" y1="-517.2505" x2="1195.7483" y2="-665.1663">
			<stop  offset="0" style="stop-color:#12D3B4"/>
			<stop  offset="1" style="stop-color:#90D124"/>
		</linearGradient>
		<rect x="1182.3" y="-669.8" class="st5" width="198.3" height="155.3"/>
	</g>
	<g>
		<path class="st2" d="M1114.7-482h9.5l22.2,34.1V-482h9.9v51.9h-9.5l-22.2-34v34h-9.9V-482z"/>
	</g>
	<g>
		<path class="st2" d="M1168.7-468.5h9.7v18.5c0,3.6,0.2,6.1,0.7,7.5c0.5,1.4,1.3,2.5,2.4,3.3c1.1,0.8,2.4,1.2,4,1.2s3-0.4,4.1-1.1
			c1.1-0.8,1.9-1.9,2.5-3.4c0.4-1.1,0.6-3.5,0.6-7.1v-18.8h9.6v16.2c0,6.7-0.5,11.3-1.6,13.7c-1.3,3-3.2,5.3-5.7,6.9
			s-5.7,2.4-9.6,2.4c-4.2,0-7.6-0.9-10.2-2.8c-2.6-1.9-4.4-4.5-5.5-7.9c-0.8-2.3-1.1-6.6-1.1-12.7V-468.5z"/>
	</g>
	<g>
		<path class="st2" d="M1215-482.6h9.6v14.1h5.7v8.3h-5.7v30.1h-9.6v-30.1h-4.9v-8.3h4.9V-482.6z"/>
	</g>
	<g>
		<path class="st2" d="M1235.1-468.5h8.2v4.8c0.9-1.9,2.1-3.3,3.6-4.3s3.1-1.5,4.9-1.5c1.2,0,2.5,0.3,3.9,1l-3,8.3
			c-1.1-0.6-2.1-0.8-2.8-0.8c-1.5,0-2.7,0.9-3.8,2.7c-1,1.8-1.5,5.4-1.5,10.8l0,1.9v15.5h-9.6V-468.5z"/>
	</g>
	<g>
		<path class="st2" d="M1266-484.3c1.7,0,3.1,0.6,4.3,1.8c1.2,1.2,1.8,2.7,1.8,4.4c0,1.7-0.6,3.2-1.8,4.4c-1.2,1.2-2.6,1.8-4.3,1.8
			c-1.7,0-3.2-0.6-4.4-1.9c-1.2-1.2-1.8-2.7-1.8-4.5c0-1.7,0.6-3.1,1.8-4.3C1262.8-483.7,1264.3-484.3,1266-484.3z M1261.1-468.5
			h9.6v38.4h-9.6V-468.5z"/>
	</g>
	<g>
		<path class="st2" d="M1309.6-483.3h9.6v53.2h-9.6v-4.1c-1.9,1.8-3.8,3.1-5.7,3.9c-1.9,0.8-3.9,1.2-6.1,1.2c-5,0-9.2-1.9-12.9-5.8
			c-3.6-3.8-5.4-8.6-5.4-14.3c0-5.9,1.7-10.8,5.2-14.6c3.5-3.8,7.7-5.7,12.7-5.7c2.3,0,4.5,0.4,6.5,1.3c2,0.9,3.9,2.2,5.6,3.9
			V-483.3z M1299.5-460.6c-3,0-5.4,1.1-7.4,3.2c-2,2.1-3,4.8-3,8.1c0,3.3,1,6,3,8.2c2,2.1,4.5,3.2,7.4,3.2c3,0,5.5-1.1,7.5-3.2
			c2-2.1,3-4.9,3-8.3c0-3.3-1-6-3-8.1C1305-459.6,1302.5-460.6,1299.5-460.6z"/>
	</g>
	<g>
		<path class="st2" d="M1348.8-469.5c3.6,0,7,0.9,10.2,2.7c3.2,1.8,5.7,4.3,7.5,7.4c1.8,3.1,2.7,6.5,2.7,10c0,3.6-0.9,7-2.7,10.2
			c-1.8,3.1-4.2,5.6-7.3,7.4c-3.1,1.8-6.5,2.7-10.3,2.7c-5.5,0-10.2-2-14.1-5.9c-3.9-3.9-5.8-8.7-5.8-14.3c0-6,2.2-11,6.6-15
			C1339.3-467.7,1343.8-469.5,1348.8-469.5z M1348.9-460.4c-3,0-5.5,1-7.5,3.1s-3,4.7-3,8c0,3.3,1,6,2.9,8.1c2,2.1,4.5,3.1,7.5,3.1
			c3,0,5.5-1,7.5-3.1c2-2.1,3-4.8,3-8.1s-1-6-2.9-8C1354.5-459.4,1352-460.4,1348.9-460.4z"/>
	</g>
	<g>
		<path class="st2" d="M1416.3-460.7l-8,4.4c-1.5-1.6-3-2.7-4.5-3.3s-3.2-0.9-5.2-0.9c-3.6,0-6.5,1.1-8.7,3.2
			c-2.2,2.1-3.3,4.9-3.3,8.3c0,3.3,1.1,5.9,3.2,8c2.1,2.1,5,3.1,8.4,3.1c4.3,0,7.7-1.5,10.1-4.4l7.6,5.2c-4.1,5.3-9.9,8-17.4,8
			c-6.7,0-12-2-15.8-6c-3.8-4-5.7-8.7-5.7-14c0-3.7,0.9-7.1,2.8-10.3c1.9-3.1,4.4-5.6,7.8-7.4c3.3-1.8,7-2.7,11.2-2.7
			c3.8,0,7.2,0.8,10.3,2.3C1411.9-465.7,1414.4-463.5,1416.3-460.7z"/>
	</g>
	<g>
		<path class="st2" d="M1426.8-483.3h9.6v30.6l14.2-15.8h12.1l-16.5,18.4l18.5,20h-11.9l-16.3-17.7v17.7h-9.6V-483.3z"/>
	</g>
</g>
<rect x="1709.1" y="-884.4" class="st0" width="691" height="691"/>
<g>
	<defs>
		<path id="SVGID_10_" d="M1974-598.1v59.2c0,32.5,26.7,59.2,59.2,59.2h13.4c-25.2-21-33.3-48.4-34.1-74.6
			c11.2,41.3,48.3,74.6,83.1,74.6h39.7v-59.2c0-32.5-26.7-59.2-59.2-59.2h-13.4c25.2,21,33.3,48.4,34.1,74.6
			c-11.2-41.3-48.3-74.6-83.1-74.6H1974z M1955.5-616.6h120.6c42.7,0,77.7,35,77.7,77.7v77.7h-120.6c-42.7,0-77.7-34.9-77.7-77.7
			V-616.6z"/>
	</defs>
	<clipPath id="SVGID_11_">
		<use xlink:href="#SVGID_10_"  style="overflow:visible;"/>
	</clipPath>
	<linearGradient id="SVGID_12_" gradientUnits="userSpaceOnUse" x1="2142.3657" y1="-464.0464" x2="1968.9919" y2="-611.9622">
		<stop  offset="0" style="stop-color:#12D3B4"/>
		<stop  offset="1" style="stop-color:#90D124"/>
	</linearGradient>
	<rect x="1955.5" y="-616.6" class="st6" width="198.3" height="155.3"/>
</g>
</svg>
