<?xml version="1.0" encoding="utf-8"?>
<!-- Generator: Adobe Illustrator 24.0.1, SVG Export Plug-In . SVG Version: 6.00 Build 0)  -->
<svg version="1.1" id="Capa_1" xmlns="http://www.w3.org/2000/svg" xmlns:xlink="http://www.w3.org/1999/xlink" x="0px" y="0px"
	 viewBox="0 0 512 512" style="enable-background:new 0 0 512 512;" xml:space="preserve">
<style type="text/css">
	.st0{fill:#FFFFFF;}
</style>
<g>
	<g>
		<path class="st0" d="M508.8,74.5c-2.8-3.5-7-5.5-11.5-5.5H104.2l-11-47.6c-1.5-6.7-7.5-11.4-14.4-11.4h-64C6.6,9.8,0,16.5,0,24.6
			s6.6,14.8,14.8,14.8H67l74.6,323.3c1.5,6.7,7.5,11.4,14.4,11.4h295.9c8.2,0,14.8-6.6,14.8-14.8c0-8.2-6.6-14.8-14.8-14.8H167.8
			l-11.4-49.2h296.5c6.9,0,12.9-4.8,14.4-11.5l44.3-196.9C512.6,82.6,511.6,78,508.8,74.5z M441.1,265.8H149.6L111,98.5h367.8
			L441.1,265.8z"/>
	</g>
</g>
<g>
	<g>
		<path class="st0" d="M216.6,393.8c-29.9,0-54.2,24.3-54.2,54.2s24.3,54.2,54.2,54.2c29.9,0,54.2-24.3,54.2-54.2
			S246.5,393.8,216.6,393.8z M216.6,472.6c-13.6,0-24.6-11-24.6-24.6s11-24.6,24.6-24.6c13.6,0,24.6,11,24.6,24.6
			S230.2,472.6,216.6,472.6z"/>
	</g>
</g>
<g>
	<g>
		<path class="st0" d="M393.8,393.8c-29.9,0-54.2,24.3-54.2,54.2s24.3,54.2,54.2,54.2c29.9,0,54.2-24.3,54.2-54.2
			S423.7,393.8,393.8,393.8z M393.8,472.6c-13.6,0-24.6-11-24.6-24.6s11-24.6,24.6-24.6s24.6,11,24.6,24.6S407.4,472.6,393.8,472.6z
			"/>
	</g>
</g>
</svg>
