<?xml version="1.0" encoding="utf-8"?>
<!-- Generator: Adobe Illustrator 24.0.1, SVG Export Plug-In . SVG Version: 6.00 Build 0)  -->
<svg version="1.1" id="Layer_1" xmlns="http://www.w3.org/2000/svg" xmlns:xlink="http://www.w3.org/1999/xlink" x="0px" y="0px"
	 viewBox="0 0 250 68.8" style="enable-background:new 0 0 250 68.8;" xml:space="preserve">
<style type="text/css">
	.st0{fill:none;stroke:#57A625;stroke-width:4.5433;stroke-miterlimit:10;}
	.st1{enable-background:new    ;}
	.st2{fill:#57A625;}
</style>
<path class="st0" d="M211.8,66.3H38.2C20.6,66.3,6.3,52,6.3,34.4l0,0c0-17.6,14.3-31.9,31.9-31.9h173.7c17.6,0,31.9,14.3,31.9,31.9
	l0,0C243.7,52.1,229.5,66.3,211.8,66.3z"/>
<g class="st1">
	<path class="st2" d="M39.5,43V24.7H46c6.5,0,9.8,3,9.8,8.9c0,2.9-0.9,5.1-2.7,6.8C51.4,42.2,49,43,46,43H39.5z M43.7,28.1v11.6h2
		c1.8,0,3.2-0.5,4.2-1.6c1-1.1,1.5-2.5,1.5-4.4c0-1.7-0.5-3.1-1.5-4.1c-1-1-2.4-1.5-4.2-1.5H43.7z"/>
	<path class="st2" d="M70.2,37.6h-8.5c0.1,1.9,1.3,2.8,3.6,2.8c1.4,0,2.7-0.3,3.8-1v2.9c-1.2,0.6-2.8,1-4.7,1
		c-2.1,0-3.8-0.6-4.9-1.8c-1.2-1.2-1.8-2.8-1.8-4.9c0-2.2,0.6-3.9,1.9-5.2c1.3-1.3,2.8-1.9,4.7-1.9c1.9,0,3.4,0.6,4.4,1.7
		c1,1.1,1.6,2.7,1.6,4.6V37.6z M66.4,35.2c0-1.9-0.8-2.8-2.3-2.8c-0.6,0-1.2,0.3-1.7,0.8c-0.5,0.5-0.8,1.2-0.9,2H66.4z"/>
	<path class="st2" d="M76.6,43h-4V23.7h4V43z"/>
	<path class="st2" d="M82.1,27.9c-0.7,0-1.2-0.2-1.7-0.6c-0.4-0.4-0.7-0.9-0.7-1.5c0-0.6,0.2-1.1,0.7-1.5c0.4-0.4,1-0.6,1.7-0.6
		c0.7,0,1.2,0.2,1.7,0.6c0.4,0.4,0.6,0.9,0.6,1.5c0,0.6-0.2,1.1-0.6,1.5C83.3,27.7,82.8,27.9,82.1,27.9z M84.1,43h-4V30h4V43z"/>
	<path class="st2" d="M97.4,42.6c-0.9,0.5-2.2,0.8-3.9,0.8c-2,0-3.6-0.6-4.9-1.8s-1.9-2.8-1.9-4.7c0-2.2,0.7-4,2-5.3
		c1.3-1.3,3.1-1.9,5.3-1.9c1.5,0,2.7,0.2,3.3,0.6v3.4c-0.8-0.6-1.8-0.9-2.8-0.9c-1.2,0-2.1,0.3-2.8,1s-1,1.6-1,2.8
		c0,1.2,0.3,2.1,1,2.7c0.6,0.7,1.5,1,2.7,1c1,0,2-0.3,3-0.9V42.6z"/>
	<path class="st2" d="M102.1,27.9c-0.7,0-1.2-0.2-1.7-0.6c-0.4-0.4-0.7-0.9-0.7-1.5c0-0.6,0.2-1.1,0.7-1.5c0.4-0.4,1-0.6,1.7-0.6
		c0.7,0,1.2,0.2,1.7,0.6c0.4,0.4,0.6,0.9,0.6,1.5c0,0.6-0.2,1.1-0.6,1.5C103.3,27.7,102.8,27.9,102.1,27.9z M104.1,43h-4V30h4V43z"
		/>
	<path class="st2" d="M113.7,43.4c-2.2,0-3.9-0.6-5.1-1.8c-1.2-1.2-1.9-2.9-1.9-5c0-2.2,0.6-3.9,1.9-5.1c1.3-1.2,3-1.8,5.3-1.8
		c2.2,0,3.9,0.6,5.1,1.8c1.2,1.2,1.9,2.8,1.9,4.8c0,2.2-0.6,3.9-1.9,5.1C117.7,42.7,115.9,43.4,113.7,43.4z M113.8,32.7
		c-1,0-1.7,0.3-2.2,1s-0.8,1.6-0.8,2.8c0,2.5,1,3.8,3,3.8c1.9,0,2.9-1.3,2.9-3.9C116.7,33.9,115.7,32.7,113.8,32.7z"/>
	<path class="st2" d="M135.9,43h-4v-2h-0.1c-1,1.5-2.3,2.3-4,2.3c-3,0-4.5-1.8-4.5-5.5V30h4v7.5c0,1.8,0.7,2.8,2.2,2.8
		c0.7,0,1.3-0.3,1.7-0.8c0.4-0.5,0.7-1.2,0.7-2.1V30h4V43z"/>
	<path class="st2" d="M138.4,42.7v-3.3c0.7,0.4,1.3,0.7,2,0.9c0.7,0.2,1.3,0.3,1.9,0.3c0.7,0,1.3-0.1,1.7-0.3
		c0.4-0.2,0.6-0.5,0.6-0.9c0-0.3-0.1-0.5-0.3-0.6c-0.2-0.2-0.4-0.3-0.7-0.4c-0.3-0.1-0.6-0.2-1-0.3c-0.3-0.1-0.7-0.2-1-0.3
		c-0.5-0.2-1-0.4-1.4-0.6c-0.4-0.2-0.7-0.5-1-0.8c-0.3-0.3-0.5-0.6-0.6-1s-0.2-0.9-0.2-1.4c0-0.7,0.2-1.4,0.5-1.9
		c0.3-0.5,0.7-1,1.3-1.3c0.5-0.3,1.1-0.6,1.8-0.7c0.7-0.2,1.4-0.2,2.1-0.2c0.6,0,1.2,0,1.8,0.1s1.2,0.2,1.8,0.4v3.1
		c-0.5-0.3-1.1-0.5-1.6-0.7s-1.2-0.2-1.7-0.2c-0.3,0-0.5,0-0.7,0.1c-0.2,0-0.4,0.1-0.6,0.2c-0.2,0.1-0.3,0.2-0.4,0.3
		c-0.1,0.1-0.2,0.3-0.2,0.5c0,0.2,0.1,0.4,0.2,0.6c0.2,0.2,0.4,0.3,0.6,0.4s0.5,0.2,0.8,0.3c0.3,0.1,0.6,0.2,0.9,0.3
		c0.5,0.2,1,0.4,1.5,0.6s0.8,0.5,1.1,0.8s0.5,0.6,0.7,1c0.2,0.4,0.2,0.9,0.2,1.4c0,0.8-0.2,1.4-0.5,2s-0.8,1-1.3,1.3
		c-0.6,0.3-1.2,0.6-1.9,0.8c-0.7,0.2-1.5,0.2-2.3,0.2C141,43.4,139.7,43.1,138.4,42.7z"/>
	<path class="st2" d="M171.3,28.1h-5.2v15h-4.1v-15h-5.2v-3.4h14.6V28.1z"/>
	<path class="st2" d="M182,43h-3.8v-1.9h-0.1c-0.9,1.5-2.2,2.2-3.9,2.2c-1.3,0-2.3-0.4-3-1.1s-1.1-1.7-1.1-2.9c0-2.5,1.5-4,4.5-4.4
		l3.6-0.5c0-1.4-0.8-2.1-2.3-2.1c-1.6,0-3,0.5-4.4,1.4v-3c0.6-0.3,1.3-0.5,2.3-0.8c1-0.2,1.9-0.3,2.7-0.3c3.7,0,5.6,1.9,5.6,5.6V43z
		 M178.2,37.7v-0.9l-2.4,0.3c-1.3,0.2-2,0.8-2,1.8c0,0.5,0.2,0.8,0.5,1.1c0.3,0.3,0.8,0.4,1.3,0.4c0.8,0,1.4-0.3,1.9-0.8
		C178,39.2,178.2,38.5,178.2,37.7z"/>
	<path class="st2" d="M184.3,42.7v-3.3c0.7,0.4,1.3,0.7,2,0.9c0.7,0.2,1.3,0.3,1.9,0.3c0.7,0,1.3-0.1,1.7-0.3s0.6-0.5,0.6-0.9
		c0-0.3-0.1-0.5-0.3-0.6c-0.2-0.2-0.4-0.3-0.7-0.4c-0.3-0.1-0.6-0.2-1-0.3c-0.3-0.1-0.7-0.2-1-0.3c-0.5-0.2-1-0.4-1.4-0.6
		c-0.4-0.2-0.7-0.5-1-0.8c-0.3-0.3-0.5-0.6-0.6-1c-0.1-0.4-0.2-0.9-0.2-1.4c0-0.7,0.2-1.4,0.5-1.9c0.3-0.5,0.7-1,1.3-1.3
		c0.5-0.3,1.1-0.6,1.8-0.7c0.7-0.2,1.4-0.2,2.1-0.2c0.6,0,1.2,0,1.8,0.1s1.2,0.2,1.8,0.4v3.1c-0.5-0.3-1.1-0.5-1.6-0.7
		s-1.2-0.2-1.7-0.2c-0.3,0-0.5,0-0.7,0.1c-0.2,0-0.4,0.1-0.6,0.2c-0.2,0.1-0.3,0.2-0.4,0.3c-0.1,0.1-0.2,0.3-0.2,0.5
		c0,0.2,0.1,0.4,0.2,0.6s0.4,0.3,0.6,0.4s0.5,0.2,0.8,0.3c0.3,0.1,0.6,0.2,0.9,0.3c0.5,0.2,1,0.4,1.5,0.6c0.4,0.2,0.8,0.5,1.1,0.8
		c0.3,0.3,0.5,0.6,0.7,1c0.2,0.4,0.2,0.9,0.2,1.4c0,0.8-0.2,1.4-0.5,2s-0.8,1-1.3,1.3c-0.6,0.3-1.2,0.6-1.9,0.8s-1.5,0.2-2.3,0.2
		C186.9,43.4,185.6,43.1,184.3,42.7z"/>
	<path class="st2" d="M204.6,42.9c-0.6,0.3-1.5,0.5-2.7,0.5c-2.8,0-4.3-1.5-4.3-4.4v-6h-2.1v-3h2.1v-2.8l4-1.1v4h2.9v3h-2.9v5.3
		c0,1.4,0.5,2,1.6,2c0.4,0,0.9-0.1,1.3-0.4V42.9z"/>
	<path class="st2" d="M218.6,37.6H210c0.1,1.9,1.3,2.8,3.6,2.8c1.4,0,2.7-0.3,3.8-1v2.9c-1.2,0.6-2.8,1-4.7,1
		c-2.1,0-3.8-0.6-4.9-1.8c-1.2-1.2-1.8-2.8-1.8-4.9c0-2.2,0.6-3.9,1.9-5.2s2.8-1.9,4.7-1.9c1.9,0,3.4,0.6,4.4,1.7
		c1,1.1,1.6,2.7,1.6,4.6V37.6z M214.8,35.2c0-1.9-0.8-2.8-2.3-2.8c-0.6,0-1.2,0.3-1.7,0.8s-0.8,1.2-0.9,2H214.8z"/>
</g>
</svg>
