<?xml version="1.0" encoding="utf-8"?>
<!-- Generator: Adobe Illustrator 24.0.1, SVG Export Plug-In . SVG Version: 6.00 Build 0)  -->
<svg version="1.1" id="Layer_1" xmlns="http://www.w3.org/2000/svg" xmlns:xlink="http://www.w3.org/1999/xlink" x="0px" y="0px"
	 viewBox="0 0 242 68.3" style="enable-background:new 0 0 242 68.3;" xml:space="preserve">
<style type="text/css">
	.st0{fill:#57A625;}
	.st1{fill:none;stroke:#57A625;stroke-width:4.54;stroke-miterlimit:10;}
</style>
<title>FF_lozenge-01_v2</title>
<g>
	<g>
		<path class="st0" d="M34.7,23.2c1.1,0,2.3,0.2,3.3,0.7c0.9,0.5,1.7,1.2,2.2,2.1c0.5,1,0.8,2.2,0.8,3.3c0,1.2-0.2,2.3-0.8,3.3
			c-0.5,0.9-1.3,1.7-2.2,2.1c-1,0.5-2.2,0.8-3.3,0.7h-5v7.3h-3.8V23.2H34.7z M36.5,31.4c0.5-0.6,0.8-1.3,0.8-2.1
			c0-0.8-0.2-1.5-0.8-2c-0.6-0.5-1.4-0.8-2.2-0.8h-4.6v5.6h4.6C35.1,32.3,35.9,32,36.5,31.4z"/>
	</g>
	<g>
		<path class="st0" d="M44.7,42.2c-1-0.6-1.9-1.5-2.4-2.5c-0.6-1.2-1-2.5-0.9-3.9c0-1.3,0.3-2.6,0.8-3.8c0.5-1.1,1.3-2,2.3-2.6
			c1.1-0.6,2.3-1,3.6-0.9c1.2,0,2.4,0.3,3.5,0.9c1,0.6,1.7,1.5,2.2,2.5c0.5,1.2,0.7,2.5,0.7,3.7c0,0.3,0,0.7-0.1,1.3h-9.5
			c0,0.6,0.2,1.2,0.5,1.7c0.3,0.4,0.7,0.8,1.2,1c0.4,0.3,0.9,0.4,1.5,0.4h0.2c0.6,0.1,1.1-0.1,1.6-0.4c0.4-0.3,0.7-0.8,0.8-1.3h3.6
			c-0.2,0.9-0.6,1.7-1.2,2.5c-0.6,0.7-1.3,1.3-2.1,1.6c-0.9,0.4-2,0.6-3,0.6C46.8,43.1,45.7,42.8,44.7,42.2z M50.4,32.7
			c-0.2-0.4-0.6-0.7-1-0.9c-0.4-0.2-0.9-0.3-1.4-0.3h-0.2c-0.5,0-1,0.1-1.4,0.3c-0.4,0.2-0.8,0.5-1,0.9c-0.3,0.4-0.4,0.9-0.4,1.4h6
			C50.9,33.7,50.7,33.1,50.4,32.7z"/>
	</g>
	<g>
		<path class="st0" d="M59.8,28.8v2.8c0.2-0.9,0.8-1.6,1.5-2.2c0.8-0.5,1.7-0.8,2.6-0.8h0.7v3.4h-1.3c-1-0.1-1.9,0.2-2.7,0.8
			c-0.6,0.7-0.9,1.7-0.8,2.7v7.3h-3.6v-14L59.8,28.8z"/>
	</g>
	<g>
		<path class="st0" d="M65,31.8v-2.9h2.9v-2c-0.1-1,0.3-2,0.9-2.7c0.7-0.7,1.7-1,2.7-0.9h4v3h-2.4c-0.3,0-0.7,0-1,0.1
			c-0.2,0.1-0.4,0.2-0.4,0.5c-0.1,0.3-0.2,0.7-0.1,1v1h3.3v2.9h-3.3v11.1h-3.6V31.8H65z"/>
	</g>
	<g>
		<path class="st0" d="M78.5,42.2c-1-0.6-1.9-1.5-2.4-2.5c-0.6-1.2-1-2.5-0.9-3.9c0-1.3,0.3-2.6,0.8-3.8c0.5-1.1,1.3-2,2.3-2.6
			c1.1-0.6,2.3-1,3.6-0.9c1.2,0,2.4,0.3,3.5,0.9c1,0.6,1.7,1.5,2.2,2.5c0.5,1.2,0.8,2.4,0.7,3.7c0,0.3,0,0.7-0.1,1.3h-9.5
			c0,0.6,0.2,1.2,0.5,1.7c0.3,0.4,0.7,0.8,1.2,1c0.4,0.3,0.9,0.4,1.5,0.4h0.2c0.6,0.1,1.1-0.1,1.6-0.4c0.4-0.3,0.7-0.8,0.8-1.3h3.6
			c-0.2,0.9-0.6,1.7-1.2,2.4c-0.6,0.7-1.3,1.3-2.1,1.7c-0.9,0.4-2,0.6-3,0.6C80.7,43.1,79.5,42.8,78.5,42.2z M84.3,32.7
			c-0.2-0.4-0.6-0.7-1-0.9c-0.4-0.2-0.9-0.3-1.4-0.3h-0.2c-0.5,0-1,0.1-1.4,0.3c-0.4,0.2-0.8,0.5-1,0.9c-0.3,0.4-0.4,0.9-0.4,1.4h6
			C84.7,33.6,84.6,33.1,84.3,32.7z"/>
	</g>
	<g>
		<path class="st0" d="M92.6,42.2c-1-0.6-1.9-1.5-2.4-2.5c-1.2-2.4-1.2-5.3,0-7.7c0.5-1.1,1.4-1.9,2.4-2.5c1-0.6,2.2-0.9,3.4-0.9
			c1.6-0.1,3.2,0.4,4.4,1.3c1.1,0.9,1.8,2.3,1.9,3.8h-3.6c-0.1-0.6-0.4-1.2-0.8-1.6c-0.5-0.4-1.1-0.6-1.7-0.6h-0.2
			c-0.9,0-1.8,0.4-2.2,1.2c-0.5,0.9-0.8,2-0.8,3.1c0,1.1,0.2,2.2,0.8,3.1c0.5,0.8,1.3,1.3,2.2,1.2h0.2c0.6,0,1.3-0.2,1.7-0.6
			c0.4-0.4,0.7-1,0.8-1.6h3.6c0,1.5-0.7,2.9-1.8,3.9c-1.3,0.9-2.9,1.4-4.4,1.3C94.8,43.1,93.6,42.8,92.6,42.2z"/>
	</g>
	<g>
		<path class="st0" d="M106.5,41.9c-0.7-0.7-1-1.7-0.9-2.7v-7.4h-2.9v-2.9h2.9v-4.5h3.6v4.5h3.1v2.9h-3.1v6.4c0,0.3,0,0.7,0.1,1
			c0.1,0.2,0.2,0.4,0.4,0.4c0.3,0.1,0.7,0.1,1,0.1h2v3.1h-3.6C108.2,42.9,107.2,42.6,106.5,41.9z"/>
	</g>
	<g>
		<path class="st0" d="M129,23.2c1.1,0,2.3,0.2,3.3,0.7c0.9,0.5,1.7,1.2,2.2,2.1c0.5,1,0.8,2.2,0.8,3.3c0,1.2-0.2,2.3-0.8,3.3
			c-0.5,0.9-1.3,1.7-2.2,2.1c-1,0.5-2.2,0.8-3.3,0.7h-5v7.3h-3.8V23.2H129z M130.8,31.4c0.5-0.6,0.8-1.3,0.8-2.1
			c0-0.8-0.2-1.5-0.8-2c-0.6-0.5-1.4-0.8-2.2-0.8H124v5.6h4.6C129.4,32.3,130.2,32,130.8,31.4z"/>
	</g>
	<g>
		<path class="st0" d="M138.9,42.2c-1.1-0.6-1.9-1.5-2.5-2.6c-1.2-2.4-1.2-5.1,0-7.5c0.6-1.1,1.4-2,2.5-2.6c2.3-1.2,5-1.2,7.3,0
			c1.1,0.6,1.9,1.5,2.5,2.6c1.2,2.4,1.2,5.1,0,7.5c-0.6,1.1-1.4,2-2.5,2.6C143.9,43.4,141.2,43.4,138.9,42.2z M144.4,39.7
			c0.5-0.4,0.9-0.9,1.1-1.5c0.5-1.5,0.5-3.2,0-4.7c-0.2-0.6-0.6-1.1-1.1-1.5c-0.5-0.3-1.1-0.5-1.7-0.5h-0.2c-0.6,0-1.2,0.2-1.7,0.5
			c-0.5,0.4-0.9,0.9-1.1,1.5c-0.5,1.5-0.5,3.2,0,4.7c0.2,0.6,0.6,1.1,1.1,1.5c0.5,0.3,1.1,0.5,1.7,0.5h0.2
			C143.3,40.2,143.9,40,144.4,39.7z"/>
	</g>
	<g>
		<path class="st0" d="M154.9,28.8v2.8c0.2-0.9,0.8-1.6,1.5-2.2c0.8-0.5,1.7-0.8,2.6-0.8h0.7v3.4h-1.3c-1-0.1-1.9,0.2-2.6,0.8
			c-0.6,0.7-0.9,1.7-0.9,2.7v7.3h-3.6v-14H154.9z"/>
	</g>
	<g>
		<path class="st0" d="M163.9,41.9c-0.7-0.7-1-1.7-0.9-2.7v-7.4h-2.9v-2.9h2.9v-4.5h3.6v4.5h3.1v2.9h-3.1v6.4c0,0.3,0,0.7,0.1,1
			c0.1,0.2,0.2,0.4,0.4,0.4c0.3,0.1,0.7,0.1,1,0.1h2v3.1h-3.6C165.7,42.9,164.7,42.6,163.9,41.9z"/>
	</g>
	<g>
		<path class="st0" d="M171.3,23.2h3.9V27h-3.9V23.2z M171.4,28.8h3.6v14h-3.6V28.8z"/>
	</g>
	<g>
		<path class="st0" d="M180,42.2c-1.1-0.6-1.9-1.5-2.5-2.6c-1.2-2.4-1.2-5.1,0-7.5c0.6-1.1,1.4-2,2.5-2.6c2.3-1.2,5-1.2,7.3,0
			c1.1,0.6,1.9,1.5,2.5,2.6c1.2,2.4,1.2,5.1,0,7.5c-0.6,1.1-1.4,2-2.5,2.6C185,43.4,182.3,43.4,180,42.2z M185.5,39.7
			c0.5-0.4,0.9-0.9,1.1-1.5c0.5-1.5,0.5-3.2,0-4.7c-0.2-0.6-0.6-1.1-1.1-1.5c-0.5-0.3-1.1-0.5-1.7-0.5h-0.2c-0.6,0-1.2,0.2-1.7,0.5
			c-0.5,0.4-0.9,0.9-1.1,1.5c-0.5,1.5-0.5,3.2,0,4.7c0.2,0.6,0.6,1.1,1.1,1.5c0.5,0.3,1.1,0.5,1.7,0.5h0.2
			C184.4,40.2,185,40,185.5,39.7L185.5,39.7z"/>
	</g>
	<g>
		<path class="st0" d="M196,28.8v2c0.4-0.7,1-1.3,1.8-1.7c0.8-0.4,1.6-0.6,2.5-0.6c1.4-0.1,2.7,0.4,3.6,1.5c0.9,1.1,1.3,2.5,1.2,3.9
			v9h-3.6v-8.6c0.1-0.7-0.2-1.5-0.6-2.1c-0.4-0.5-1-0.7-1.6-0.7H199c-0.5,0-1.1,0.2-1.5,0.5c-0.5,0.3-0.9,0.8-1.1,1.3
			c-0.3,0.6-0.4,1.2-0.4,1.8v7.8h-3.6v-14H196z"/>
	</g>
	<g>
		<path class="st0" d="M209.3,42.5c-0.9-0.3-1.6-0.9-2.1-1.7c-0.5-0.8-0.8-1.7-0.7-2.6h3.7c0,0.6,0.2,1.1,0.6,1.5
			c0.5,0.4,1.1,0.6,1.7,0.6h0.2c0.5,0,1-0.1,1.4-0.4c0.3-0.2,0.5-0.6,0.5-1c0-0.3-0.1-0.6-0.4-0.9c-0.3-0.3-0.7-0.5-1.1-0.5
			l-1.8-0.5c-1.2-0.2-2.3-0.8-3.3-1.5c-0.7-0.7-1.1-1.7-1-2.7c0-0.8,0.2-1.6,0.7-2.2c0.5-0.7,1.2-1.2,2-1.5c2-0.7,4.1-0.7,6.1,0
			c0.8,0.3,1.5,0.9,2,1.6c0.5,0.8,0.7,1.6,0.7,2.5h-3.6c0-0.5-0.3-1-0.6-1.4c-0.4-0.4-0.9-0.6-1.5-0.5h-0.2c-0.5,0-0.9,0.1-1.3,0.3
			c-0.3,0.2-0.5,0.6-0.5,1c0,0.3,0.2,0.7,0.5,0.9c0.4,0.3,0.9,0.5,1.4,0.6l1.9,0.5c1.1,0.2,2.2,0.7,3,1.5c0.7,0.7,1,1.7,0.9,2.7
			c0,0.8-0.2,1.5-0.7,2.2c-0.5,0.7-1.2,1.2-1.9,1.5c-1,0.4-2.1,0.6-3.1,0.6C211.5,43.1,210.4,42.9,209.3,42.5z"/>
	</g>
</g>
<path class="st1" d="M34.2,2.3h173.7c17.6,0,31.9,14.3,31.9,31.9l0,0l0,0c0,17.6-14.3,31.9-31.9,31.9H34.2
	c-17.6,0-31.9-14.3-31.9-31.9c0,0,0,0,0,0l0,0C2.3,16.6,16.5,2.3,34.2,2.3C34.2,2.3,34.2,2.3,34.2,2.3z"/>
</svg>
