<?xml version="1.0" encoding="utf-8"?>
<!-- Generator: Adobe Illustrator 24.0.1, SVG Export Plug-In . SVG Version: 6.00 Build 0)  -->
<svg version="1.1" id="Capa_1" xmlns="http://www.w3.org/2000/svg" xmlns:xlink="http://www.w3.org/1999/xlink" x="0px" y="0px"
	 viewBox="0 0 512 512" style="enable-background:new 0 0 512 512;" xml:space="preserve">
<style type="text/css">
	.st0{fill:#FFE7CF;}
	.st1{fill:#F4D5BA;}
	.st2{fill:#FFFFFF;stroke:#000000;stroke-width:15;stroke-linecap:round;stroke-linejoin:round;stroke-miterlimit:10;}
	.st3{fill:#1CADAD;}
	.st4{fill:#D0D1D2;}
	.st5{fill:#8FC741;}
	.st6{fill:#E1EFFB;}
	.st7{fill:#CADDEA;}
	.st8{fill:#44798C;}
	.st9{fill:#1785B8;}
	.st10{fill:#2C5871;}
	.st11{fill:#FFB125;}
	.st12{fill:#FF901D;}
</style>
<path class="st0" d="M291.6,360.5l54.4-51.1l-21.6-4c-10.4-2.1-17.9-14.2-17.9-24.8v-47.4H256l0,0h-50.5v47.4
	c0,10.6-7.5,22.7-17.9,24.8l-21.6,4l54.4,51.1C240.4,379.3,271.6,379.3,291.6,360.5z"/>
<path class="st1" d="M282,233.2V305c0,10.6,7.5,22.7,17.9,24.8l18.6,5.3l27.4-25.8l-21.6-4c-10.4-2.1-17.9-14.2-17.9-24.8v-47.4
	L282,233.2L282,233.2z"/>
<path class="st2" d="M249.2,469.2L249.2,469.2L249.2,469.2z"/>
<path class="st3" d="M319,302.8l-63,47.1l-63-47.1c-3.4-2.5-7.8-3.3-11.8-2.1l-105.9,32c-11.4,3.4-19.9,13-21.9,24.8L30,494
	c-1.6,9.4,5.6,18,15.2,18h421.6c9.5,0,16.8-8.6,15.2-18l-23.3-136.6c-2-11.7-10.5-21.3-21.9-24.8l-105.9-32
	C326.8,299.5,322.4,300.2,319,302.8z"/>
<g>
	<path class="st4" d="M181.2,300.7l-18.2,5.5l40.2,56.3c3.2,4.4,9,6.1,14,3.9l38.9-16.5l0,0l-63-47.1
		C189.6,300.2,185.2,299.5,181.2,300.7z"/>
	<path class="st4" d="M294.9,366.4c5,2.1,10.8,0.5,14-3.9l40.2-56.3l-0.1,0l-18.1-5.5c-4-1.2-8.4-0.4-11.8,2.1l-63,47.1l0,0l0,0
		L294.9,366.4z"/>
</g>
<g>
	<polygon class="st5" points="256,349.9 225.4,362.9 243.3,383.6 268.7,383.6 286.6,362.9 	"/>
	<polygon class="st5" points="268.7,383.6 256,383.6 243.3,383.6 219.9,512 292.1,512 	"/>
</g>
<path class="st6" d="M256,488.2c0,0-70.8-188.7-74.8-187.5l-105.9,32c-11.4,3.4-19.9,13-21.9,24.8L30,494c-1.6,9.4,5.6,18,15.2,18
	h421.6c9.5,0,16.8-8.6,15.2-18l-23.3-136.6c-2-11.7-10.5-21.3-21.9-24.8l-105.9-32C326.8,299.5,256,488.2,256,488.2z"/>
<path class="st7" d="M482,494l-23.3-136.6c-2-11.7-10.5-21.3-21.9-24.8l-105.9-32c-1.1-0.3-7.1,13.4-15.3,33.5l76.8,23.2
	c5.8,1.8,10.1,6.6,11.1,12.6l24.3,142h39.1C476.3,512,483.6,503.4,482,494z"/>
<g>
	<path class="st8" d="M368.6,405.3c-4.3,0-7.7-3.5-7.7-7.7v-87.7c0-29.3-22.9-53.3-52.1-54.7c-4.3-0.2-7.6-3.8-7.4-8.1
		s3.8-7.5,8.1-7.4c37.5,1.8,66.9,32.6,66.9,70.1v87.7C376.3,401.9,372.9,405.3,368.6,405.3z"/>
	<path class="st8" d="M143.4,348.2c-4.3,0-7.7-3.5-7.7-7.7v-30.5c0-37.5,29.3-68.3,66.7-70.1c4.3-0.2,7.9,3.1,8.1,7.3
		c0.2,4.3-3.1,7.9-7.3,8.1c-29.2,1.5-52,25.5-52,54.7v30.5C151.1,344.7,147.7,348.2,143.4,348.2z"/>
</g>
<circle class="st9" cx="368.5" cy="402.7" r="32.2"/>
<circle class="st6" cx="368.5" cy="402.7" r="14.2"/>
<path class="st10" d="M169,465.9h-9.6c-4.3,0-7.7-3.5-7.7-7.7s3.5-7.7,7.7-7.7h9.6c1.2,0,2.3-0.5,3.1-1.3c0.8-0.9,1.2-2,1.1-3.2
	l-5.6-72.2c-0.2-2.6-0.8-5.1-1.8-7.4c-3.6-8.4-12-13.8-21.6-13.8c-0.1,0-0.1,0-0.2,0l-1.3,0c-9.8,0.1-18.6,6.1-21.9,14.9
	c-0.8,2-1.2,4.2-1.4,6.4l-5.6,72.2c-0.1,1.2,0.3,2.3,1.1,3.2c0.8,0.9,1.9,1.3,3.1,1.3h9.6c4.3,0,7.7,3.5,7.7,7.7s-3.5,7.7-7.7,7.7
	H118c-5.5,0-10.7-2.3-14.4-6.3c-3.7-4-5.6-9.4-5.2-14.9l5.6-72.2c0.3-3.6,1.1-7.1,2.3-10.5c5.5-14.8,20-24.9,36.3-25l1.3,0
	c0.1,0,0.2,0,0.3,0c15.8,0,29.8,9.1,35.8,23.3c1.7,3.9,2.7,8,3,12.2l5.6,72.2c0.4,5.4-1.5,10.9-5.2,14.9
	C179.7,463.6,174.4,465.9,169,465.9z"/>
<g>
	<path class="st1" d="M166.9,163.5v-28.9h-17.6c-8.4,0-15.2,6.8-15.2,15.2v11.7c0,8.4,6.8,15.2,15.2,15.2h17.6V163.5z"/>
	<path class="st1" d="M362.7,134.6h-17.6v28.9v13.2h17.6c8.4,0,15.2-6.8,15.2-15.2v-11.7C377.9,141.4,371.1,134.6,362.7,134.6z"/>
</g>
<path class="st0" d="M320.8,36.2c-15.2-13.1-36.6-12.2-64.8-12.6c-28.2,0.3-49.6-0.5-64.8,12.6c-19.4,16.7-29.9,41.5-29.9,67.1v74.4
	c0,25.6,32.2,93.5,94.7,93.5s94.7-67.9,94.7-93.5v-74.4C350.7,77.7,340.2,52.9,320.8,36.2z"/>
<path class="st1" d="M320.8,36.2c-6-5.2-13.1-8.2-21.1-9.9c0,0,0,0.1,0,0.1v151.3c0,21.8-23.4,74.5-69.2,89.4c7.8,2.6,16.3,4,25.5,4
	c62.5,0,94.7-67.9,94.7-93.5v-74.4C350.7,77.7,340.2,52.9,320.8,36.2z"/>
<path class="st11" d="M313,0h-57h-57c-29.3,0-53.1,23.8-53.1,53.1v87.1c0,0,14.6-0.3,24,9c2,1.9,5.3,0.5,5.3-2.2V75.7
	c0-13,10.5-23.5,23.5-23.5H220c5.6,0,11,1.9,15.3,5.5l2.1,1.7c5.2,4.3,11.8,6.6,18.5,6.6c6.8,0,13.3-2.3,18.5-6.6l2.1-1.7
	c4.3-3.5,9.7-5.5,15.3-5.5h21.3c13,0,23.5,10.5,23.5,23.5V147c0,2.8,3.3,4.2,5.3,2.2c9.4-9.3,24-9,24-9V53.1
	C366.1,23.8,342.3,0,313,0z"/>
<path class="st12" d="M313,0h-51c29,0,52.6,23.3,53.1,52.3c12.1,0.9,21.7,11,21.7,23.4V147c0,2.8,3.3,4.2,5.3,2.2c9.4-9.3,24-9,24-9
	V53.1C366.1,23.8,342.3,0,313,0z"/>
</svg>
