<svg id="Capa_1" enable-background="new 0 0 512 512" height="512" viewBox="0 0 512 512" width="512" xmlns="http://www.w3.org/2000/svg"><g><path d="m256 22c-135.31 0-245 109.69-245 245 0 37.082 8.254 72.231 23 103.734l1 .192v-3.823c0-6.122 4.981-11.103 11.103-11.103h5.882v-79c0-2.206 1.794-4 4-4h28.815v-4c0-2.206 1.794-4 4-4h74.186c2.206 0 4 1.794 4 4v4h28.814c2.206 0 4 1.794 4 4v34.916h167.41c30.576 0 55.451 24.876 55.451 55.452v78.067l1 .192c47.598-44.694 77.339-108.183 77.339-178.627 0-135.31-109.69-245-245-245z" fill="#c4e2ff"/><g><g><path d="m111.373 245.476c4.024-2.215 8.612-3.476 13.427-3.476h2.186c13.16 0 24.677 9.339 27.386 22.206l.167.794h8.447c2.206 0 4 1.794 4 4v4h26.159l-1.862-1.732c-19.274-17.931-30.329-43.299-30.329-69.601v-44.392c0-4.962 4.038-9 9-9h57.523c17.358 0 33.359-8.697 42.799-23.265l25.799-39.814c1.667-2.571 4.49-4.105 7.554-4.105h2.138c24.967 0 45.279 20.312 45.279 45.279v75.297c0 30.687-14.944 59.649-39.976 77.475l-.969.69 32.488 32.083h24.62c6.198 0 12.156 1.038 17.726 2.923 10.664-14.546 17.065-33.109 17.065-53.338 0-14.881-3.472-28.856-9.546-41 6.074-12.144 9.546-26.119 9.546-41 0-23.292-8.478-44.382-22.188-59.667v-.595c0-65.853-53.385-119.238-119.238-119.238h-9.148c-65.853 0-119.238 53.385-119.238 119.238v.595c-13.71 15.285-22.188 36.375-22.188 59.667 0 14.881 3.472 28.856 9.546 41-3.837 7.672-6.632 16.076-8.173 24.976z" fill="#883f2e"/></g><g><path d="m260.574 0h-9.148c-65.853 0-119.238 53.385-119.238 119.238v.595c-13.71 15.285-22.188 36.375-22.188 59.667 0 14.881 3.472 28.856 9.546 41-3.649 7.296-6.351 15.257-7.933 23.674 3.957-2.024 8.436-3.174 13.186-3.174h2.186c13.959 0 25.611 9.863 28.375 23h4.685c-.022-.832-.045-1.663-.045-2.5 0-9.66 1.471-18.933 4.159-27.576h-7.976c-15.902 0-28.793-12.891-28.793-28.793v-16.612c0-15.902 12.891-28.793 28.793-28.793h3.771v-2.45c0-3.855 2.185-7.195 5.38-8.864 3.844-10.789 9.608-20.5 16.854-28.579v-.595c0-58.889 42.692-107.8 98.812-117.488-6.638-1.146-13.461-1.75-20.426-1.75z" fill="#6d3326"/></g><path d="m367.21 310.916h-167.41v155.084c0 2.206-1.794 4-4 4h-76.983c39.141 26.508 86.35 42 137.183 42 64.865 0 123.833-25.219 167.661-66.373v-78.259c0-31.178-25.274-56.452-56.451-56.452z" fill="#fe99a0"/><g fill="#fe646f"><path d="m217.059 288.394c-5.679-2.554-11.014-5.638-15.977-9.159l-1.282 1.265v96.648l17.849 38.383v-126.872z"/><path d="m294.94 288.394-.59.265v126.873l48.65-104.616-32.082-31.682c-4.963 3.522-10.298 6.606-15.978 9.16z"/></g><g fill="#fd8087"><path d="m347.716 389.975-53.365-39.586v158.595c.714-.112 1.43-.216 2.141-.334l52.772-112.536c1.01-2.155.362-4.722-1.548-6.139z"/><path d="m199.8 363.63v102.37c0 1.692-1.06 3.134-2.549 3.718l18.257 38.932c.711.118 1.428.222 2.141.334v-158.595z"/></g><path d="m295.351 319-35.145 54.693c-1.968 3.063-6.445 3.063-8.413 0l-35.144-54.693v189.839c12.813 2.069 25.954 3.161 39.351 3.161s26.538-1.092 39.351-3.161z" fill="#fff"/><path d="m216.649 319v189.839c8.312 1.342 16.765 2.257 25.333 2.743v-153.158c-10.196-15.867-25.333-39.424-25.333-39.424z" fill="#eaf6ff"/><path d="m256 296.713c-14.028 0-27.354-3.057-39.351-8.536v30.823l35.145 54.693c1.968 3.063 6.445 3.063 8.413 0l35.144-54.693v-30.823c-11.997 5.479-25.323 8.536-39.351 8.536z" fill="#ffbd86"/><path d="m248 297.379c-11.091-.915-21.649-3.71-31.351-8.073v29.694l35.145 54.693c1.968 3.063 6.445 3.063 8.413 0l14.759-22.968-26.966-41.964z" fill="#f6a96c"/><g><g><path d="m160.954 201.667v-41.942h-4.771c-15.902 0-28.793 12.891-28.793 28.793v16.612c0 15.902 12.891 28.793 28.793 28.793h10.411c-3.647-10.075-5.64-20.937-5.64-32.256z" fill="#f6a96c"/><path d="m355.817 159.726h-4.771v41.942c0 11.319-1.993 22.18-5.639 32.257h10.41c15.902 0 28.793-12.891 28.793-28.793v-16.612c.001-15.903-12.891-28.794-28.793-28.794z" fill="#ffbd86"/></g><g><g><circle cx="365" cy="227.5" fill="#fff" r="11.5"/></g><path d="m364 227.5c0-4.458 2.542-8.315 6.25-10.224-1.575-.811-3.357-1.276-5.25-1.276-6.351 0-11.5 5.149-11.5 11.5s5.149 11.5 11.5 11.5c1.893 0 3.675-.466 5.25-1.276-3.708-1.909-6.25-5.766-6.25-10.224z" fill="#eaf6ff"/><g><circle cx="147" cy="227.5" fill="#fff" r="11.5"/></g><path d="m145 227.5c0-4.655 2.772-8.655 6.75-10.464-1.449-.659-3.054-1.036-4.75-1.036-6.351 0-11.5 5.149-11.5 11.5s5.149 11.5 11.5 11.5c1.696 0 3.301-.376 4.75-1.036-3.978-1.809-6.75-5.809-6.75-10.464z" fill="#eaf6ff"/></g><g><path d="m305.766 80.091h-2.137c-3.39 0-6.549 1.717-8.392 4.562l-25.8 39.814c-9.217 14.223-25.012 22.809-41.96 22.809h-57.523c-5.523 0-10 4.477-10 10v44.392c0 53.045 43.001 96.046 96.046 96.046 53.045 0 96.046-43.001 96.046-96.046v-75.298c0-25.559-20.72-46.279-46.28-46.279z" fill="#fed2a4"/></g><g><path d="m187.908 201.667v-44.392c0-5.523 4.477-10 10-10h-27.954c-5.523 0-10 4.477-10 10v44.392c0 53.045 43.001 96.046 96.046 96.046 4.748 0 9.414-.35 13.977-1.016-46.419-6.768-82.069-46.733-82.069-95.03z" fill="#ffbd86"/></g><g><g><circle cx="205.132" cy="177.029" fill="#ca6e59" r="14.397"/></g><g><circle cx="306.934" cy="177.029" fill="#ca6e59" r="14.397"/></g><g><path d="m328.147 155.5c-1.919 0-3.839-.732-5.303-2.197-8.772-8.771-23.047-8.773-31.821 0-2.929 2.929-7.678 2.929-10.606 0s-2.929-7.678.001-10.606c14.621-14.622 38.411-14.621 53.032 0 2.93 2.929 2.93 7.677.001 10.606-1.465 1.465-3.385 2.197-5.304 2.197z" fill="#ca6e59"/></g></g><g><path d="m255.999 221.96c-1.833 0-3.67-.668-5.116-2.017l-14.397-13.437c-2.43-2.268-3.078-5.864-1.591-8.837l14.397-28.793c1.853-3.705 6.355-5.207 10.063-3.354 3.704 1.852 5.206 6.357 3.354 10.062l-11.89 23.781 10.299 9.613c3.028 2.826 3.192 7.572.366 10.6-1.478 1.582-3.479 2.382-5.485 2.382z" fill="#ca6e59"/></g></g></g><g><g><path d="m195.8 272h-28.814v19c0 2.206-1.794 4-4 4h-74.187c-2.206 0-4-1.794-4-4v-19h-28.813c-2.761 0-5 2.239-5 5v189c0 2.761 2.239 5 5 5h139.814c2.761 0 5-2.239 5-5v-189c0-2.761-2.239-5-5-5z" fill="#f6a96c"/><g fill="#ea9b58"><path d="m65.986 355v-63c0-2.761 2.239-5 5-5h12.814v-15h-27.814c-2.761 0-5 2.239-5 5v78z"/><path d="m88 466v-10h-17.014c-2.761 0-5-2.239-5-5v-17.451h-15v32.451c0 2.761 2.239 5 5 5h37.014c-2.761 0-5-2.239-5-5z"/></g><path d="m180.8 287h-13.814v4c0 2.206-1.794 4-4 4h-74.187c-2.206 0-4-1.794-4-4v-4h-13.813c-2.761 0-5 2.239-5 5v159c0 2.761 2.239 5 5 5h109.814c2.761 0 5-2.239 5-5v-159c0-2.761-2.239-5-5-5z" fill="#fff"/><path d="m92 451v-155h-3.2c-2.761 0-5-2.239-5-5v-4h-12.814c-2.761 0-5 2.239-5 5v159c0 2.761 2.239 5 5 5h26.014c-2.761 0-5-2.239-5-5z" fill="#eaf6ff"/><path d="m155.547 265c-2.37-13.632-14.251-24-28.562-24h-2.186c-14.31 0-26.191 10.368-28.562 24z" fill="#fff"/><path d="m116.645 264c2.144-10.172 9.6-18.383 19.348-21.566-2.836-.926-5.862-1.434-9.007-1.434h-2.186c-13.959 0-25.611 9.863-28.375 23z" fill="#eaf6ff"/><g><path d="m162.986 296h-74.186c-2.761 0-5-2.239-5-5v-22c0-2.761 2.239-5 5-5h74.186c2.761 0 5 2.239 5 5v22c0 2.761-2.239 5-5 5z" fill="#fedf30"/></g><path d="m103.314 281.5c-2.761 0-5-2.239-5-5v-12.5h-9.514c-2.761 0-5 2.239-5 5v22c0 2.761 2.239 5 5 5h74.186c2.761 0 5-2.239 5-5v-9.5z" fill="#fed402"/></g><g><g><path d="m105.691 334.559c7.297 7.297 17.034 10.657 26.584 10.095 1.035-.061 1.853-.88 1.914-1.914.562-9.55-2.799-19.287-10.095-26.584-7.297-7.297-17.034-10.657-26.584-10.095-1.035.061-1.853.88-1.914 1.914-.562 9.55 2.798 19.287 10.095 26.584z" fill="#81b823"/></g><g><path d="m127.691 323.872c-7.297 7.297-10.657 17.034-10.095 26.584.061 1.035.88 1.853 1.914 1.914 9.55.562 19.287-2.799 26.584-10.095 7.297-7.297 10.657-17.034 10.095-26.584-.061-1.035-.88-1.853-1.914-1.914-9.55-.562-19.287 2.798-26.584 10.095z" fill="#97d729"/></g></g><g><g><g><path d="m112.814 383.5h-10c-4.142 0-7.5-3.358-7.5-7.5s3.358-7.5 7.5-7.5h10c4.142 0 7.5 3.358 7.5 7.5s-3.358 7.5-7.5 7.5z" fill="#d8ecfe"/></g><g><path d="m112.814 407h-10c-4.142 0-7.5-3.358-7.5-7.5s3.358-7.5 7.5-7.5h10c4.142 0 7.5 3.358 7.5 7.5s-3.358 7.5-7.5 7.5z" fill="#d8ecfe"/></g><g><path d="m112.814 430.5h-10c-4.142 0-7.5-3.358-7.5-7.5s3.358-7.5 7.5-7.5h10c4.142 0 7.5 3.358 7.5 7.5s-3.358 7.5-7.5 7.5z" fill="#d8ecfe"/></g></g><g><g><path d="m165.814 383.5h-32c-4.142 0-7.5-3.358-7.5-7.5s3.358-7.5 7.5-7.5h32c4.142 0 7.5 3.358 7.5 7.5s-3.358 7.5-7.5 7.5z" fill="#d8ecfe"/></g><g><path d="m165.814 407h-32c-4.142 0-7.5-3.358-7.5-7.5s3.358-7.5 7.5-7.5h32c4.142 0 7.5 3.358 7.5 7.5s-3.358 7.5-7.5 7.5z" fill="#d8ecfe"/></g><g><path d="m165.814 430.5h-32c-4.142 0-7.5-3.358-7.5-7.5s3.358-7.5 7.5-7.5h32c4.142 0 7.5 3.358 7.5 7.5s-3.358 7.5-7.5 7.5z" fill="#d8ecfe"/></g></g></g><g><path d="m78.722 433.549c5.23 0 9.796-3.946 10.134-9.165.37-5.719-4.158-10.472-9.797-10.472 5.423 0 9.819-4.396 9.819-9.819s-4.396-9.819-9.819-9.819c5.423 0 9.819-4.396 9.819-9.819s-4.396-9.819-9.819-9.819c5.639 0 10.168-4.754 9.797-10.472-.339-5.218-4.905-9.164-10.134-9.164h-32.619c-6.684 0-12.103 5.419-12.103 12.103v54.343c0 6.684 5.419 12.103 12.103 12.103z" fill="#fed2a4"/></g><path d="m55 421.446v-54.343c0-6.684 5.419-12.103 12.103-12.103h-21c-6.684 0-12.103 5.419-12.103 12.103v54.343c0 6.684 5.419 12.103 12.103 12.103h21c-6.684 0-12.103-5.419-12.103-12.103z" fill="#ffbd86"/></g><g><path d="m230.486 238c-3.164 0-5.514 2.9-4.905 6.005 2.796 14.247 15.352 24.995 30.419 24.995s27.623-10.748 30.419-24.995c.609-3.105-1.741-6.005-4.905-6.005z" fill="#fe99a0"/></g><path d="m246.097 244.005c-.609-3.105 1.741-6.005 4.905-6.005h-20.516c-3.164 0-5.514 2.899-4.905 6.005 2.796 14.247 15.352 24.995 30.419 24.995 3.596 0 7.046-.618 10.258-1.745-10.244-3.591-18.033-12.404-20.161-23.25z" fill="#fd8087"/></g></svg>