<?xml version="1.0" encoding="utf-8"?>
<!-- Generator: Adobe Illustrator 24.0.1, SVG Export Plug-In . SVG Version: 6.00 Build 0)  -->
<svg version="1.1" id="Capa_1" xmlns="http://www.w3.org/2000/svg" xmlns:xlink="http://www.w3.org/1999/xlink" x="0px" y="0px"
	 viewBox="0 0 512 512" style="enable-background:new 0 0 512 512;" xml:space="preserve">
<style type="text/css">
	.st0{fill:#FFFFFF;}
</style>
<g>
	<g>
		<g>
			<path class="st0" d="M386.3,111.8c3.5,2.4,8.3,2.2,11.6-0.4c3.2-2.4,4.6-6.7,3.6-10.5c-1.1-4.1-4.8-7.2-9.1-7.4
				c-4.2-0.2-8.3,2.4-9.8,6.3C380.8,104.1,382.4,109.3,386.3,111.8L386.3,111.8z"/>
			<path class="st0" d="M429.8,131.8c-3.3-4.4-9.6-5.3-14-1.9c-4.4,3.3-5.3,9.6-1.9,14c39.5,52.1,61.1,113.9,62.6,179l-38.8,12.3
				c-4.1-29.5-10.7-57-19.6-81.9c0,0,0,0,0,0c-9.1-25.4-20.9-48.8-35-69.4c0,0,0,0,0,0C335.7,114.5,260.3,72.4,158.8,58.5l12.4-38.4
				c65.5,1.5,127.6,22.7,180.1,61.8c1.8,1.3,3.9,2,6,2c3.1,0,6.1-1.4,8-4c3.3-4.4,2.4-10.7-2.1-14C305.4,22.7,236.4,0,163.9,0
				c-4.3,0-8.2,2.8-9.5,6.9L77.6,245.2l-26.5,82.3c0,0.1,0,0.1,0,0.2l-34,105.5c-3.9,12.1-0.7,25.3,8.3,34.4
				c9.1,9.1,22.4,12.4,34.8,8.5l146.2-46.4v40.1c0,22.7,18.3,41.7,40.7,42.3c0.4,0,0.8,0,1.2,0c11,0,21.4-4.2,29.3-11.9
				c8.1-7.9,12.6-18.5,12.6-29.8V403l52.5-16.7v45.4c0,19.4,15.9,35.2,35.4,35.2c9.4,0,18.3-3.7,25-10.3
				c6.7-6.7,10.4-15.5,10.4-24.9v-67.8l76.1-24.2c4.2-1.3,7-5.2,7-9.5C496.6,257.9,473.5,189.3,429.8,131.8L429.8,131.8z
				 M370.6,201.4c10.1,15.7,18.8,33,25.9,51.6c-4.2,2.3-8.9,3.5-13.7,3.5c-15.9,0-28.9-13-28.9-28.9
				C354,216.2,360.7,206,370.6,201.4L370.6,201.4z M103.4,312c-8,8-18.9,11.9-29.8,11.1l22.7-70.3c2.6,1.6,5,3.4,7.1,5.6
				c7.2,7.2,11.2,16.7,11.2,26.8C114.6,295.3,110.6,304.8,103.4,312z M70.6,451.7c0.1-15.6,12.9-28.3,28.5-28.3
				c9.3,0,17.9,4.6,23.1,11.9L70.6,451.7z M232.8,394.9c-14.6,14.5-38.4,14.5-53,0c-7.1-7-10.9-16.3-10.9-26.2
				c0-9.9,3.9-19.2,10.9-26.2c7.3-7.3,16.9-10.9,26.5-10.9s19.2,3.6,26.5,10.9c7.1,7,10.9,16.3,10.9,26.2
				C243.7,378.6,239.9,387.9,232.8,394.9L232.8,394.9z M400.5,347c-4.2,1.3-7,5.2-7,9.5v75.2c0,4-1.6,7.9-4.5,10.7
				c-2.9,2.9-6.8,4.5-10.9,4.5c-8.5,0-15.4-6.8-15.4-15.2v-59c0-3.2-1.5-6.2-4.1-8.1c-2.6-1.9-5.9-2.4-8.9-1.5l-72.5,23
				c-4.2,1.3-7,5.2-7,9.5v74.6c0,5.9-2.3,11.3-6.5,15.4c-4.3,4.2-9.9,6.4-16,6.2c-11.7-0.3-21.3-10.3-21.3-22.3v-47.4
				c7.5-2.8,14.6-7.1,20.6-13.1c0,0,0,0,0,0c10.9-10.8,16.9-25.1,16.9-40.4c0-15.3-6-29.6-16.9-40.4c-22.4-22.2-58.8-22.2-81.2,0
				c-10.9,10.8-16.9,25.1-16.9,40.4c0,15.3,6,29.6,16.9,40.4c3.5,3.5,7.3,6.4,11.4,8.8l-35.2,11.2c-8.3-15.5-24.7-25.6-42.8-25.6
				c-26.8,0-48.5,21.8-48.5,48.5c0,1.9,0.1,3.8,0.3,5.6c-4.2,0.4-8.3-1.1-11.4-4.2c-3.8-3.8-5-9.1-3.4-14.1l31.2-96.8
				c3,0.5,6,0.7,9.1,0.7c15.2,0,29.9-5.9,41.1-17c11-11,17.1-25.5,17.1-41c0-15.5-6.1-30.1-17.1-41c-4.4-4.4-9.5-8-15-10.8
				l50.1-155.5c92.2,12,161.5,47.9,206.5,107c-15.1,8.5-25.1,24.7-25.1,42.7c0,27,21.9,48.9,48.9,48.9c7.1,0,14-1.5,20.4-4.4
				c6.8,21.4,11.8,44.6,15.1,69.4L400.5,347z"/>
			<path class="st0" d="M269.8,169.3c0-16.1-6.3-31.2-17.8-42.6c-23.6-23.4-62-23.4-85.6,0c-11.5,11.4-17.8,26.5-17.8,42.6
				c0,16.1,6.3,31.2,17.8,42.6c11.8,11.7,27.3,17.6,42.8,17.6s31-5.9,42.8-17.6C263.5,200.5,269.8,185.4,269.8,169.3L269.8,169.3z
				 M237.9,197.7c-15.8,15.7-41.6,15.7-57.4,0c-7.6-7.6-11.8-17.7-11.8-28.4s4.2-20.8,11.8-28.4c7.9-7.8,18.3-11.8,28.7-11.8
				c10.4,0,20.8,3.9,28.7,11.8c7.6,7.6,11.8,17.7,11.8,28.4C249.8,180,245.6,190.1,237.9,197.7z"/>
			<path class="st0" d="M308.9,255.1c-20.3-21-54.1-21.4-75.2-1c-1.9,1.8-3,4.4-3,7c0,2.7,1,5.2,2.8,7.1l59.9,61.8c2,2,4.6,3,7.2,3
				c2.5,0,5-0.9,7-2.8C328.5,309.9,329.2,276.2,308.9,255.1L308.9,255.1z M299.6,308l-43.8-45.3c12.6-6.4,28.4-4.2,38.7,6.4
				C304.8,279.7,306.4,295.5,299.6,308z"/>
		</g>
	</g>
</g>
</svg>
