<?xml version="1.0" encoding="utf-8"?>
<!-- Generator: Adobe Illustrator 24.0.1, SVG Export Plug-In . SVG Version: 6.00 Build 0)  -->
<svg version="1.1" id="Layer_1" xmlns="http://www.w3.org/2000/svg" xmlns:xlink="http://www.w3.org/1999/xlink" x="0px" y="0px"
	 viewBox="0 0 242 68.3" style="enable-background:new 0 0 242 68.3;" xml:space="preserve">
<style type="text/css">
	.st0{fill:#57A625;}
	.st1{fill:none;stroke:#57A625;stroke-width:4.54;stroke-miterlimit:10;}
</style>
<title>FF_lozenge-02_v2</title>
<g>
	<g>
		<path class="st0" d="M31.3,23.2c1.1,0,2.3,0.2,3.3,0.7c0.9,0.5,1.7,1.2,2.2,2.1c0.5,1,0.8,2.2,0.8,3.3c0,1.2-0.2,2.3-0.8,3.3
			c-0.5,0.9-1.3,1.7-2.2,2.1c-1,0.5-2.2,0.8-3.3,0.7h-5v7.3h-3.8V23.2H31.3z M33.1,31.4c0.5-0.6,0.8-1.3,0.8-2.1
			c0-0.8-0.2-1.5-0.8-2c-0.6-0.5-1.4-0.8-2.2-0.8h-4.6v5.6h4.6C31.7,32.3,32.5,32,33.1,31.4z"/>
	</g>
	<g>
		<path class="st0" d="M41.2,42.2c-1.1-0.6-1.9-1.5-2.5-2.6c-1.2-2.4-1.2-5.1,0-7.5c0.6-1.1,1.4-2,2.5-2.6c2.3-1.2,5-1.2,7.3,0
			c1.1,0.6,1.9,1.5,2.5,2.6c1.2,2.4,1.2,5.1,0,7.5c-0.6,1.1-1.4,2-2.5,2.6C46.3,43.4,43.5,43.4,41.2,42.2z M46.7,39.7
			c0.5-0.4,0.9-0.9,1.1-1.5c0.5-1.5,0.5-3.2,0-4.7c-0.2-0.6-0.6-1.1-1.1-1.5c-0.5-0.3-1.1-0.5-1.7-0.5h-0.2c-0.6,0-1.2,0.2-1.7,0.5
			c-0.5,0.4-0.9,0.9-1.1,1.5c-0.5,1.5-0.5,3.2,0,4.7c0.2,0.6,0.6,1.1,1.1,1.5c0.5,0.3,1.1,0.5,1.7,0.5H45
			C45.6,40.2,46.2,40,46.7,39.7z"/>
	</g>
	<g>
		<path class="st0" d="M69.4,28.8h3.5l-4,14h-4.1L62.3,33L60,42.8h-4.1l-4.3-14h3.7l2.8,10.4l2.3-10.4h3.9l2.4,10.3L69.4,28.8z"/>
	</g>
	<g>
		<path class="st0" d="M76.2,42.2c-1-0.6-1.9-1.5-2.4-2.5c-0.6-1.2-1-2.5-0.9-3.9c0-1.3,0.3-2.6,0.8-3.8c0.5-1.1,1.3-2,2.3-2.6
			c1.1-0.6,2.3-1,3.6-0.9c1.2,0,2.4,0.3,3.5,0.9c1,0.6,1.7,1.5,2.2,2.5c0.5,1.2,0.7,2.5,0.7,3.7c0,0.3,0,0.7-0.1,1.3h-9.5
			c0,0.6,0.2,1.2,0.5,1.7c0.3,0.4,0.7,0.8,1.2,1c0.4,0.3,0.9,0.4,1.5,0.4h0.2c0.6,0.1,1.1-0.1,1.6-0.4c0.4-0.3,0.7-0.8,0.8-1.3h3.6
			c-0.2,0.9-0.6,1.7-1.2,2.5c-0.6,0.7-1.3,1.3-2.1,1.7c-0.9,0.4-2,0.6-3,0.6C78.4,43.1,77.2,42.8,76.2,42.2z M82,32.7
			c-0.2-0.4-0.6-0.7-1-0.9c-0.4-0.2-0.9-0.3-1.4-0.3h-0.2c-0.5,0-1,0.1-1.4,0.3c-0.4,0.2-0.8,0.5-1,0.9c-0.3,0.4-0.4,0.9-0.4,1.4h6
			C82.4,33.6,82.3,33.1,82,32.7z"/>
	</g>
	<g>
		<path class="st0" d="M91.3,28.8v2.8c0.2-0.9,0.8-1.6,1.5-2.2c0.8-0.5,1.7-0.8,2.6-0.8h0.7v3.4h-1.3c-1-0.1-1.9,0.2-2.7,0.8
			c-0.6,0.7-0.9,1.7-0.8,2.7v7.3h-3.6v-14L91.3,28.8z"/>
	</g>
	<g>
		<path class="st0" d="M96.8,31.8v-2.9h2.9v-2c-0.1-1,0.3-2,0.9-2.7c0.7-0.7,1.7-1,2.7-0.9h4v3h-2.5c-0.3,0-0.7,0-1,0.1
			c-0.2,0.1-0.4,0.2-0.4,0.5c-0.1,0.3-0.1,0.7-0.1,1v1h3.3v2.9h-3.3v11.1h-3.6V31.8H96.8z"/>
	</g>
	<g>
		<path class="st0" d="M108.8,41.7c-0.8-1.1-1.3-2.5-1.2-3.9v-9h3.6v8.6c0,0.7,0.1,1.5,0.5,2.1c0.4,0.5,0.9,0.7,1.5,0.7h0.2
			c0.5,0,1-0.2,1.4-0.5c0.4-0.3,0.8-0.8,1-1.3c0.3-0.6,0.4-1.2,0.4-1.8v-7.7h3.7v14h-3.6v-2c-0.8,1.5-2.4,2.3-4.1,2.3
			C110.9,43.2,109.6,42.7,108.8,41.7z"/>
	</g>
	<g>
		<path class="st0" d="M122.4,23.2h3.6v19.6h-3.6L122.4,23.2z"/>
	</g>
	<g>
		<path class="st0" d="M150.1,23.2h5.9v19.6h-3.7V27.4l-4.9,15.4h-4.1l-5-15.5v15.5h-3.7V23.2h5.9l4.9,15.4L150.1,23.2z"/>
	</g>
	<g>
		<path class="st0" d="M170.4,42.8H167c-0.1-0.6-0.2-1.1-0.2-1.7c-0.4,0.6-1,1.1-1.7,1.5c-0.8,0.4-1.6,0.5-2.4,0.5
			c-0.8,0-1.6-0.2-2.3-0.5c-0.7-0.3-1.2-0.8-1.7-1.4c-0.4-0.6-0.6-1.4-0.6-2.2c-0.1-1.3,0.5-2.5,1.4-3.3c1.1-0.8,2.4-1.3,3.7-1.3
			l3.5-0.3v-0.4c0-0.4-0.1-0.8-0.3-1.1c-0.2-0.3-0.5-0.6-0.8-0.8c-0.4-0.2-0.8-0.3-1.2-0.3h-0.2c-0.4,0-0.8,0.1-1.1,0.2
			c-0.3,0.1-0.6,0.3-0.8,0.6c-0.2,0.2-0.3,0.5-0.3,0.8h-3.6c0.1-0.9,0.4-1.7,0.9-2.4c0.5-0.7,1.3-1.3,2.1-1.6c0.9-0.4,2-0.6,3-0.6
			c1.1,0,2.1,0.2,3.1,0.6c0.8,0.4,1.6,0.9,2.1,1.7c0.5,0.8,0.8,1.8,0.7,2.7v6.1C170.3,40.8,170.3,41.8,170.4,42.8z M165.2,39.8
			c0.5-0.2,0.9-0.6,1.2-1c0.3-0.5,0.4-1,0.4-1.6v-0.4l-3,0.3c-0.5,0-1,0.2-1.4,0.5c-0.4,0.3-0.6,0.7-0.6,1.2c0,0.4,0.2,0.8,0.5,1
			c0.4,0.3,0.8,0.4,1.3,0.4h0.2C164.2,40.1,164.7,40,165.2,39.8z"/>
	</g>
	<g>
		<path class="st0" d="M175.1,42.2c-1-0.6-1.9-1.5-2.4-2.5c-1.2-2.4-1.2-5.3,0-7.7c0.5-1.1,1.4-1.9,2.4-2.5c1-0.6,2.2-0.9,3.4-0.9
			c1.6-0.1,3.2,0.4,4.4,1.3c1.1,0.9,1.8,2.3,1.9,3.8h-3.6c-0.1-0.6-0.4-1.2-0.8-1.6c-0.5-0.4-1.1-0.6-1.7-0.6h-0.2
			c-0.9,0-1.8,0.4-2.2,1.2c-0.5,0.9-0.8,2-0.8,3.1c0,1.1,0.2,2.2,0.8,3.1c0.5,0.8,1.3,1.3,2.2,1.2h0.2c0.6,0,1.3-0.2,1.7-0.6
			c0.4-0.4,0.7-1,0.8-1.6h3.6c0,1.5-0.7,2.9-1.8,3.9c-1.3,0.9-2.9,1.4-4.4,1.3C177.4,43.1,176.2,42.8,175.1,42.2z"/>
	</g>
	<g>
		<path class="st0" d="M190.1,28.8v2.8c0.2-0.9,0.8-1.6,1.5-2.2c0.8-0.5,1.7-0.8,2.6-0.8h0.7v3.4h-1.3c-1-0.1-1.9,0.2-2.6,0.8
			c-0.6,0.7-0.9,1.7-0.9,2.7v7.3h-3.6v-14H190.1z"/>
	</g>
	<g>
		<path class="st0" d="M198.5,42.2c-1.1-0.6-1.9-1.5-2.5-2.6c-1.2-2.4-1.2-5.1,0-7.5c0.6-1.1,1.4-2,2.5-2.6c2.3-1.2,5-1.2,7.3,0
			c1.1,0.6,1.9,1.5,2.5,2.6c1.2,2.4,1.2,5.1,0,7.5c-0.6,1.1-1.4,2-2.5,2.6C203.6,43.4,200.8,43.4,198.5,42.2z M204,39.7
			c0.5-0.4,0.9-0.9,1.1-1.5c0.5-1.5,0.5-3.2,0-4.7c-0.2-0.6-0.6-1.1-1.1-1.5c-0.5-0.3-1.1-0.5-1.7-0.5h-0.2c-0.6,0-1.2,0.2-1.7,0.5
			c-0.5,0.4-0.9,0.9-1.1,1.5c-0.5,1.5-0.5,3.2,0,4.7c0.2,0.6,0.6,1.1,1.1,1.5c0.5,0.3,1.1,0.5,1.7,0.5h0.2
			C202.9,40.2,203.5,40,204,39.7z"/>
	</g>
	<g>
		<path class="st0" d="M212.7,42.5c-0.9-0.3-1.6-0.9-2.1-1.7c-0.5-0.8-0.8-1.7-0.7-2.6h3.7c0,0.6,0.2,1.1,0.6,1.5
			c0.5,0.4,1.1,0.6,1.7,0.6h0.2c0.5,0,1-0.1,1.4-0.4c0.3-0.2,0.5-0.6,0.5-1c0-0.3-0.1-0.6-0.4-0.9c-0.3-0.3-0.7-0.5-1.1-0.5
			l-1.8-0.5c-1.2-0.2-2.3-0.8-3.3-1.5c-0.7-0.7-1.1-1.7-1.1-2.7c0-0.8,0.2-1.6,0.7-2.2c0.5-0.7,1.2-1.2,2-1.5c2-0.7,4.1-0.7,6.1,0
			c0.8,0.3,1.5,0.9,2,1.6c0.5,0.8,0.7,1.6,0.7,2.5h-3.6c0-0.5-0.3-1.1-0.6-1.4c-0.4-0.4-0.9-0.5-1.5-0.5h-0.2
			c-0.5,0-0.9,0.1-1.3,0.3c-0.3,0.2-0.5,0.6-0.5,1c0,0.3,0.2,0.7,0.5,0.9c0.4,0.3,0.9,0.5,1.4,0.6l1.9,0.5c1.1,0.2,2.2,0.7,3,1.5
			c0.7,0.7,1,1.7,0.9,2.7c0,0.8-0.2,1.5-0.7,2.2c-0.5,0.7-1.2,1.2-1.9,1.5c-1,0.4-2.1,0.6-3.1,0.6C214.9,43.1,213.8,42.9,212.7,42.5
			z"/>
	</g>
</g>
<path class="st1" d="M34.2,2.3h173.7c17.6,0,31.9,14.3,31.9,31.9l0,0l0,0c0,17.6-14.3,31.9-31.9,31.9H34.2
	c-17.6,0-31.9-14.3-31.9-31.9c0,0,0,0,0,0l0,0C2.3,16.6,16.5,2.3,34.2,2.3C34.2,2.3,34.2,2.3,34.2,2.3z"/>
</svg>
