<svg width="29" height="30" viewBox="0 0 29 30" fill="none" xmlns="http://www.w3.org/2000/svg">
<path d="M16.7136 27.6727C14.7564 27.1128 12.1031 27.3854 9.82464 26.5578C8.63707 26.1691 7.64385 25.3396 7.04959 24.2404C6.58862 24.426 6.10325 24.5441 5.60852 24.5909C4.94276 24.7405 4.25722 24.7816 3.57836 24.7126C3.20968 24.6654 2.86455 24.5056 2.59005 24.255C2.03017 23.7 2.04478 22.8237 1.70885 22.1518C1.20005 21.1349 0.903542 20.0251 0.837391 18.8899C0.720547 16.7672 1.21227 14.6154 1.70398 12.5657C3.16453 6.4509 2.19083 6.23669 3.16453 4.28929C3.91428 2.78979 8.12066 1.7382 9.88306 1.3974C10.406 1.29471 10.9434 1.48504 11.2852 1.89399L12.5607 3.42756C12.9309 3.87533 13.0034 4.49884 12.7457 5.01956L12.5267 5.34575C12.5503 5.36241 12.573 5.38028 12.5948 5.39931C12.6046 5.40904 12.6192 5.41391 12.6289 5.42852C12.8699 5.63171 13.029 5.91538 13.0768 6.22695C13.1494 6.57883 13.0637 6.94484 12.8425 7.22794C12.6213 7.51104 12.2868 7.68264 11.9278 7.69724C11.4664 7.68408 11.0206 7.52752 10.6523 7.24933C10.0437 6.86472 9.35239 6.42169 7.54618 6.72354C7.04928 6.82071 6.54091 6.84531 6.03695 6.79656V6.80143C6.03342 7.435 6.11031 8.06646 6.26577 8.68067C6.5604 9.8589 6.99005 10.9992 7.54618 12.0789C7.96895 12.942 8.21712 13.8801 8.27646 14.8393C8.30811 15.2997 8.30811 15.7616 8.27646 16.222L8.28619 16.2122C8.89911 15.6303 9.6495 15.2133 10.4673 15C12.4195 14.4401 14.5227 15.3213 15.9687 16.183L16.7136 27.6727Z" fill="#FDD7AD"/>
<path d="M13.0933 25.7204C13.0773 25.7204 13.0612 25.7204 13.0447 25.718C12.1195 25.6519 11.2059 25.4731 10.3241 25.1854C9.67213 24.9651 9.09269 24.5708 8.64841 24.0452C8.48198 23.834 8.51827 23.5278 8.72947 23.3614C8.94068 23.195 9.24682 23.2312 9.41325 23.4424C9.74592 23.8249 10.1754 24.1108 10.6567 24.2701C11.4621 24.5285 12.2958 24.6891 13.1396 24.7482C13.4085 24.7616 13.6156 24.9905 13.6021 25.2594C13.5887 25.5283 13.3598 25.7353 13.0909 25.7219L13.0933 25.7204Z" fill="#CBB292"/>
<path d="M10.6523 7.24929C9.98529 7.65338 8.29106 8.62708 7.29301 8.72932C6.95016 8.76697 6.60352 8.75054 6.26576 8.68063C6.11031 8.06642 6.03342 7.43496 6.03694 6.80139V6.79652C6.54091 6.84527 7.04928 6.82067 7.54618 6.7235C9.35239 6.42165 10.0437 6.86468 10.6523 7.24929Z" fill="#F9C795"/>
<path d="M4.14455 23.2905C4.06812 23.2905 3.99509 23.2876 3.92352 23.2818C3.72634 23.2647 3.55909 23.13 3.50045 22.941C3.46686 22.8339 3.42937 22.6975 3.40308 22.5938C3.31161 22.2178 3.18277 21.8518 3.01847 21.5014C2.90591 21.2619 3.00524 20.9763 3.24213 20.8584C3.47902 20.7405 3.76672 20.8334 3.88993 21.0676C4.07949 21.4654 4.22793 21.8815 4.33297 22.3095C4.55546 22.2935 4.80813 22.2535 5.07249 22.2122L5.37142 22.1659C5.63437 22.1312 5.87676 22.3133 5.91655 22.5755C5.95634 22.8378 5.7789 23.0836 5.51747 23.1284L5.22536 23.1737C4.86857 23.24 4.50726 23.279 4.14455 23.2905Z" fill="#F9C795"/>
<path d="M9.00674 19.3758H8.99749C8.73361 19.3729 8.52094 19.1587 8.51989 18.8948C8.51989 18.8763 8.54667 17.0676 10.8709 16.4036C11.6434 16.218 12.453 16.2582 13.2034 16.5194C13.4588 16.5989 13.6024 16.8695 13.5248 17.1255C13.4472 17.3816 13.1776 17.527 12.921 17.4513C12.3494 17.2464 11.7314 17.2078 11.1387 17.3398C9.55445 17.7906 9.49359 18.8583 9.49359 18.9036C9.4837 19.1658 9.2692 19.3739 9.00674 19.3758Z" fill="#CBB292"/>
<path d="M12.7457 5.0196L12.5266 5.34579C12.5503 5.36245 12.573 5.38032 12.5948 5.39935C12.3012 5.21829 11.9895 5.06819 11.6649 4.95145C11.5237 4.89302 11.3826 4.83947 11.256 4.78105C10.7545 4.5571 10.2531 4.35749 9.76134 4.19196C9.51261 4.09851 9.38376 3.82377 9.47095 3.57277C9.55814 3.32177 9.82956 3.18608 10.0827 3.26695C10.5987 3.44708 11.1245 3.65643 11.6552 3.89498C11.772 3.94367 11.8937 3.99722 12.0252 4.04591C12.3237 4.15884 12.6148 4.29055 12.8967 4.44025C12.8874 4.6418 12.836 4.83918 12.7457 5.0196Z" fill="#F9C795"/>
<path d="M8.27646 16.222C7.8452 16.7824 7.59093 17.4588 7.54619 18.1645C7.54619 18.4334 7.32822 18.6514 7.05934 18.6514C6.79046 18.6514 6.57249 18.4334 6.57249 18.1645C6.63951 16.8637 7.25963 15.6535 8.27646 14.8394C8.30811 15.2997 8.30811 15.7617 8.27646 16.222Z" fill="#F9C795"/>
<path d="M21.4214 27.6581H18.6317C18.3748 27.6586 18.1616 27.4593 18.1449 27.2029L17.8981 23.3947C17.8806 23.1258 18.0844 22.8937 18.3533 22.8762C18.6221 22.8588 18.8543 23.0626 18.8718 23.3314L19.0879 26.6844H21.4214C21.6903 26.6844 21.9082 26.9023 21.9082 27.1712C21.9082 27.4401 21.6903 27.6581 21.4214 27.6581Z" fill="white"/>
</svg>
