<svg width="44" height="43" viewBox="0 0 44 43" fill="none" xmlns="http://www.w3.org/2000/svg">
<g clip-path="url(#clip0)">
<path d="M24.4235 32.5066C23.9651 32.5066 23.5934 32.8687 23.5934 33.3153L23.5934 35.9031C23.5934 38.1326 25.4554 39.9465 27.7441 39.9465L39.2 39.9465C41.4887 39.9465 43.3506 38.1326 43.3506 35.9031L43.3506 26.1998C43.3506 23.9702 41.4887 22.1564 39.2 22.1564L33.8297 22.1564C34.0186 16.115 36.3716 12.9743 41.0069 12.5635C41.4345 12.5256 41.7619 12.1764 41.7619 11.7582L41.7619 3.71728C41.7619 3.49489 41.6679 3.28237 41.502 3.1296C41.3474 2.98736 41.1433 2.90859 40.9318 2.90859C40.9163 2.90859 40.9007 2.90899 40.8851 2.90989C35.1648 3.22333 30.7981 5.14114 27.9061 8.61009C25.0444 12.0426 23.5934 17.0583 23.5934 23.5179L23.5934 26.4145C23.5934 26.8611 23.9651 27.2232 24.4235 27.2232C24.882 27.2232 25.2537 26.8611 25.2537 26.4145L25.2537 23.5179C25.2537 11.6589 30.1129 5.45734 40.1015 4.5867L40.1015 11.0429C37.577 11.4255 35.6242 12.5702 34.29 14.4525C32.8747 16.4492 32.157 19.3132 32.157 22.965C32.157 23.4116 32.5287 23.7737 32.9871 23.7737L39.2 23.7737C40.5732 23.7737 41.6904 24.8621 41.6904 26.1998L41.6904 35.9031C41.6904 37.2408 40.5732 38.3292 39.2 38.3292L27.7441 38.3292C26.3709 38.3292 25.2537 37.2408 25.2537 35.9031L25.2537 33.3153C25.2537 32.8687 24.882 32.5066 24.4235 32.5066Z" fill="white"/>
<path d="M4.99837 39.9463L16.4542 39.9463C18.7429 39.9463 20.6049 38.1324 20.6049 35.9028L20.6049 26.1996C20.6049 23.97 18.7429 22.1561 16.4542 22.1561L11.0839 22.1561C11.2729 16.1147 13.6259 12.9741 18.2612 12.5633C18.6887 12.5254 19.0161 12.1762 19.0161 11.7579L19.0161 3.71704C19.0161 3.49465 18.9222 3.28213 18.7563 3.12937C18.6017 2.98704 18.3976 2.90835 18.1861 2.90835C18.1705 2.90835 18.1549 2.90876 18.1394 2.90964C12.4191 3.22309 8.05236 5.1409 5.16033 8.60985C2.29868 12.0423 0.847689 17.0581 0.847688 23.5176L0.847687 35.9028C0.847687 38.1324 2.70968 39.9463 4.99837 39.9463ZM2.50796 23.5176C2.50796 11.6587 7.36716 5.45709 17.3559 4.58646L17.3559 11.0427C14.8312 11.4252 12.8785 12.57 11.5443 14.4522C10.129 16.4489 9.41137 19.3128 9.41137 22.9648C9.41137 23.4114 9.78302 23.7735 10.2415 23.7735L16.4542 23.7735C17.8275 23.7735 18.9446 24.8618 18.9446 26.1996L18.9446 35.9028C18.9446 37.2406 17.8275 38.3289 16.4542 38.3289L6.49261 38.3289L6.49261 32.3419C6.49261 31.8953 6.12096 31.5332 5.66248 31.5332C5.20399 31.5332 4.83234 31.8953 4.83234 32.3419L4.83234 38.3229C3.53633 38.2393 2.50796 37.1862 2.50796 35.9028L2.50796 23.5176Z" fill="white"/>
<path d="M5.66248 30.343C6.12096 30.343 6.49261 29.9769 6.49261 29.5304C6.49261 29.0838 6.12096 28.7217 5.66248 28.7217C5.20408 28.7217 4.83234 29.0838 4.83234 29.5304L4.83234 29.5384C4.83234 29.9849 5.20399 30.343 5.66248 30.343Z" fill="white"/>
<path d="M24.4236 30.6736C24.882 30.6736 25.2537 30.3115 25.2537 29.8649L25.2537 29.848C25.2537 29.4014 24.882 29.0393 24.4236 29.0393C23.9651 29.0393 23.5934 29.4014 23.5934 29.848L23.5934 29.8649C23.5934 30.3115 23.9651 30.6736 24.4236 30.6736Z" fill="white"/>
</g>
<defs>
<clipPath id="clip0">
<rect width="42.503" height="41.4049" fill="white" transform="translate(43.3506 42.1299) rotate(-180)"/>
</clipPath>
</defs>
</svg>
