<svg height="512pt" viewBox="0 0 512 512" width="512pt" xmlns="http://www.w3.org/2000/svg"><path d="m101.667969 256h400.332031v246h-400.332031zm0 0" fill="#d1c584"/><path d="m196.953125 112.382812v139.144532l219.738281 1.363281c1.957032-3.082031 3.585938-6.394531 4.828125-9.890625 3.039063.582031 6.171875.898438 9.375.898438 27.34375 0 49.511719-22.167969 49.511719-49.511719 0-23.15625-15.898438-42.589844-37.371094-48.003907 6.140625-8.246093 9.773438-18.46875 9.773438-29.539062 0-27.34375-22.164063-49.507812-49.507813-49.507812-11.144531 0-21.425781 3.679687-29.699219 9.894531-10.460937-9.277344-24.214843-14.917969-39.292968-14.917969-3.558594 0-7.035156.332031-10.421875.929688-3.0625-13.503907-10.1875-25.613282-20.007813-34.863282-8.460937 8.078125-15.050781 18.097656-19.03125 29.351563-4.855468-.980469-9.878906-1.5-15.027344-1.5-34.976562 0-64.382812 23.835937-72.867187 56.152343zm0 0" fill="#30995b"/><g fill="#acd670"><path d="m353.667969 113.605469-10.234375 54.960937 8.566406 87.433594 27.113281-137.160156zm0 0"/><path d="m400.128906 162.175781-54.785156 90.714844 33.769531.609375 50.171875-71.921875zm0 0"/><path d="m317.234375 139.308594h25.878906v116.691406h-25.878906zm0 0"/><path d="m69.15625 10h24v84.582031h-24zm0 0"/></g><path d="m158 165.714844c0-29.554688-20.117188-54.742188-48.332031-64.429688-28.21875 9.6875-48.332031 34.875-48.332031 64.429688 0 13.445312 8.355468 49.433594 19.480468 90.285156h57.699219c5.449219-20.011719 10.234375-38.851562 13.699219-54.449219 3.609375-16.25 5.785156-28.976562 5.785156-35.835937zm0 0" fill="#ef7159"/><path d="m212.125 195.929688c-6.894531-2.539063-14.347656-3.929688-22.125-3.929688-35.347656 0-64 28.652344-64 64h44.246094c0-27.570312 17.433594-51.0625 41.878906-60.070312zm0 0" fill="#fff"/><path d="m212.125 195.929688c-24.445312 9.007812-41.878906 32.5-41.878906 60.070312h83.753906c0-27.570312-17.433594-51.0625-41.875-60.070312zm0 0" fill="#acd670"/><path d="m256.308594 168.75c12.113281 0 23.4375 3.367188 33.09375 9.214844-11.210938-18.523438-31.550782-30.90625-54.785156-30.90625-28.878907 0-53.292969 19.128906-61.257813 45.40625 0 0 14.15625-.621094 30.558594 3.515625 11.578125-16.46875 30.726562-27.230469 52.390625-27.230469zm0 0" fill="#fff"/><path d="m289.402344 177.964844c-9.65625-5.847656-20.980469-9.214844-33.09375-9.214844-21.660156 0-40.8125 10.761719-52.390625 27.230469 15.808593 3.988281 33.699219 12.398437 43.042969 30.035156 2.222656 4.199219 3.96875 8.914063 5.082031 14.21875 1.382812-2.8125 2.828125-5.367187 4.320312-7.6875 17.875-27.78125 42.253907-21.488281 42.253907-21.488281 0-12.113282-3.367188-23.4375-9.214844-33.09375zm0 0" fill="#ffc943"/><path d="m300.3125 213.761719c-3.789062-1.625-7.949219-2.527344-12.3125-2.527344-17.671875 0-32 14.722656-32 32.882813 0 4.242187.789062 8.289062 2.210938 12.011718h24.625c-1.421876-3.722656-2.210938-7.769531-2.210938-12.011718 0-13.675782 8.128906-25.398438 19.6875-30.355469zm0 0" fill="#fff"/><path d="m300.3125 213.761719c-11.558594 4.957031-19.6875 16.679687-19.6875 30.355469 0 4.242187.789062 8.289062 2.210938 12.011718h34.953124c1.421876-3.722656 2.210938-7.769531 2.210938-12.011718 0-13.675782-8.128906-25.398438-19.6875-30.355469zm0 0" fill="#a766b2"/><path d="m70.128906 453.097656-.09375-.070312c-4.382812-3.359375-10.660156-2.527344-14.019531 1.855468-3.359375 4.386719-2.527344 10.664063 1.855469 14.019532l.09375.070312c1.8125 1.390625 3.949218 2.0625 6.074218 2.0625 3.003907 0 5.976563-1.347656 7.945313-3.917968 3.359375-4.386719 2.527344-10.664063-1.855469-14.019532zm0 0"/><path d="m70.128906 371.097656-.09375-.070312c-4.382812-3.359375-10.660156-2.527344-14.019531 1.855468-3.359375 4.386719-2.527344 10.664063 1.855469 14.019532l.09375.070312c1.8125 1.390625 3.949218 2.0625 6.074218 2.0625 3.003907 0 5.976563-1.347656 7.945313-3.917968 3.359375-4.386719 2.527344-10.664063-1.855469-14.019532zm0 0"/><path d="m70.128906 289.097656-.09375-.070312c-4.382812-3.359375-10.660156-2.527344-14.019531 1.855468-3.359375 4.386719-2.527344 10.664063 1.855469 14.019532l.09375.070312c1.8125 1.390625 3.949218 2.0625 6.074218 2.0625 3.003907 0 5.976563-1.347656 7.945313-3.917968 3.359375-4.386719 2.527344-10.664063-1.855469-14.019532zm0 0"/><path d="m454.039062 453.066406-.09375-.070312c-4.398437-3.335938-10.671874-2.472656-14.007812 1.929687-3.335938 4.398438-2.472656 10.671875 1.929688 14.007813l.09375.070312c1.804687 1.371094 3.925781 2.03125 6.03125 2.03125 3.023437 0 6.011718-1.363281 7.976562-3.960937 3.335938-4.398438 2.472656-10.671875-1.929688-14.007813zm0 0"/><path d="m441.867188 386.933594.09375.070312c1.804687 1.371094 3.925781 2.03125 6.03125 2.03125 3.023437 0 6.011718-1.363281 7.976562-3.960937 3.335938-4.398438 2.472656-10.671875-1.929688-14.007813l-.09375-.070312c-4.398437-3.335938-10.671874-2.472656-14.007812 1.929687-3.335938 4.398438-2.472656 10.671875 1.929688 14.007813zm0 0"/><path d="m441.867188 304.933594.09375.070312c1.804687 1.371094 3.925781 2.03125 6.03125 2.03125 3.023437 0 6.011718-1.363281 7.976562-3.960937 3.335938-4.398438 2.472656-10.671875-1.929688-14.007813l-.09375-.070312c-4.398437-3.335938-10.671874-2.472656-14.007812 1.929687-3.335938 4.402344-2.472656 10.671875 1.929688 14.007813zm0 0"/><path d="m369.34375 348h.128906c5.519532 0 10-4.476562 10-10s-4.480468-10-10-10h-.128906c-5.523438 0-10 4.476562-10 10s4.476562 10 10 10zm0 0"/><path d="m142.65625 410h-.128906c-5.519532 0-10 4.476562-10 10s4.480468 10 10 10h.128906c5.523438 0 10-4.476562 10-10s-4.476562-10-10-10zm0 0"/><path d="m73.71875 182.261719c-2.628906 0-5.207031 1.066406-7.070312 2.929687-1.859376 1.859375-2.929688 4.4375-2.929688 7.078125 0 2.628907 1.070312 5.199219 2.929688 7.058594 1.863281 1.871094 4.433593 2.933594 7.070312 2.933594 2.632812 0 5.210938-1.0625 7.070312-2.933594 1.859376-1.859375 2.929688-4.429687 2.929688-7.058594 0-2.640625-1.070312-5.210937-2.929688-7.078125-1.859374-1.863281-4.4375-2.929687-7.070312-2.929687zm0 0"/><path d="m502 246h-41.535156c17.875-10.28125 29.941406-29.554688 29.941406-51.609375 0-22.898437-12.988281-43.277344-32.777344-53.195313 3.410156-7.589843 5.183594-15.832031 5.183594-24.347656 0-32.816406-26.695312-59.511718-59.511719-59.511718-10.347656 0-20.28125 2.609374-29.136719 7.605468-11.617187-8.1875-25.511718-12.628906-39.855468-12.628906-.972656 0-1.9375.035156-2.902344.074219-10.5625-30.796875-40.023438-52.339844-73.203125-52.339844-29.921875 0-56.992187 17.332031-69.75 43.882813-2.394531-.222657-4.796875-.332032-7.199219-.332032-31.445312 0-59.371094 18.988282-71.296875 47.300782-2.117187-.644532-4.269531-1.207032-6.453125-1.699219 1.144532-12.777344 5.199219-22.578125 12.117188-29.164063 6.023437-5.738281 12.074218-6.929687 12.332031-6.976562l-.140625.023437v-.011719c2.113281-.3125 4.113281-1.285156 5.632812-2.8125 1.859376-1.859374 2.929688-4.429687 2.929688-7.058593 0-2.640625-1.070312-5.210938-2.929688-7.082031-1.859374-1.859376-4.441406-2.929688-7.070312-2.929688-.5625 0-1.117188.058594-1.667969.152344l-.003906-.015625c-5.9375.933593-14.058594 4.261719-21.546875 11.023437v-34.347656c0-5.523438-4.480469-10-10-10h-24c-5.523438 0-10 4.476562-10 10v37.390625c-11.503906-14.097656-23.925781-22.339844-24.886719-22.96875-4.621093-3.015625-10.796875-1.710937-13.820312 2.898437-3.019531 4.613282-1.730469 10.808594 2.875 13.839844.332031.21875 30.585937 20.476563 35.082031 49.621094-33.839844 10.167969-58.40625 39.90625-58.40625 74.933594 0 14.550781 8.300781 49.492187 16.445312 80.285156h-6.445312c-5.523438 0-10 4.476562-10 10v246c0 5.523438 4.476562 10 10 10h492c5.523438 0 10-4.476562 10-10v-246c0-5.523438-4.476562-10-10-10zm-320.746094-182.402344c3.847656 0 7.699219.382813 11.453125 1.144532 4.882813.988281 9.746094-1.769532 11.410157-6.464844 8.09375-22.867188 29.828124-38.230469 54.085937-38.230469 23.640625 0 44.738281 14.738281 53.300781 36.144531-27.011718 9.449219-46.445312 35.175782-46.445312 65.371094 0 5.523438 4.476562 10 10 10 5.519531 0 10-4.476562 10-10 0-27.15625 22.09375-49.25 49.25-49.25 12.042968 0 23.640625 4.40625 32.65625 12.402344 3.554687 3.152344 8.839844 3.367187 12.640625.515625 6.875-5.164063 15.070312-7.894531 23.695312-7.894531 21.785157 0 39.507813 17.726562 39.507813 39.511718 0 8.5625-2.695313 16.714844-7.792969 23.5625-1.996094 2.679688-2.523437 6.179688-1.402344 9.324219 1.121094 3.148437 3.738281 5.527344 6.980469 6.34375 17.550781 4.429687 29.8125 20.179687 29.8125 38.3125 0 21.785156-17.726562 39.507813-39.511719 39.507813-2.480469 0-5-.242188-7.492187-.71875-4.84375-.929688-9.644532 1.816406-11.300782 6.464843-.785156 2.199219-1.777343 4.324219-2.941406 6.355469h-12.625l40.949219-58.699219c1.539063-2.207031 2.125-4.941406 1.625-7.582031-.5-2.644531-2.046875-4.976562-4.285156-6.464844l-29.15625-19.402344c-2.269531-1.511718-5.0625-2.03125-7.722657-1.433593-2.664062.597656-4.964843 2.253906-6.375 4.589843l-14.582031 24.140626 11.9375-60.371094c1.0625-5.386719-2.417969-10.628906-7.796875-11.734375l-25.445312-5.230469c-2.628906-.542969-5.367188-.003906-7.59375 1.496094-2.230469 1.496094-3.761719 3.828125-4.253906 6.464844l-3.265626 17.535156h-23.335937c-5.519531 0-10 4.476562-10 10v57.546875c-6.644531-34.03125-36.671875-59.796875-72.617187-59.796875-16.195313 0-31.582032 5.140625-44.484376 14.863281-10.644531 8.015625-19.003906 18.929687-24.035156 31.195313 1.273438-7.507813 1.902344-13.269532 1.902344-17.402344 0-13.5625-3.683594-26.332032-10.160156-37.480469 5.253906-14.296875 18.914062-24.007813 34.363281-24.007813 2.457031 0 4.914063.246094 7.3125.734376 4.886719.992187 9.761719-1.769532 11.417969-6.472657 2.148437-6.078125 5.882812-11.515625 10.800781-15.722656 4.195313-3.589844 4.6875-9.902344 1.097656-14.101563-3.589843-4.195312-9.898437-4.6875-14.097656-1.097656-5.496094 4.699219-10.03125 10.398438-13.375 16.75-1.050781-.058594-2.101563-.089844-3.15625-.089844-19.902344 0-37.882813 10.421876-48.027344 26.671876-4.75-4.574219-10.082031-8.609376-15.890625-11.996094 8.78125-21.125 29.5625-35.304688 52.96875-35.304688zm184.367188 175.058594 37.667968-62.367188 11.945313 7.953126-43.082031 61.757812h-7.980469zm-12.507813-39.859375v-27.765625c.050781-.210938.109375-.417969.152344-.636719l8.367187-44.941406 5.746094 1.179687zm-25.949219 29.855469c.042969-.378906.070313-.761719.070313-1.152344v-78.191406h5.878906v96.691406h-3.15625c.027344-.625.042969-1.253906.042969-1.882812 0-5.449219-1.011719-10.664063-2.835938-15.464844zm-137.164062-46.652344c-.296875 0-.585938.019531-.882812.023438 9.777343-15.179688 26.910156-24.964844 45.5-24.964844 26.421874 0 48.457031 19.082031 53.089843 44.183594-13.835937.097656-26.097656 7.0625-33.6875 17.714843-12.820312-22.070312-36.707031-36.957031-64.019531-36.957031zm53.058594 64h-106.113282c4.703126-25.011719 26.699219-44 53.054688-44 26.359375 0 48.351562 18.988281 53.058594 44zm44.941406-24.765625c12.132812 0 22 10.265625 22 22.882813 0 .632812-.03125 1.257812-.078125 1.882812h-43.84375c-.050781-.625-.078125-1.25-.078125-1.882812 0-12.617188 9.867188-22.882813 22-22.882813zm-208.84375-201.234375h4v67.058594c-1.34375.011718-2.675781.046875-4 .117187zm-58.558594 137.808594c.625.125 1.265625.191406 1.925782.191406h49.4375c5.523437 0 10-4.476562 10-10s-4.476563-10-10-10h-44.355469c10.808593-18.414062 32.03125-30.964844 56.394531-30.964844 35.289062 0 64 26.324219 64 58.679688 0 2.609375-.417969 7.421875-2.007812 16.285156h-39.71875c-5.519532 0-10 4.476562-10 10s4.480468 10 10 10h33.207031c-12.132813 11.359375-20.441407 26.738281-22.785157 44h-79.554687c-10.925781-40.785156-17.140625-69.847656-17.140625-80.285156 0-2.683594.214844-5.316406.597656-7.90625zm471.402344 170.191406h-88c-5.523438 0-10 4.476562-10 10s4.476562 10 10 10h88v62h-315.394531c-5.519531 0-10 4.476562-10 10s4.480469 10 10 10h315.394531v62h-472v-62h88c5.523438 0 10-4.476562 10-10s-4.476562-10-10-10h-88v-62h315.394531c5.519531 0 10-4.476562 10-10s-4.480469-10-10-10h-315.394531v-62h472zm0 0"/><path d="m245.332031 74h.132813c5.523437 0 10-4.476562 10-10s-4.476563-10-10-10h-.132813c-5.519531 0-10 4.476562-10 10s4.480469 10 10 10zm0 0"/></svg>