<svg id="Capa_1" enable-background="new 0 0 497.037 497.037" height="512" viewBox="0 0 497.037 497.037" width="512" xmlns="http://www.w3.org/2000/svg"><g><path d="m330.716 152.015-68.965-129.069c-2.768-5.18-7.818-7.816-12.914-7.921l-83.197 146.99z" fill="#ffc250"/><path d="m248.837 15.025c-5.307-.109-10.663 2.527-13.546 7.921l-68.965 129.069 6.069 6.072z" fill="#e69642"/><path d="m117.55 252.015 261.255-10-48.089-90h-155.076z" fill="#e27f86"/><path d="m175.64 152.015h-9.314l-48.089 90 6.069 6.073z" fill="#d16161"/><path d="m69.461 342.015 357.433-10-48.089-90h-251.255z" fill="#fff0af"/><path d="m127.55 242.015h-9.313l-48.089 90 6.068 6.073z" fill="#ffe07d"/><path d="m426.894 332.015h-347.433l-72.462 132 489.166-2c-.25-.696-.55-1.388-.914-2.069z" fill="#c2e4a1"/><path d="m21.791 439.946 57.67-107.931h-9.313l-68.357 127.931c-5.339 9.992 1.901 22.069 13.23 22.069h306.675l7.5-10 7.5 10h145.325c10.556 0 17.557-10.486 14.144-20h-461.144c-11.329 0-18.569-12.077-13.23-22.069z" fill="#98ca91"/><path d="m167.166 372.24c-.039 0-.078 0-.117-.001-4.142-.063-7.448-3.472-7.385-7.613.275-18.045 15.185-32.727 33.238-32.727 4.142 0 7.5 3.358 7.5 7.5s-3.358 7.5-7.5 7.5c-9.907 0-18.089 8.055-18.24 17.955-.062 4.103-3.407 7.386-7.496 7.386z" fill="#d8ab8c"/><path d="m187.16 362.015c-7.282 0-20 3.243-20 3.243s-12.718-3.243-20-3.243c-5.876 0-11.088 1.212-15.588 3.374-10.15 7.749-14.484 22.714-14.484 30.071 0 21.232 16.472 51.555 36.791 51.555 6.656 0 18.281-3.243 18.281-3.243s11.624 3.243 18.281 3.243c3.899 0 17.653-11.124 21.18-13.078 6.559-10.193 10.612-22.95 10.612-33.477-.001-21.233-12.843-38.445-35.073-38.445z" fill="#e27f86"/><path d="m176.16 435.772s-11.624 3.243-18.281 3.243c-20.319 0-32.791-28.323-32.791-49.555 0-7.356 1.077-17.903 6.484-24.071-12.526 6.016-19.484 19.45-19.484 35.071 0 21.232 16.472 51.555 36.791 51.555 6.656 0 18.281-3.243 18.281-3.243s11.624 3.243 18.281 3.243c10.245 0 19.509-7.713 26.18-18.078-3.526 1.954-13.281 5.078-17.18 5.078-6.657 0-18.281-3.243-18.281-3.243z" fill="#d16161"/><path d="m329.867 425.605c3.359.702 6.806 4.088 10.329 4.088 11.146 0 21.578-6.676 30.561-13.066 9.823-11.232 16.614-26.394 18.697-43.458.76-6.224-5.022-11.221-11.119-9.759-25.117 6.025-44.679 30.935-48.468 62.195z" fill="#98ca91"/><path d="m329.867 425.605c-.439 3.618-.671 7.319-.671 11.088 16.076 0 30.678-7.622 41.561-20.066-8.983 6.391-19.415 10.066-30.561 10.066-3.523 0-6.97-.386-10.329-1.088z" fill="#68b181"/><path d="m328.494 425.305c-3.881-31.156-23.447-55.932-48.528-61.902 0 30.951 15.111 61.902 48.528 61.902z" fill="#98ca91"/><path d="m279.966 363.403c-.038-.009-.076-.018-.114-.027-6.061-1.428-11.662 3.738-10.9 9.919 4.43 35.915 29.693 63.398 60.244 63.398 0-3.872-.24-7.675-.703-11.388-25.08-5.969-44.646-30.746-48.527-61.902z" fill="#68b181"/><path d="m244.657 152.015c-7.124 0-13.664 2.488-18.809 6.636-.77 2.656-4.191 10.46-4.191 13.364 0 16.569 13.431 30 30 30 4.555 0 23-.606 23-.606s0-15.902 0-19.394c0-16.568-13.432-30-30-30z" fill="#c38778"/><path d="m266.987 103.549c0 10.198-8.267 18.466-18.466 18.466s-18.466-8.267-18.466-18.466 18.466-38.466 18.466-38.466 18.466 28.268 18.466 38.466z" fill="#fff0af"/><path d="m329.196 469.515c-4.142 0-7.5-3.358-7.5-7.5v-27.322c0-4.142 3.358 2 7.5 2s7.5-6.142 7.5-2v27.322c0 4.142-3.358 7.5-7.5 7.5z" fill="#68b181"/><path d="m321.696 462.015h15v20h-15z" fill="#518f60"/><g fill="#d8ab8c"><path d="m219.771 306.501c-3.587 2.071-8.174.842-10.245-2.745l-15-25.981c-2.071-3.587-.842-8.174 2.745-10.245s8.174-.842 10.245 2.745l15 25.981c2.071 3.587.842 8.174-2.745 10.245z"/><path d="m259.771 306.501c-3.587 2.071-8.174.842-10.245-2.745l-15-25.981c-2.071-3.587-.842-8.174 2.745-10.245s8.174-.842 10.245 2.745l15 25.981c2.071 3.587.842 8.174-2.745 10.245z"/><path d="m299.771 306.501c-3.587 2.071-8.174.842-10.245-2.745l-15-25.981c-2.071-3.587-.842-8.174 2.745-10.245s8.174-.842 10.245 2.745l15 25.981c2.071 3.587.842 8.174-2.745 10.245z"/></g><path d="m299.092 225.844s-24.822-24.8-25.025-24.965c-2.801-2.501-6.57-3.863-11.231-3.863-4.99 0-9.466-.23-14.934-.23-12.899 0-24.755-11.083-24.755-24.755 0-5.225 1.931-10.723 2.701-13.379-6.822 5.499-11.191 13.92-11.191 23.364 0 16.569 13.431 30 30 30h19.393l24.435 24.435c2.929 2.929 7.678 2.929 10.607 0 2.928-2.93 2.928-7.678 0-10.607z" fill="#b1705b"/></g></svg>