<svg width="23" height="24" viewBox="0 0 23 24" fill="none" xmlns="http://www.w3.org/2000/svg">
<g clip-path="url(#clip0)">
<path d="M21.5713 23.4294H18.714C17.9263 23.4294 17.2853 22.7884 17.2853 22.0007V9.61886C17.2853 8.83118 17.9263 8.19019 18.714 8.19019H21.5713C22.359 8.19019 23 8.83118 23 9.61886V22.0007C23 22.7884 22.359 23.4294 21.5713 23.4294ZM18.714 9.14263C18.4511 9.14263 18.2378 9.35598 18.2378 9.61886V22.0007C18.2378 22.2636 18.4511 22.4769 18.714 22.4769H21.5713C21.8342 22.4769 22.0476 22.2636 22.0476 22.0007V9.61886C22.0476 9.35598 21.8342 9.14263 21.5713 9.14263H18.714Z" fill="#64BB2C"/>
<path d="M21.5713 6.28531H1.56992C0.782241 6.28531 0.141243 5.64431 0.141243 4.85663V1.99929C0.141243 1.21162 0.782241 0.570618 1.56992 0.570618H21.5713C22.359 0.570618 23 1.21162 23 1.99929V4.85663C23 5.64431 22.359 6.28531 21.5713 6.28531ZM1.56992 1.52307C1.30704 1.52307 1.09369 1.73641 1.09369 1.99929V4.85663C1.09369 5.11951 1.30704 5.33286 1.56992 5.33286H21.5713C21.8342 5.33286 22.0476 5.11951 22.0476 4.85663V1.99929C22.0476 1.73641 21.8342 1.52307 21.5713 1.52307H1.56992Z" fill="#64BB2C"/>
<path d="M2.99858 14.8573C1.42323 14.8573 0.141235 13.5753 0.141235 12C0.141235 10.4246 1.42323 9.14264 2.99858 9.14264C4.57393 9.14264 5.85592 10.4246 5.85592 12C5.85592 13.5753 4.57393 14.8573 2.99858 14.8573ZM2.99858 10.0951C1.94803 10.0951 1.09368 10.9494 1.09368 12C1.09368 13.0505 1.94803 13.9049 2.99858 13.9049C4.04913 13.9049 4.90348 13.0505 4.90348 12C4.90348 10.9494 4.04913 10.0951 2.99858 10.0951Z" fill="#64BB2C"/>
<path d="M2.99858 23.4293C1.42323 23.4293 0.141235 22.1474 0.141235 20.572C0.141235 18.9967 1.42323 17.7147 2.99858 17.7147C4.57393 17.7147 5.85592 18.9967 5.85592 20.572C5.85592 22.1474 4.57393 23.4293 2.99858 23.4293ZM2.99858 18.6671C1.94803 18.6671 1.09368 19.5215 1.09368 20.572C1.09368 21.6226 1.94803 22.4769 2.99858 22.4769C4.04913 22.4769 4.90348 21.6226 4.90348 20.572C4.90348 19.5215 4.04913 18.6671 2.99858 18.6671Z" fill="#64BB2C"/>
<path d="M11.5706 14.8573C9.99527 14.8573 8.71328 13.5753 8.71328 12C8.71328 10.4246 9.99527 9.14264 11.5706 9.14264C13.146 9.14264 14.428 10.4246 14.428 12C14.428 13.5753 13.146 14.8573 11.5706 14.8573ZM11.5706 10.0951C10.5201 10.0951 9.66573 10.9494 9.66573 12C9.66573 13.0505 10.5201 13.9049 11.5706 13.9049C12.6212 13.9049 13.4755 13.0505 13.4755 12C13.4755 10.9494 12.6212 10.0951 11.5706 10.0951Z" fill="#64BB2C"/>
<path d="M11.5706 23.4293C9.99527 23.4293 8.71328 22.1474 8.71328 20.572C8.71328 18.9967 9.99527 17.7147 11.5706 17.7147C13.146 17.7147 14.428 18.9967 14.428 20.572C14.428 22.1474 13.146 23.4293 11.5706 23.4293ZM11.5706 18.6671C10.5201 18.6671 9.66573 19.5215 9.66573 20.572C9.66573 21.6226 10.5201 22.4769 11.5706 22.4769C12.6212 22.4769 13.4755 21.6226 13.4755 20.572C13.4755 19.5215 12.6212 18.6671 11.5706 18.6671Z" fill="#64BB2C"/>
</g>
<defs>
<clipPath id="clip0">
<rect width="22.8588" height="22.8588" fill="white" transform="translate(0.141243 0.570618)"/>
</clipPath>
</defs>
</svg>
