<svg width="24" height="24" viewBox="0 0 24 24" fill="none" xmlns="http://www.w3.org/2000/svg">
<g clip-path="url(#clip0)">
<path d="M15.474 4.02079C15.5326 3.96314 15.6231 3.95336 15.6927 3.99717C15.7297 4.0172 15.7583 4.04995 15.7731 4.08937C15.8458 4.28684 16.0648 4.38799 16.2622 4.31529C16.4597 4.2426 16.5608 4.02358 16.4882 3.82611C16.3744 3.52356 16.1145 3.29973 15.7984 3.2322C15.4823 3.16466 15.1536 3.26272 14.9261 3.49238C14.7802 3.64398 14.7848 3.88516 14.9364 4.03108C15.088 4.177 15.3292 4.17239 15.4751 4.02079H15.474Z" fill="#64BB2C"/>
<path d="M8.98287 19.2276C9.19328 19.2276 9.36385 19.0571 9.36385 18.8466C9.36385 18.6362 9.19328 18.4657 8.98287 18.4657C7.11129 18.4631 5.35917 17.5458 4.29073 16.0091C4.17038 15.8365 3.93286 15.7941 3.76022 15.9144C3.58757 16.0348 3.54519 16.2723 3.66554 16.445C4.87665 18.1858 6.86216 19.2249 8.98287 19.2276Z" fill="#64BB2C"/>
<path d="M0.998293 13.077C1.16926 17.3649 4.69156 20.7549 8.98286 20.7617H11.0478C11.2582 20.7617 11.4287 20.5912 11.4287 20.3808C11.4287 20.1704 11.2582 19.9998 11.0478 19.9998H8.98286C5.1373 19.9935 1.96741 16.9823 1.76368 13.1422H4.03013C4.24054 13.1422 4.41111 12.9716 4.41111 12.7612C4.41111 12.5508 4.24054 12.3802 4.03013 12.3802H1.36327C1.15286 12.3802 0.982292 12.2096 0.982292 11.9992V11.6182C0.982292 11.4078 1.15286 11.2373 1.36327 11.2373H20.0313C20.2417 11.2373 20.4122 11.4078 20.4122 11.6182V11.7821C20.4122 11.9925 20.5828 12.163 20.7932 12.163C21.0036 12.163 21.1742 11.9925 21.1742 11.7821V11.6182C21.1742 10.987 20.6625 10.4753 20.0313 10.4753H16.895C17.3383 10.2346 17.8048 10.0395 18.2875 9.89317C18.8697 10.212 19.5618 10.2617 20.1836 10.0294C20.8054 9.79704 21.2953 9.30566 21.5258 8.68318C21.9359 7.5713 21.429 6.33035 20.3578 5.82355C20.4956 4.82938 20.0161 3.85109 19.1459 3.35099C18.7364 3.11541 18.2684 3.00099 17.7964 3.02106C17.4591 2.37046 16.851 1.90266 16.1356 1.74354C15.4203 1.58443 14.6712 1.75033 14.0899 2.19662C14.0385 2.16119 13.9855 2.12729 13.9306 2.09566C12.9046 1.48971 11.5853 1.77353 10.8992 2.74778C10.2132 3.72203 10.3906 5.05987 11.3068 5.82164C11.3981 5.89547 11.4949 5.96221 11.5964 6.02127C11.7559 6.70282 11.8172 7.40367 11.7785 8.10256L10.1357 5.83917C9.53491 5.00613 8.50596 4.59654 7.49704 4.78881L7.06653 2.92849C6.9979 2.63159 6.75899 2.40414 6.45908 2.35018C6.15918 2.29621 5.85596 2.42612 5.68815 2.68047L5.4668 3.01687L4.45492 0.98892C4.33059 0.74161 4.08192 0.581178 3.80535 0.569843C3.52653 0.561065 3.26455 0.70297 3.11959 0.941298L2.85938 1.37638L1.92217 0.854434C1.62474 0.688995 1.25366 0.740869 1.013 0.981529C0.772339 1.22219 0.720465 1.59327 0.885904 1.8907L1.40785 2.82943L0.972386 3.08964C0.734487 3.23256 0.593108 3.49352 0.60333 3.77086C0.613552 4.0482 0.773758 4.29805 1.02153 4.42307L3.0472 5.43647L2.70889 5.65934C2.45531 5.82835 2.32681 6.13218 2.38218 6.43185C2.43756 6.73151 2.66615 6.96937 2.96338 7.03659L4.82028 7.46557C4.62786 8.47489 5.0378 9.50427 5.8714 10.105L6.38039 10.4745H1.36327C0.732044 10.4745 0.220333 10.9863 0.220333 11.6175V11.9985C0.222278 12.4874 0.534981 12.9209 0.998293 13.077ZM11.3228 3.64587C11.4585 3.19489 11.7929 2.8307 12.2307 2.65723C12.6625 2.48699 13.1484 2.52377 13.5497 2.75704C13.6549 2.81796 13.7526 2.89111 13.8407 2.97496C13.9925 3.1186 14.2317 3.11316 14.3768 2.96277C14.7861 2.54343 15.3817 2.36293 15.9549 2.48447C16.5282 2.60602 16.9993 3.01268 17.2032 3.56205C17.2667 3.73433 17.444 3.83684 17.625 3.80588C18.2028 3.70871 18.7902 3.91414 19.1815 4.35027C19.5729 4.78641 19.7137 5.39253 19.5547 5.95651C19.4965 6.15734 19.6111 6.36748 19.8114 6.4274C20.2165 6.54563 20.5544 6.82651 20.7446 7.20313C20.9349 7.57975 20.9605 8.0184 20.8153 8.41459C20.6604 8.83712 20.3267 9.16959 19.9036 9.32288C19.4805 9.47616 19.0112 9.43459 18.6216 9.20931C18.3131 9.03393 18.0771 8.75453 17.9557 8.42106C17.9008 8.2708 17.7579 8.17081 17.5979 8.17076C17.5665 8.17064 17.5351 8.17448 17.5046 8.18219C17.213 8.25785 16.9033 8.21584 16.6424 8.06523C16.3314 7.88701 16.1229 7.57229 16.0801 7.21641C16.0527 6.97665 15.9133 6.76405 15.7044 6.64329C15.4955 6.52252 15.2417 6.50787 15.0202 6.60379C14.6905 6.74427 14.3137 6.72053 14.0042 6.53979C13.7429 6.389 13.5514 6.14163 13.4708 5.85098C13.4177 5.66311 13.2311 5.54581 13.0388 5.57934C12.5205 5.66711 11.9937 5.48164 11.6447 5.0886C11.2957 4.69556 11.1739 4.15044 11.3225 3.64625L11.3228 3.64587ZM14.496 7.45299C14.7787 7.46441 15.0605 7.41329 15.3212 7.30327C15.3214 7.30568 15.3214 7.3081 15.3212 7.31051C15.356 7.5924 15.4535 7.86292 15.6066 8.10218C15.2257 8.27604 14.8582 8.47774 14.5071 8.70566C14.5358 8.28844 14.5319 7.86962 14.4956 7.45299H14.496ZM12.4387 6.33406C12.5754 6.35555 12.7137 6.36486 12.8521 6.36187C13.0171 6.71336 13.2858 7.00586 13.622 7.20002C13.6499 7.21603 13.6792 7.2286 13.7078 7.24346C13.7661 7.71098 13.7796 8.18299 13.7481 8.65308C13.726 8.94514 13.8732 9.22405 14.1269 9.37054C14.3805 9.51702 14.6957 9.50514 14.9376 9.33999C15.3309 9.07949 15.748 8.85689 16.1834 8.67518C16.2085 8.69156 16.2321 8.70947 16.2596 8.7247C16.5953 8.91934 16.9826 9.00643 17.3694 8.97425C17.4367 9.09612 17.5151 9.21153 17.6037 9.31903C16.8495 9.59778 16.1413 9.9875 15.5022 10.4753H13.5017L12.4391 9.0112C12.5881 8.12501 12.5877 7.22013 12.438 6.33406H12.4387ZM3.13101 6.29406L3.46932 6.07118C3.69584 5.92085 3.8251 5.66122 3.80853 5.38987C3.79195 5.11852 3.63206 4.87655 3.38894 4.7549L1.36327 3.74302L1.8014 3.48205C2.15289 3.26897 2.27304 2.81614 2.07342 2.45683L1.55109 1.52001L2.48983 2.04271C2.85017 2.24135 3.30308 2.11971 3.51542 1.76726L3.77335 1.3318L4.78675 3.35899C4.90899 3.60233 5.15179 3.76194 5.42365 3.77766C5.69551 3.79338 5.95509 3.66282 6.10456 3.43519L6.32591 3.10145L6.77318 5.03073C6.5198 5.15846 6.28833 5.32563 6.08741 5.526L5.56166 6.05175C5.36129 6.25267 5.19412 6.48414 5.06639 6.73752L3.13101 6.29406ZM6.31981 9.48971C5.86837 9.16058 5.58379 8.65018 5.54114 8.09313C5.49848 7.53608 5.70202 6.9883 6.09808 6.59427L6.62383 6.06852C7.29624 5.39044 8.3668 5.31502 9.12763 5.89212L7.99231 6.74171C7.88342 6.82337 7.82637 6.95693 7.84265 7.09206C7.85894 7.22719 7.94607 7.34338 8.07124 7.39684C8.19641 7.45031 8.3406 7.43294 8.44949 7.35127L9.64309 6.45597L10.1349 7.13412L9.13525 7.88464C8.96692 8.01089 8.93281 8.24969 9.05905 8.41802C9.1853 8.58634 9.4241 8.62046 9.59242 8.49421L10.583 7.75092L11.0756 8.42944L10.2782 9.02758C10.1099 9.15383 10.0757 9.39263 10.202 9.56095C10.3282 9.72928 10.567 9.76339 10.7354 9.63715L11.5232 9.04625L12.5606 10.4753H7.67838L6.31981 9.48971Z" fill="#64BB2C"/>
<path d="M13.0098 12.762C13.0098 12.5516 12.8392 12.381 12.6288 12.381H6.316C6.10559 12.381 5.93502 12.5516 5.93502 12.762C5.93502 12.9724 6.10559 13.143 6.316 13.143H12.6288C12.8392 13.143 13.0098 12.9724 13.0098 12.762Z" fill="#64BB2C"/>
<path d="M20.1989 12.7593C20.1874 12.7513 20.1754 12.7441 20.1631 12.7376C17.9315 11.4773 15.1334 11.8592 13.3212 13.6715C11.5089 15.4837 11.127 18.2818 12.3873 20.5134C12.3942 20.5265 12.4018 20.5392 12.4101 20.5515C13.6042 22.6419 15.9811 23.759 18.3525 23.3443C20.724 22.9295 22.5806 21.0721 22.9943 18.7004C23.408 16.3288 22.2899 13.9524 20.1989 12.7593ZM17.3644 22.6674C14.6291 22.6674 12.4117 20.45 12.4117 17.7147C12.4117 14.9794 14.6291 12.762 17.3644 12.762C20.0997 12.762 22.3171 14.9794 22.3171 17.7147C22.314 20.4487 20.0984 22.6643 17.3644 22.6674Z" fill="#64BB2C"/>
<path d="M20.1429 15.1595L15.4595 19.8429L14.205 18.5883C14.0555 18.4439 13.8178 18.446 13.6709 18.5929C13.5239 18.7399 13.5219 18.9775 13.6662 19.127L15.1902 20.6509C15.3389 20.7997 15.5801 20.7997 15.7289 20.6509L20.6816 15.6982C20.826 15.5487 20.8239 15.3111 20.677 15.1641C20.53 15.0172 20.2924 15.0151 20.1429 15.1595Z" fill="#64BB2C"/>
<path d="M3.26816 15.4288C3.47857 15.4288 3.64914 15.2583 3.64914 15.0478C3.64914 14.8374 3.47857 14.6669 3.26816 14.6669C3.05775 14.6669 2.88718 14.8374 2.88718 15.0478C2.88718 15.2583 3.05775 15.4288 3.26816 15.4288Z" fill="#64BB2C"/>
</g>
<defs>
<clipPath id="clip0">
<rect width="22.8588" height="22.8588" fill="white" transform="translate(0.220337 0.570618)"/>
</clipPath>
</defs>
</svg>
