<?xml version="1.0" encoding="utf-8"?>
<!-- Generator: Adobe Illustrator 24.0.1, SVG Export Plug-In . SVG Version: 6.00 Build 0)  -->
<svg version="1.1" id="Layer_1" xmlns="http://www.w3.org/2000/svg" xmlns:xlink="http://www.w3.org/1999/xlink" x="0px" y="0px"
	 viewBox="0 0 691 691" style="enable-background:new 0 0 691 691;" xml:space="preserve">
<style type="text/css">
	.st0{fill-rule:evenodd;clip-rule:evenodd;fill:#1C2A39;}
	.st1{clip-path:url(#SVGID_2_);fill:url(#SVGID_3_);}
	.st2{fill:#FFFFFF;}
	.st3{clip-path:url(#SVGID_5_);fill:url(#SVGID_6_);}
	.st4{display:none;fill-rule:evenodd;clip-rule:evenodd;fill:#1C2A39;}
	.st5{clip-path:url(#SVGID_8_);fill:url(#SVGID_9_);}
</style>
<rect x="-768" class="st0" width="691" height="691"/>
<rect x="-1997" class="st0" width="1019" height="691"/>
<g>
	<g>
		<defs>
			<path id="SVGID_1_" d="M-1576.4,243.7v59.2c0,32.5,26.7,59.2,59.2,59.2h13.4c-25.2-21-33.3-48.4-34.1-74.6
				c11.2,41.3,48.3,74.6,83.1,74.6h39.7v-59.2c0-32.5-26.7-59.2-59.2-59.2h-13.4c25.2,21,33.3,48.4,34.1,74.6
				c-11.2-41.3-48.3-74.6-83.1-74.6H-1576.4z M-1594.9,225.2h120.6c42.7,0,77.7,35,77.7,77.7v77.7h-120.6
				c-42.7,0-77.7-34.9-77.7-77.7V225.2z"/>
		</defs>
		<clipPath id="SVGID_2_">
			<use xlink:href="#SVGID_1_"  style="overflow:visible;"/>
		</clipPath>
		<linearGradient id="SVGID_3_" gradientUnits="userSpaceOnUse" x1="-1408.0426" y1="377.7309" x2="-1581.4165" y2="229.8151">
			<stop  offset="0" style="stop-color:#12D3B4"/>
			<stop  offset="1" style="stop-color:#90D124"/>
		</linearGradient>
		<rect x="-1594.9" y="225.2" class="st1" width="198.3" height="155.3"/>
	</g>
	<g>
		<path class="st2" d="M-1662.5,413h9.5l22.2,34.1V413h9.9v51.9h-9.5l-22.2-34v34h-9.9V413z"/>
	</g>
	<g>
		<path class="st2" d="M-1608.4,426.5h9.7V445c0,3.6,0.2,6.1,0.7,7.5c0.5,1.4,1.3,2.5,2.4,3.3c1.1,0.8,2.4,1.2,4,1.2
			c1.6,0,3-0.4,4.1-1.1c1.1-0.8,1.9-1.9,2.5-3.4c0.4-1.1,0.6-3.5,0.6-7.1v-18.8h9.6v16.3c0,6.7-0.5,11.3-1.6,13.7
			c-1.3,3-3.2,5.3-5.7,6.9c-2.5,1.6-5.7,2.4-9.6,2.4c-4.2,0-7.6-0.9-10.2-2.8c-2.6-1.9-4.4-4.5-5.5-7.9c-0.8-2.3-1.1-6.6-1.1-12.7
			V426.5z"/>
	</g>
	<g>
		<path class="st2" d="M-1562.1,412.3h9.6v14.1h5.7v8.3h-5.7v30.1h-9.6v-30.1h-4.9v-8.3h4.9V412.3z"/>
	</g>
	<g>
		<path class="st2" d="M-1542.1,426.5h8.2v4.8c0.9-1.9,2.1-3.3,3.6-4.3s3.1-1.5,4.9-1.5c1.2,0,2.5,0.3,3.9,1l-3,8.3
			c-1.1-0.6-2.1-0.8-2.8-0.8c-1.5,0-2.7,0.9-3.8,2.7c-1,1.8-1.5,5.4-1.5,10.8l0,1.9v15.5h-9.6V426.5z"/>
	</g>
	<g>
		<path class="st2" d="M-1511.2,410.7c1.7,0,3.1,0.6,4.3,1.8c1.2,1.2,1.8,2.7,1.8,4.4c0,1.7-0.6,3.2-1.8,4.4
			c-1.2,1.2-2.6,1.8-4.3,1.8c-1.7,0-3.2-0.6-4.4-1.9c-1.2-1.2-1.8-2.7-1.8-4.5c0-1.7,0.6-3.1,1.8-4.3
			C-1514.3,411.3-1512.9,410.7-1511.2,410.7z M-1516,426.5h9.6v38.4h-9.6V426.5z"/>
	</g>
	<g>
		<path class="st2" d="M-1467.6,411.7h9.6v53.2h-9.6v-4.1c-1.9,1.8-3.8,3.1-5.7,3.9c-1.9,0.8-3.9,1.2-6.1,1.2c-5,0-9.2-1.9-12.9-5.8
			s-5.4-8.6-5.4-14.3c0-5.9,1.7-10.8,5.2-14.6c3.5-3.8,7.7-5.7,12.7-5.7c2.3,0,4.5,0.4,6.5,1.3s3.9,2.2,5.6,3.9V411.7z
			 M-1477.7,434.4c-3,0-5.4,1.1-7.4,3.2c-2,2.1-3,4.8-3,8.1c0,3.3,1,6,3,8.2c2,2.1,4.5,3.2,7.4,3.2c3,0,5.5-1.1,7.5-3.2
			c2-2.1,3-4.9,3-8.3c0-3.3-1-6-3-8.1C-1472.1,435.4-1474.6,434.4-1477.7,434.4z"/>
	</g>
	<g>
		<path class="st2" d="M-1428.4,425.5c3.6,0,7,0.9,10.2,2.7c3.2,1.8,5.7,4.3,7.5,7.4c1.8,3.1,2.7,6.5,2.7,10c0,3.6-0.9,7-2.7,10.2
			c-1.8,3.1-4.2,5.6-7.3,7.4c-3.1,1.8-6.5,2.7-10.3,2.7c-5.5,0-10.2-2-14.1-5.9c-3.9-3.9-5.8-8.7-5.8-14.3c0-6,2.2-11,6.6-15
			C-1437.8,427.2-1433.4,425.5-1428.4,425.5z M-1428.2,434.6c-3,0-5.5,1-7.5,3.1s-3,4.7-3,8c0,3.3,1,6,2.9,8.1
			c2,2.1,4.5,3.1,7.5,3.1c3,0,5.5-1,7.5-3.1c2-2.1,3-4.8,3-8.1c0-3.3-1-6-2.9-8C-1422.7,435.6-1425.2,434.6-1428.2,434.6z"/>
	</g>
	<g>
		<path class="st2" d="M-1360.9,434.2l-8,4.4c-1.5-1.6-3-2.7-4.5-3.3s-3.2-0.9-5.2-0.9c-3.6,0-6.5,1.1-8.7,3.2
			c-2.2,2.1-3.3,4.9-3.3,8.3c0,3.3,1.1,5.9,3.2,8c2.1,2.1,5,3.1,8.4,3.1c4.3,0,7.7-1.5,10.1-4.4l7.6,5.2c-4.1,5.3-9.9,8-17.4,8
			c-6.7,0-12-2-15.8-6c-3.8-4-5.7-8.7-5.7-14c0-3.7,0.9-7.1,2.8-10.3c1.9-3.1,4.4-5.6,7.8-7.4c3.3-1.8,7-2.7,11.2-2.7
			c3.8,0,7.2,0.8,10.3,2.3S-1362.8,431.4-1360.9,434.2z"/>
	</g>
	<g>
		<path class="st2" d="M-1350.3,411.7h9.6v30.6l14.2-15.8h12.1l-16.5,18.4l18.5,20h-11.9l-16.3-17.7v17.7h-9.6V411.7z"/>
	</g>
</g>
<g>
	<g>
		<defs>
			<path id="SVGID_4_" d="M-508.4,233.1v59.2c0,32.5,26.7,59.2,59.2,59.2h13.4c-25.2-21-33.3-48.4-34.1-74.6
				c11.2,41.3,48.3,74.6,83.1,74.6h39.7v-59.2c0-32.5-26.7-59.2-59.2-59.2h-13.4c25.2,21,33.3,48.4,34.1,74.6
				c-11.2-41.3-48.3-74.6-83.1-74.6H-508.4z M-526.9,214.6h120.6c42.7,0,77.7,35,77.7,77.7V370h-120.6c-42.7,0-77.7-34.9-77.7-77.7
				V214.6z"/>
		</defs>
		<clipPath id="SVGID_5_">
			<use xlink:href="#SVGID_4_"  style="overflow:visible;"/>
		</clipPath>
		<linearGradient id="SVGID_6_" gradientUnits="userSpaceOnUse" x1="-340.0266" y1="367.1323" x2="-513.4003" y2="219.2168">
			<stop  offset="0" style="stop-color:#12D3B4"/>
			<stop  offset="1" style="stop-color:#90D124"/>
		</linearGradient>
		<rect x="-526.9" y="214.6" class="st3" width="198.3" height="155.3"/>
	</g>
	<g>
		<path class="st2" d="M-594.5,402.4h9.5l22.2,34.1v-34.1h9.9v51.9h-9.5l-22.2-34v34h-9.9V402.4z"/>
	</g>
	<g>
		<path class="st2" d="M-540.4,415.9h9.7v18.5c0,3.6,0.2,6.1,0.7,7.5c0.5,1.4,1.3,2.5,2.4,3.3c1.1,0.8,2.4,1.2,4,1.2
			c1.6,0,3-0.4,4.1-1.1c1.1-0.8,1.9-1.9,2.5-3.4c0.4-1.1,0.6-3.5,0.6-7.1v-18.8h9.6v16.2c0,6.7-0.5,11.3-1.6,13.7
			c-1.3,3-3.2,5.3-5.7,6.9c-2.5,1.6-5.7,2.4-9.6,2.4c-4.2,0-7.6-0.9-10.2-2.8c-2.6-1.9-4.4-4.5-5.5-7.9c-0.8-2.3-1.1-6.6-1.1-12.7
			V415.9z"/>
	</g>
	<g>
		<path class="st2" d="M-494.1,401.7h9.6v14.1h5.7v8.3h-5.7v30.1h-9.6v-30.1h-4.9v-8.3h4.9V401.7z"/>
	</g>
	<g>
		<path class="st2" d="M-474.1,415.9h8.2v4.8c0.9-1.9,2.1-3.3,3.6-4.3s3.1-1.5,4.9-1.5c1.2,0,2.5,0.3,3.9,1l-3,8.3
			c-1.1-0.6-2.1-0.8-2.8-0.8c-1.5,0-2.7,0.9-3.8,2.7c-1,1.8-1.5,5.4-1.5,10.8l0,1.9v15.5h-9.6V415.9z"/>
	</g>
	<g>
		<path class="st2" d="M-443.2,400.1c1.7,0,3.1,0.6,4.3,1.8c1.2,1.2,1.8,2.7,1.8,4.4c0,1.7-0.6,3.2-1.8,4.4
			c-1.2,1.2-2.6,1.8-4.3,1.8c-1.7,0-3.2-0.6-4.4-1.9c-1.2-1.2-1.8-2.7-1.8-4.5c0-1.7,0.6-3.1,1.8-4.3
			C-446.3,400.7-444.9,400.1-443.2,400.1z M-448,415.9h9.6v38.4h-9.6V415.9z"/>
	</g>
	<g>
		<path class="st2" d="M-399.5,401.1h9.6v53.2h-9.6v-4.1c-1.9,1.8-3.8,3.1-5.7,3.9c-1.9,0.8-3.9,1.2-6.1,1.2c-5,0-9.2-1.9-12.9-5.8
			c-3.6-3.8-5.4-8.6-5.4-14.3c0-5.9,1.7-10.8,5.2-14.6c3.5-3.8,7.7-5.7,12.7-5.7c2.3,0,4.5,0.4,6.5,1.3c2,0.9,3.9,2.2,5.6,3.9V401.1
			z M-409.7,423.8c-3,0-5.4,1.1-7.4,3.2c-2,2.1-3,4.8-3,8.1c0,3.3,1,6,3,8.2c2,2.1,4.5,3.2,7.4,3.2c3,0,5.5-1.1,7.5-3.2
			c2-2.1,3-4.9,3-8.3c0-3.3-1-6-3-8.1C-404.1,424.8-406.6,423.8-409.7,423.8z"/>
	</g>
	<g>
		<path class="st2" d="M-360.4,414.9c3.6,0,7,0.9,10.2,2.7c3.2,1.8,5.7,4.3,7.5,7.4c1.8,3.1,2.7,6.5,2.7,10c0,3.6-0.9,7-2.7,10.2
			c-1.8,3.1-4.2,5.6-7.3,7.4c-3.1,1.8-6.5,2.7-10.3,2.7c-5.5,0-10.2-2-14.1-5.9c-3.9-3.9-5.8-8.7-5.8-14.3c0-6,2.2-11,6.6-15
			C-369.8,416.6-365.4,414.9-360.4,414.9z M-360.2,424c-3,0-5.5,1-7.5,3.1c-2,2.1-3,4.7-3,8c0,3.3,1,6,2.9,8.1
			c2,2.1,4.5,3.1,7.5,3.1c3,0,5.5-1,7.5-3.1c2-2.1,3-4.8,3-8.1s-1-6-2.9-8C-354.7,425-357.2,424-360.2,424z"/>
	</g>
	<g>
		<path class="st2" d="M-292.8,423.6l-8,4.4c-1.5-1.6-3-2.7-4.5-3.3s-3.2-0.9-5.2-0.9c-3.6,0-6.5,1.1-8.7,3.2
			c-2.2,2.1-3.3,4.9-3.3,8.3c0,3.3,1.1,5.9,3.2,8c2.1,2.1,5,3.1,8.4,3.1c4.3,0,7.7-1.5,10.1-4.4l7.6,5.2c-4.1,5.3-9.9,8-17.4,8
			c-6.7,0-12-2-15.8-6c-3.8-4-5.7-8.7-5.7-14c0-3.7,0.9-7.1,2.8-10.3c1.9-3.1,4.4-5.6,7.8-7.4c3.3-1.8,7-2.7,11.2-2.7
			c3.8,0,7.2,0.8,10.3,2.3C-297.3,418.7-294.8,420.8-292.8,423.6z"/>
	</g>
	<g>
		<path class="st2" d="M-282.3,401.1h9.6v30.6l14.2-15.8h12.1l-16.5,18.4l18.5,20h-11.9l-16.3-17.7v17.7h-9.6V401.1z"/>
	</g>
</g>
<rect class="st4" width="691" height="691"/>
<g>
	<defs>
		<path id="SVGID_7_" d="M95.9,162.4v183.1c0,100.6,82.5,183.1,183.1,183.1h41.6c-78-65-103-149.8-105.6-231
			c34.8,127.7,149.5,231,257.1,231h122.9V345.5c0-100.6-82.5-183.1-183.1-183.1h-41.6c78,65,103,149.8,105.6,231
			c-34.8-127.7-149.5-231-257.1-231H95.9z M38.7,105.1H412c132.2,0,240.4,108.2,240.4,240.4v240.4H279
			c-132.2,0-240.4-108.2-240.4-240.4V105.1z"/>
	</defs>
	<clipPath id="SVGID_8_">
		<use xlink:href="#SVGID_7_"  style="overflow:visible;"/>
	</clipPath>
	<linearGradient id="SVGID_9_" gradientUnits="userSpaceOnUse" x1="616.9655" y1="577.1035" x2="80.4098" y2="119.3352">
		<stop  offset="0" style="stop-color:#12D3B4"/>
		<stop  offset="1" style="stop-color:#90D124"/>
	</linearGradient>
	<rect x="38.7" y="105.1" class="st5" width="613.7" height="480.7"/>
</g>
</svg>
