<?xml version="1.0" encoding="utf-8"?>
<!-- Generator: Adobe Illustrator 24.0.1, SVG Export Plug-In . SVG Version: 6.00 Build 0)  -->
<svg version="1.1" id="Layer_1" xmlns="http://www.w3.org/2000/svg" xmlns:xlink="http://www.w3.org/1999/xlink" x="0px" y="0px"
	 viewBox="0 0 406.8 273.3" style="enable-background:new 0 0 406.8 273.3;" xml:space="preserve">
<style type="text/css">
	.st0{fill-rule:evenodd;clip-rule:evenodd;fill:#1C2A39;}
	.st1{clip-path:url(#SVGID_2_);fill:url(#SVGID_3_);}
	.st2{fill:#FFFFFF;}
	.st3{clip-path:url(#SVGID_5_);fill:url(#SVGID_6_);}
	.st4{fill:#1C2A39;}
	.st5{clip-path:url(#SVGID_8_);fill:url(#SVGID_9_);}
	.st6{clip-path:url(#SVGID_11_);fill:url(#SVGID_12_);}
</style>
<rect x="894.6" y="-780.4" class="st0" width="691" height="691"/>
<rect x="-334.5" y="-780.4" class="st0" width="1019" height="691"/>
<g>
	<g>
		<defs>
			<path id="SVGID_1_" d="M86.1-536.7v59.2c0,32.5,26.7,59.2,59.2,59.2h13.4c-25.2-21-33.3-48.4-34.1-74.6
				c11.2,41.3,48.3,74.6,83.1,74.6h39.7v-59.2c0-32.5-26.7-59.2-59.2-59.2h-13.4c25.2,21,33.3,48.4,34.1,74.6
				c-11.2-41.3-48.3-74.6-83.1-74.6H86.1z M67.6-555.2h120.6c42.7,0,77.7,35,77.7,77.7v77.7H145.3c-42.7,0-77.7-34.9-77.7-77.7
				V-555.2z"/>
		</defs>
		<clipPath id="SVGID_2_">
			<use xlink:href="#SVGID_1_"  style="overflow:visible;"/>
		</clipPath>
		<linearGradient id="SVGID_3_" gradientUnits="userSpaceOnUse" x1="254.4662" y1="-402.6455" x2="81.0923" y2="-550.5613">
			<stop  offset="0" style="stop-color:#12D3B4"/>
			<stop  offset="1" style="stop-color:#90D124"/>
		</linearGradient>
		<rect x="67.6" y="-555.2" class="st1" width="198.3" height="155.3"/>
	</g>
	<g>
		<path class="st2" d="M0-367.4h9.5l22.2,34.1v-34.1h9.9v51.9H32l-22.2-34v34H0V-367.4z"/>
	</g>
	<g>
		<path class="st2" d="M54.1-353.9h9.7v18.5c0,3.6,0.2,6.1,0.7,7.5c0.5,1.4,1.3,2.5,2.4,3.3c1.1,0.8,2.4,1.2,4,1.2
			c1.6,0,3-0.4,4.1-1.1c1.1-0.8,1.9-1.9,2.5-3.4c0.4-1.1,0.6-3.5,0.6-7.1v-18.8h9.6v16.3c0,6.7-0.5,11.3-1.6,13.7
			c-1.3,3-3.2,5.3-5.7,6.9c-2.5,1.6-5.7,2.4-9.6,2.4c-4.2,0-7.6-0.9-10.2-2.8c-2.6-1.9-4.4-4.5-5.5-7.9c-0.8-2.3-1.1-6.6-1.1-12.7
			V-353.9z"/>
	</g>
	<g>
		<path class="st2" d="M100.4-368h9.6v14.1h5.7v8.3H110v30.1h-9.6v-30.1h-4.9v-8.3h4.9V-368z"/>
	</g>
	<g>
		<path class="st2" d="M120.4-353.9h8.2v4.8c0.9-1.9,2.1-3.3,3.6-4.3c1.5-1,3.1-1.5,4.9-1.5c1.2,0,2.5,0.3,3.9,1l-3,8.3
			c-1.1-0.6-2.1-0.8-2.8-0.8c-1.5,0-2.7,0.9-3.8,2.7c-1,1.8-1.5,5.4-1.5,10.8l0,1.9v15.5h-9.6V-353.9z"/>
	</g>
	<g>
		<path class="st2" d="M151.3-369.7c1.7,0,3.1,0.6,4.3,1.8c1.2,1.2,1.8,2.7,1.8,4.4c0,1.7-0.6,3.2-1.8,4.4c-1.2,1.2-2.6,1.8-4.3,1.8
			c-1.7,0-3.2-0.6-4.4-1.9c-1.2-1.2-1.8-2.7-1.8-4.5c0-1.7,0.6-3.1,1.8-4.3C148.2-369.1,149.6-369.7,151.3-369.7z M146.5-353.9h9.6
			v38.4h-9.6V-353.9z"/>
	</g>
	<g>
		<path class="st2" d="M194.9-368.7h9.6v53.2h-9.6v-4.1c-1.9,1.8-3.8,3.1-5.7,3.9c-1.9,0.8-3.9,1.2-6.1,1.2c-5,0-9.2-1.9-12.9-5.8
			c-3.6-3.8-5.4-8.6-5.4-14.3c0-5.9,1.7-10.8,5.2-14.6c3.5-3.8,7.7-5.7,12.7-5.7c2.3,0,4.5,0.4,6.5,1.3c2,0.9,3.9,2.2,5.6,3.9
			V-368.7z M184.8-346c-3,0-5.4,1.1-7.4,3.2c-2,2.1-3,4.8-3,8.1c0,3.3,1,6,3,8.2c2,2.1,4.5,3.2,7.4,3.2c3,0,5.5-1.1,7.5-3.2
			c2-2.1,3-4.9,3-8.3c0-3.3-1-6-3-8.1C190.4-345,187.9-346,184.8-346z"/>
	</g>
	<g>
		<path class="st2" d="M234.1-354.9c3.6,0,7,0.9,10.2,2.7c3.2,1.8,5.7,4.3,7.5,7.4c1.8,3.1,2.7,6.5,2.7,10c0,3.6-0.9,7-2.7,10.2
			c-1.8,3.1-4.2,5.6-7.3,7.4c-3.1,1.8-6.5,2.7-10.3,2.7c-5.5,0-10.2-2-14.1-5.9c-3.9-3.9-5.8-8.7-5.8-14.3c0-6,2.2-11,6.6-15
			C224.7-353.1,229.1-354.9,234.1-354.9z M234.3-345.8c-3,0-5.5,1-7.5,3.1c-2,2.1-3,4.7-3,8c0,3.3,1,6,2.9,8.1
			c2,2.1,4.5,3.1,7.5,3.1c3,0,5.5-1,7.5-3.1c2-2.1,3-4.8,3-8.1c0-3.3-1-6-2.9-8C239.8-344.8,237.3-345.8,234.3-345.8z"/>
	</g>
	<g>
		<path class="st2" d="M301.6-346.1l-8,4.4c-1.5-1.6-3-2.7-4.5-3.3s-3.2-0.9-5.2-0.9c-3.6,0-6.5,1.1-8.7,3.2
			c-2.2,2.1-3.3,4.9-3.3,8.3c0,3.3,1.1,5.9,3.2,8c2.1,2.1,5,3.1,8.4,3.1c4.3,0,7.7-1.5,10.1-4.4l7.6,5.2c-4.1,5.3-9.9,8-17.4,8
			c-6.7,0-12-2-15.8-6c-3.8-4-5.7-8.7-5.7-14c0-3.7,0.9-7.1,2.8-10.3c1.9-3.1,4.4-5.6,7.8-7.4c3.3-1.8,7-2.7,11.2-2.7
			c3.8,0,7.2,0.8,10.3,2.3C297.2-351.1,299.7-348.9,301.6-346.1z"/>
	</g>
	<g>
		<path class="st2" d="M312.2-368.7h9.6v30.6l14.2-15.8h12.1l-16.5,18.4l18.5,20h-11.9l-16.3-17.7v17.7h-9.6V-368.7z"/>
	</g>
</g>
<g>
	<g>
		<defs>
			<path id="SVGID_4_" d="M100.1,21v67.2c0,36.9,31,67.2,68.8,67.2h15.6c-29.3-23.9-38.7-55-39.7-84.8
				c13.1,46.9,56.1,84.8,96.6,84.8h46.1V88.2c0-36.9-31-67.2-68.8-67.2h-15.6c29.3,23.9,38.7,55,39.7,84.8
				C229.7,58.9,186.6,21,146.2,21H100.1z M78.6,0h140.2C268.4,0,309,39.7,309,88.2v88.2H168.8c-49.6,0-90.3-39.7-90.3-88.2V0z"/>
		</defs>
		<clipPath id="SVGID_5_">
			<use xlink:href="#SVGID_4_"  style="overflow:visible;"/>
		</clipPath>
		<linearGradient id="SVGID_6_" gradientUnits="userSpaceOnUse" x1="294.8096" y1="174.4048" x2="95.1463" y2="4.0599">
			<stop  offset="0" style="stop-color:#12D3B4"/>
			<stop  offset="1" style="stop-color:#90D124"/>
		</linearGradient>
		<rect x="78.6" class="st3" width="230.4" height="176.4"/>
	</g>
	<g>
		<path class="st4" d="M0,213.3h11L36.8,252v-38.8h11.5v58.9h-11l-25.8-38.6v38.6H0V213.3z"/>
	</g>
	<g>
		<path class="st4" d="M62.8,228.6h11.3v21c0,4.1,0.3,6.9,0.9,8.5c0.6,1.6,1.5,2.8,2.8,3.7c1.3,0.9,2.8,1.3,4.7,1.3
			c1.9,0,3.4-0.4,4.7-1.3c1.3-0.9,2.3-2.1,2.9-3.8c0.5-1.3,0.7-3.9,0.7-8v-21.3H102v18.5c0,7.6-0.6,12.8-1.8,15.6
			c-1.5,3.4-3.7,6-6.6,7.9c-2.9,1.8-6.6,2.7-11.1,2.7c-4.9,0-8.8-1.1-11.9-3.2c-3-2.1-5.1-5.1-6.4-8.9c-0.9-2.6-1.3-7.4-1.3-14.4
			V228.6z"/>
	</g>
	<g>
		<path class="st4" d="M116.7,212.5h11.2v16.1h6.6v9.4h-6.6v34.2h-11.2V238h-5.7v-9.4h5.7V212.5z"/>
	</g>
	<g>
		<path class="st4" d="M139.9,228.6h9.6v5.5c1-2.2,2.4-3.8,4.1-4.9c1.7-1.1,3.6-1.7,5.7-1.7c1.4,0,3,0.4,4.5,1.1l-3.5,9.4
			c-1.3-0.6-2.4-1-3.2-1c-1.7,0-3.2,1-4.4,3.1c-1.2,2.1-1.8,6.2-1.8,12.3l0,2.1v17.6h-11.1V228.6z"/>
	</g>
	<g>
		<path class="st4" d="M175.8,210.7c2,0,3.6,0.7,5,2.1c1.4,1.4,2.1,3.1,2.1,5c0,1.9-0.7,3.6-2.1,5c-1.4,1.4-3.1,2.1-5,2.1
			c-2,0-3.7-0.7-5.1-2.1c-1.4-1.4-2.1-3.1-2.1-5.1c0-1.9,0.7-3.6,2.1-4.9C172.2,211.3,173.9,210.7,175.8,210.7z M170.2,228.6h11.2
			v43.6h-11.2V228.6z"/>
	</g>
	<g>
		<path class="st4" d="M226.6,211.8h11.2v60.4h-11.2v-4.6c-2.2,2-4.4,3.5-6.6,4.4c-2.2,0.9-4.6,1.3-7.1,1.3
			c-5.8,0-10.7-2.2-14.9-6.5c-4.2-4.4-6.3-9.8-6.3-16.3c0-6.7,2-12.2,6.1-16.5c4.1-4.3,9-6.4,14.8-6.4c2.7,0,5.2,0.5,7.5,1.5
			c2.3,1,4.5,2.5,6.5,4.4V211.8z M214.8,237.6c-3.5,0-6.3,1.2-8.6,3.6c-2.3,2.4-3.4,5.5-3.4,9.2c0,3.8,1.2,6.9,3.5,9.3
			c2.3,2.4,5.2,3.6,8.6,3.6c3.5,0,6.4-1.2,8.7-3.6c2.3-2.4,3.5-5.5,3.5-9.4c0-3.8-1.2-6.9-3.5-9.2
			C221.3,238.7,218.3,237.6,214.8,237.6z"/>
	</g>
	<g>
		<path class="st4" d="M272.1,227.5c4.2,0,8.2,1,11.9,3.1c3.7,2.1,6.6,4.8,8.7,8.4c2.1,3.5,3.1,7.3,3.1,11.4c0,4.1-1,8-3.1,11.5
			c-2.1,3.6-4.9,6.4-8.5,8.4c-3.6,2-7.6,3-11.9,3c-6.4,0-11.8-2.2-16.4-6.7c-4.5-4.4-6.8-9.8-6.8-16.2c0-6.8,2.6-12.5,7.7-17
			C261.1,229.5,266.3,227.5,272.1,227.5z M272.3,237.8c-3.5,0-6.4,1.2-8.7,3.5c-2.3,2.4-3.5,5.4-3.5,9.1c0,3.8,1.1,6.9,3.4,9.2
			c2.3,2.3,5.2,3.5,8.7,3.5c3.5,0,6.4-1.2,8.7-3.6c2.3-2.4,3.5-5.4,3.5-9.2c0-3.7-1.1-6.8-3.4-9.1
			C278.7,238.9,275.8,237.8,272.3,237.8z"/>
	</g>
	<g>
		<path class="st4" d="M350.6,237.4l-9.3,5c-1.8-1.8-3.5-3-5.2-3.7c-1.7-0.7-3.7-1-6-1c-4.2,0-7.6,1.2-10.2,3.7
			c-2.6,2.4-3.9,5.6-3.9,9.4c0,3.7,1.2,6.7,3.7,9.1c2.5,2.3,5.8,3.5,9.8,3.5c5,0,8.9-1.7,11.7-5l8.8,5.9c-4.8,6.1-11.5,9.1-20.2,9.1
			c-7.8,0-14-2.3-18.4-6.8c-4.4-4.5-6.7-9.8-6.7-15.9c0-4.2,1.1-8.1,3.2-11.7c2.2-3.5,5.2-6.3,9-8.4c3.9-2,8.2-3,13-3
			c4.4,0,8.4,0.9,11.9,2.6C345.4,231.8,348.3,234.2,350.6,237.4z"/>
	</g>
	<g>
		<path class="st4" d="M362.8,211.8H374v34.8l16.5-18h14l-19.2,20.9l21.5,22.7h-13.9L374,252.1v20.1h-11.2V211.8z"/>
	</g>
</g>
<g>
	<g>
		<defs>
			<path id="SVGID_7_" d="M1154.1-547.3v59.2c0,32.5,26.7,59.2,59.2,59.2h13.4c-25.2-21-33.3-48.4-34.1-74.6
				c11.2,41.3,48.3,74.6,83.1,74.6h39.7v-59.2c0-32.5-26.7-59.2-59.2-59.2h-13.4c25.2,21,33.3,48.4,34.1,74.6
				c-11.2-41.3-48.3-74.6-83.1-74.6H1154.1z M1135.6-565.7h120.6c42.7,0,77.7,35,77.7,77.7v77.7h-120.6c-42.7,0-77.7-34.9-77.7-77.7
				V-565.7z"/>
		</defs>
		<clipPath id="SVGID_8_">
			<use xlink:href="#SVGID_7_"  style="overflow:visible;"/>
		</clipPath>
		<linearGradient id="SVGID_9_" gradientUnits="userSpaceOnUse" x1="1322.4822" y1="-413.2441" x2="1149.1085" y2="-561.1597">
			<stop  offset="0" style="stop-color:#12D3B4"/>
			<stop  offset="1" style="stop-color:#90D124"/>
		</linearGradient>
		<rect x="1135.6" y="-565.7" class="st5" width="198.3" height="155.3"/>
	</g>
	<g>
		<path class="st2" d="M1068-378h9.5l22.2,34.1V-378h9.9v51.9h-9.5l-22.2-34v34h-9.9V-378z"/>
	</g>
	<g>
		<path class="st2" d="M1122.1-364.5h9.7v18.5c0,3.6,0.2,6.1,0.7,7.5c0.5,1.4,1.3,2.5,2.4,3.3c1.1,0.8,2.4,1.2,4,1.2s3-0.4,4.1-1.1
			c1.1-0.8,1.9-1.9,2.5-3.4c0.4-1.1,0.6-3.5,0.6-7.1v-18.8h9.6v16.2c0,6.7-0.5,11.3-1.6,13.7c-1.3,3-3.2,5.3-5.7,6.9
			s-5.7,2.4-9.6,2.4c-4.2,0-7.6-0.9-10.2-2.8c-2.6-1.9-4.4-4.5-5.5-7.9c-0.8-2.3-1.1-6.6-1.1-12.7V-364.5z"/>
	</g>
	<g>
		<path class="st2" d="M1168.4-378.6h9.6v14.1h5.7v8.3h-5.7v30.1h-9.6v-30.1h-4.9v-8.3h4.9V-378.6z"/>
	</g>
	<g>
		<path class="st2" d="M1188.4-364.5h8.2v4.8c0.9-1.9,2.1-3.3,3.6-4.3s3.1-1.5,4.9-1.5c1.2,0,2.5,0.3,3.9,1l-3,8.3
			c-1.1-0.6-2.1-0.8-2.8-0.8c-1.5,0-2.7,0.9-3.8,2.7c-1,1.8-1.5,5.4-1.5,10.8l0,1.9v15.5h-9.6V-364.5z"/>
	</g>
	<g>
		<path class="st2" d="M1219.3-380.3c1.7,0,3.1,0.6,4.3,1.8c1.2,1.2,1.8,2.7,1.8,4.4c0,1.7-0.6,3.2-1.8,4.4
			c-1.2,1.2-2.6,1.8-4.3,1.8c-1.7,0-3.2-0.6-4.4-1.9c-1.2-1.2-1.8-2.7-1.8-4.5c0-1.7,0.6-3.1,1.8-4.3
			C1216.2-379.7,1217.6-380.3,1219.3-380.3z M1214.5-364.5h9.6v38.4h-9.6V-364.5z"/>
	</g>
	<g>
		<path class="st2" d="M1263-379.3h9.6v53.2h-9.6v-4.1c-1.9,1.8-3.8,3.1-5.7,3.9c-1.9,0.8-3.9,1.2-6.1,1.2c-5,0-9.2-1.9-12.9-5.8
			c-3.6-3.8-5.4-8.6-5.4-14.3c0-5.9,1.7-10.8,5.2-14.6c3.5-3.8,7.7-5.7,12.7-5.7c2.3,0,4.5,0.4,6.5,1.3c2,0.9,3.9,2.2,5.6,3.9
			V-379.3z M1252.8-356.6c-3,0-5.4,1.1-7.4,3.2c-2,2.1-3,4.8-3,8.1c0,3.3,1,6,3,8.2c2,2.1,4.5,3.2,7.4,3.2c3,0,5.5-1.1,7.5-3.2
			c2-2.1,3-4.9,3-8.3c0-3.3-1-6-3-8.1C1258.4-355.6,1255.9-356.6,1252.8-356.6z"/>
	</g>
	<g>
		<path class="st2" d="M1302.1-365.5c3.6,0,7,0.9,10.2,2.7c3.2,1.8,5.7,4.3,7.5,7.4c1.8,3.1,2.7,6.5,2.7,10c0,3.6-0.9,7-2.7,10.2
			c-1.8,3.1-4.2,5.6-7.3,7.4c-3.1,1.8-6.5,2.7-10.3,2.7c-5.5,0-10.2-2-14.1-5.9c-3.9-3.9-5.8-8.7-5.8-14.3c0-6,2.2-11,6.6-15
			C1292.7-363.7,1297.1-365.5,1302.1-365.5z M1302.3-356.4c-3,0-5.5,1-7.5,3.1s-3,4.7-3,8c0,3.3,1,6,2.9,8.1c2,2.1,4.5,3.1,7.5,3.1
			c3,0,5.5-1,7.5-3.1c2-2.1,3-4.8,3-8.1s-1-6-2.9-8C1307.9-355.4,1305.3-356.4,1302.3-356.4z"/>
	</g>
	<g>
		<path class="st2" d="M1369.7-356.7l-8,4.4c-1.5-1.6-3-2.7-4.5-3.3s-3.2-0.9-5.2-0.9c-3.6,0-6.5,1.1-8.7,3.2
			c-2.2,2.1-3.3,4.9-3.3,8.3c0,3.3,1.1,5.9,3.2,8c2.1,2.1,5,3.1,8.4,3.1c4.3,0,7.7-1.5,10.1-4.4l7.6,5.2c-4.1,5.3-9.9,8-17.4,8
			c-6.7,0-12-2-15.8-6c-3.8-4-5.7-8.7-5.7-14c0-3.7,0.9-7.1,2.8-10.3c1.9-3.1,4.4-5.6,7.8-7.4c3.3-1.8,7-2.7,11.2-2.7
			c3.8,0,7.2,0.8,10.3,2.3C1365.3-361.7,1367.7-359.5,1369.7-356.7z"/>
	</g>
	<g>
		<path class="st2" d="M1380.2-379.3h9.6v30.6l14.2-15.8h12.1l-16.5,18.4l18.5,20h-11.9l-16.3-17.7v17.7h-9.6V-379.3z"/>
	</g>
</g>
<rect x="1662.5" y="-780.4" class="st0" width="691" height="691"/>
<g>
	<defs>
		<path id="SVGID_10_" d="M1927.4-494v59.2c0,32.5,26.7,59.2,59.2,59.2h13.4c-25.2-21-33.3-48.4-34.1-74.6
			c11.2,41.3,48.3,74.6,83.1,74.6h39.7v-59.2c0-32.5-26.7-59.2-59.2-59.2H2016c25.2,21,33.3,48.4,34.1,74.6
			c-11.2-41.3-48.3-74.6-83.1-74.6H1927.4z M1908.9-512.5h120.6c42.7,0,77.7,35,77.7,77.7v77.7h-120.6c-42.7,0-77.7-34.9-77.7-77.7
			V-512.5z"/>
	</defs>
	<clipPath id="SVGID_11_">
		<use xlink:href="#SVGID_10_"  style="overflow:visible;"/>
	</clipPath>
	<linearGradient id="SVGID_12_" gradientUnits="userSpaceOnUse" x1="2095.7258" y1="-360.0399" x2="1922.3521" y2="-507.9555">
		<stop  offset="0" style="stop-color:#12D3B4"/>
		<stop  offset="1" style="stop-color:#90D124"/>
	</linearGradient>
	<rect x="1908.9" y="-512.5" class="st6" width="198.3" height="155.3"/>
</g>
</svg>
